<?xml version="1.0" standalone="no"?>
<!DOCTYPE svg PUBLIC "-//W3C//DTD SVG 20010904//EN"
 "http://www.w3.org/TR/2001/REC-SVG-20010904/DTD/svg10.dtd">
<svg version="1.0" xmlns="http://www.w3.org/2000/svg"
 width="300.000000pt" height="290.000000pt" viewBox="0 0 300.000000 290.000000"
 preserveAspectRatio="xMidYMid meet">
<metadata>
Created by potrace 1.10, written by Peter Selinger 2001-2011
</metadata>
<g transform="translate(0.000000,290.000000) scale(0.100000,-0.100000)"
fill="#F1C445" stroke="none">
<path d="M1389 2844 c-7 -8 -21 -13 -30 -11 -35 9 -51 -26 -55 -120 -3 -48 -9
-102 -15 -119 -6 -21 -6 -47 2 -82 12 -61 7 -116 -14 -140 -8 -9 -18 -28 -22
-42 -4 -14 -14 -34 -21 -45 -18 -26 -18 -90 1 -108 35 -36 59 -156 40 -205 -8
-21 -67 -42 -87 -31 -25 14 -23 22 17 63 41 42 47 89 16 125 -10 12 -22 42
-26 66 -3 25 -10 43 -16 40 -5 -4 -9 1 -9 9 0 9 -4 16 -10 16 -5 0 -10 12 -10
28 -1 29 -20 62 -38 62 -5 0 -12 6 -15 13 -7 18 -81 21 -98 5 -8 -8 -31 -13
-52 -12 -21 1 -44 -4 -51 -11 -11 -11 -12 -22 -7 -67 1 -4 13 -18 27 -31 21
-20 24 -28 15 -43 -8 -14 -11 -15 -11 -4 0 8 -17 27 -37 43 -29 21 -47 27 -89
27 -33 0 -58 -5 -68 -15 -8 -8 -18 -15 -23 -15 -18 -1 -44 -52 -44 -88 1 -109
4 -117 39 -120 26 -3 32 -8 32 -26 0 -22 11 -62 32 -119 13 -33 58 -59 93 -53
14 3 23 1 20 -5 -4 -5 -14 -9 -24 -9 -19 0 -51 -30 -51 -48 0 -15 50 -72 64
-72 6 0 12 -8 13 -19 1 -17 -1 -17 -40 -4 -35 12 -101 63 -82 63 3 0 -1 10 -9
22 -9 12 -16 39 -16 60 0 28 -7 44 -27 63 -16 14 -35 25 -43 24 -35 -3 -38 2
-38 56 1 106 -75 156 -153 101 -23 -16 -49 -23 -36 -9 8 7 -31 53 -46 53 -5 0
-22 -9 -37 -20 -28 -20 -31 -47 -7 -77 6 -9 2 -15 -15 -22 -32 -12 -78 -67
-78 -92 0 -33 43 -99 64 -99 8 0 46 -38 46 -47 0 -2 -5 -12 -11 -22 -19 -29
-3 -64 51 -120 48 -50 68 -97 35 -85 -8 4 -15 10 -15 15 0 15 -47 10 -60 -6
-18 -22 -27 -19 -66 20 -44 45 -101 49 -139 10 -42 -41 -30 -155 16 -155 6 0
7 4 4 10 -3 5 -2 10 3 10 5 0 12 -12 15 -27 3 -16 14 -37 25 -49 19 -20 19
-21 1 -32 -45 -29 -27 -135 26 -148 30 -8 57 1 54 18 -4 30 3 38 30 38 24 0
31 -5 36 -30 9 -41 -2 -56 -27 -33 -19 17 -21 17 -43 -10 -13 -15 -27 -27 -30
-27 -10 0 -29 -22 -43 -50 -7 -14 -19 -36 -27 -50 -8 -14 -15 -35 -15 -46 0
-12 -7 -27 -15 -34 -20 -16 -19 -37 1 -48 14 -8 13 -12 -10 -35 -14 -14 -26
-31 -26 -37 0 -6 -4 -9 -9 -6 -15 10 -34 -53 -29 -98 3 -25 2 -48 -2 -53 -14
-14 -15 -82 -2 -95 6 -6 12 -18 12 -24 0 -7 13 -22 28 -33 23 -16 32 -18 42
-8 10 9 11 9 6 0 -4 -8 -1 -13 9 -13 16 0 36 39 28 53 -3 5 5 19 17 32 12 13
19 28 15 34 -3 6 2 11 13 11 22 0 92 65 92 85 0 8 5 15 12 15 6 0 9 3 5 6 -5
6 29 84 37 84 2 0 1 -41 -3 -98 -1 -12 -56 -69 -107 -110 -29 -22 -29 -23 -27
-124 1 -56 6 -104 11 -107 9 -6 19 -42 26 -86 2 -11 -8 -37 -21 -57 -29 -47
-29 -84 -1 -113 13 -13 29 -31 36 -40 10 -11 30 -16 65 -16 95 0 227 -10 227
-18 0 -4 174 -6 388 -4 213 2 437 3 497 4 61 0 148 -3 193 -8 46 -4 86 -6 88
-4 6 7 314 2 324 -4 5 -3 11 -2 13 2 3 5 66 8 141 8 75 0 136 3 136 7 0 6 146
17 232 17 31 0 51 6 60 16 7 10 23 27 36 40 23 23 30 79 12 90 -6 4 -7 11 -4
17 5 7 2 8 -6 3 -10 -6 -11 0 -6 26 4 19 11 88 16 154 5 66 12 131 15 145 17
62 17 81 0 108 -10 15 -12 21 -4 15 7 -7 20 -13 30 -13 17 0 19 -21 4 -54 -10
-23 10 -37 50 -31 17 2 36 4 43 4 7 1 10 6 7 11 -3 6 1 10 9 10 17 0 27 30 31
93 2 23 6 57 10 75 5 21 1 58 -11 103 -20 79 -14 94 38 83 20 -4 29 0 37 15
16 29 13 51 -6 51 -9 0 -13 3 -10 7 9 8 -24 32 -44 33 -14 0 -29 29 -33 62 -1
4 -7 13 -13 20 -7 6 -13 17 -13 22 0 6 -11 21 -24 34 -20 18 -29 20 -49 13
-14 -5 -28 -15 -32 -21 -3 -5 -10 -8 -15 -5 -12 8 -24 90 -16 118 7 31 42 70
55 62 6 -3 11 -1 11 5 0 7 6 10 14 7 23 -9 96 80 96 118 0 17 6 37 12 43 9 9
10 17 1 30 -8 14 -7 23 3 37 29 39 8 90 -24 58 -8 -7 -18 -11 -23 -8 -5 4 -9
1 -9 -4 0 -6 -6 -11 -14 -11 -8 0 -24 -14 -37 -31 -55 -72 -72 -89 -85 -89
-12 0 -12 4 -4 20 6 11 15 20 21 20 21 0 39 26 26 39 -8 8 -8 11 1 11 7 0 11
12 10 29 -1 16 4 36 11 44 9 11 10 21 2 34 -7 13 -5 23 6 35 14 16 14 21 -2
55 -10 21 -23 41 -29 45 -6 4 -10 20 -8 36 4 36 -54 92 -95 92 -16 0 -39 11
-55 27 -27 26 -28 26 -48 8 -19 -17 -21 -17 -40 0 -10 9 -26 15 -34 12 -15 -6
-50 25 -40 36 4 4 -1 9 -10 13 -9 3 -16 12 -16 20 0 7 -9 28 -20 46 -11 18
-20 30 -20 26 0 -5 -9 1 -20 12 -12 12 -25 18 -30 15 -5 -3 -15 3 -22 15 -7
11 -17 20 -21 20 -5 0 -15 7 -23 15 -10 10 -35 15 -69 15 -42 0 -60 -5 -83
-25 -17 -14 -35 -25 -41 -25 -6 0 -11 -9 -11 -19 0 -11 -4 -23 -10 -26 -5 -3
-10 -19 -10 -35 0 -37 -24 -46 -39 -14 -9 21 -8 26 7 31 25 10 42 29 42 49 0
10 11 29 24 43 13 15 27 40 31 58 7 37 -8 48 -65 48 -19 0 -41 6 -49 13 -23
22 -86 11 -120 -20 -31 -29 -35 -39 -31 -67 1 -8 -4 -20 -12 -25 -17 -14 -38
-61 -38 -87 0 -10 -9 -27 -20 -36 -34 -29 -27 -85 15 -129 36 -37 44 -59 23
-66 -19 -7 -74 10 -88 27 -18 21 -20 106 -3 130 7 11 13 27 13 37 0 10 9 27
20 38 24 24 27 86 5 118 -10 13 -17 48 -18 88 -2 43 -7 69 -15 72 -18 6 -34
39 -19 39 23 0 87 32 87 43 0 5 -9 30 -20 54 -21 44 -55 68 -100 70 -18 1 -26
8 -30 26 -12 48 -32 90 -45 90 -7 0 -18 7 -25 15 -11 14 -14 13 -27 -5 -8 -11
-13 -28 -12 -38 1 -9 -1 -24 -5 -33 -4 -9 0 -33 8 -53 8 -20 16 -40 17 -44 4
-10 -66 -11 -83 -1 -10 7 -11 12 0 29 6 11 12 30 12 43 0 13 5 39 11 56 15 42
1 69 -51 99 -46 26 -44 26 -61 6z m36 -34 c-4 -14 -1 -16 18 -13 14 3 29 -2
36 -11 19 -23 -32 -110 -60 -103 -13 4 -19 0 -20 -11 -1 -15 -2 -15 -6 1 -2 9
-14 17 -26 17 l-21 0 22 -20 c27 -25 33 -25 66 1 32 25 44 18 26 -15 -7 -14
-10 -34 -7 -46 4 -18 3 -19 -9 -9 -12 10 -13 9 -8 -5 7 -17 9 -18 99 -21 33
-1 83 -10 111 -20 28 -10 58 -16 67 -12 31 12 6 37 -52 53 -32 9 -66 26 -78
40 -23 25 -32 74 -13 74 6 0 5 10 -2 25 -14 32 -4 43 19 20 30 -30 41 -60 31
-80 -12 -21 3 -38 50 -53 28 -10 32 -9 32 6 1 16 2 16 14 0 7 -10 16 -15 19
-11 4 3 7 -1 7 -10 0 -9 5 -17 10 -17 6 0 8 -11 4 -27 -6 -23 -4 -25 15 -20
11 3 21 1 21 -4 0 -5 -3 -10 -7 -10 -5 -1 -19 -4 -33 -6 -14 -3 -42 -5 -62 -5
l-36 0 20 -36 c11 -20 27 -42 37 -48 17 -13 25 -84 9 -84 -5 0 -6 -4 -3 -10 3
-5 -1 -10 -9 -10 -9 0 -16 -5 -16 -11 0 -6 7 -9 15 -5 9 3 15 0 15 -9 0 -8 7
-15 16 -15 14 0 14 -3 4 -16 -11 -12 -11 -15 0 -12 7 2 13 -7 15 -19 1 -13 -2
-23 -7 -23 -5 0 -6 -5 -3 -10 3 -6 -1 -17 -10 -26 -9 -9 -19 -29 -22 -45 -3
-16 -9 -29 -13 -29 -4 0 -10 -9 -13 -20 -3 -11 -1 -20 3 -20 4 0 6 -9 3 -20
-3 -11 -9 -17 -14 -14 -5 3 -4 -7 1 -21 13 -35 13 -35 -10 -35 -11 0 -20 5
-20 10 0 6 -4 10 -10 10 -5 0 -10 -7 -10 -15 0 -8 7 -15 16 -15 8 0 12 -5 9
-10 -5 -8 -12 -7 -22 1 -11 10 -19 10 -33 1 -14 -9 -19 -8 -24 3 -4 11 2 15
22 16 21 1 22 2 7 6 -26 7 -46 23 -40 33 9 15 -21 18 -40 4 -18 -13 -17 -14 8
-14 15 0 27 -4 27 -10 0 -5 -8 -10 -17 -10 -12 0 -14 -3 -6 -8 7 -4 9 -13 4
-21 -6 -10 -13 -5 -27 18 l-18 30 -13 -32 c-11 -25 -16 -28 -23 -17 -6 9 -5
17 1 21 18 11 -42 17 -75 8 -17 -5 -40 -9 -52 -9 -22 0 -22 -1 -24 93 0 20 -4
37 -9 37 -5 0 -11 13 -14 29 -3 16 -13 36 -22 45 -9 9 -13 20 -10 26 3 5 2 10
-3 10 -5 0 -8 10 -7 23 2 12 8 21 15 19 11 -3 11 0 0 12 -10 13 -10 16 4 16
10 0 16 8 16 21 0 11 9 32 19 45 23 29 38 128 24 147 -20 24 -23 63 -7 85 10
14 11 22 4 22 -7 0 -5 7 4 16 19 18 20 26 5 41 -7 7 -8 19 -3 30 4 10 8 38 8
63 1 44 2 45 33 44 23 -1 33 3 36 18 3 11 10 17 17 13 6 -4 8 -15 5 -25z
m-350 -464 c34 -15 55 -41 55 -72 0 -10 10 -28 22 -41 24 -26 31 -89 14 -128
-7 -16 -7 -18 5 -7 7 6 22 12 32 12 42 0 -4 -95 -54 -112 -6 -2 -11 -17 -11
-33 0 -60 70 -73 143 -26 45 28 46 28 58 9 10 -16 9 -23 -5 -39 -20 -22 -15
-106 8 -123 7 -6 12 -21 10 -34 -2 -13 2 -30 8 -37 14 -17 6 -45 -12 -45 -10
0 -10 2 1 9 7 5 10 14 6 21 -5 8 -12 7 -26 -6 -15 -14 -17 -20 -6 -32 10 -13
9 -15 -6 -9 -10 4 -28 0 -41 -8 -35 -23 -85 -36 -138 -36 -45 0 -50 -3 -97
-57 -28 -31 -65 -87 -83 -124 -31 -63 -48 -83 -48 -57 0 21 80 146 124 196
l46 51 -28 10 c-16 5 -36 18 -47 28 -11 11 -30 17 -49 16 -17 -1 -38 2 -46 7
-13 9 -12 12 5 25 19 15 19 15 -11 16 -19 0 -38 9 -51 23 -32 35 -36 47 -16
45 10 0 31 0 47 0 24 2 26 4 16 17 -10 12 -8 15 12 20 13 3 36 1 52 -4 38 -15
59 -14 82 4 18 15 17 16 -13 10 -22 -4 -47 0 -79 14 -26 12 -68 21 -95 21 -37
0 -54 5 -71 22 l-22 22 22 9 22 10 -22 11 c-17 8 -24 22 -26 49 -3 40 -1 42
29 26 18 -9 20 -7 17 18 -2 15 -11 34 -22 42 -16 12 -20 12 -28 -3 -5 -10 -22
-16 -42 -16 -31 0 -33 2 -28 28 2 15 10 33 16 41 9 11 7 13 -13 6 -21 -6 -22
-5 -16 17 13 42 36 69 72 85 47 19 95 10 136 -27 31 -28 32 -31 31 -107 -1
-43 1 -69 3 -58 16 66 58 43 65 -37 5 -43 11 -57 39 -82 34 -30 55 -21 26 12
-49 56 -62 142 -27 183 17 21 21 22 30 9 8 -13 10 -13 10 1 0 9 7 22 15 29 8
7 15 23 15 36 0 24 -1 24 -25 8 -27 -17 -91 -22 -106 -7 -6 6 -1 17 11 28 l21
19 -32 10 c-23 8 -37 21 -46 44 l-14 34 61 -4 c53 -3 59 -1 54 15 -7 21 14 22
61 3z m911 -3 c-5 -16 1 -18 53 -15 58 4 59 4 54 -22 -6 -30 -37 -56 -67 -56
-18 0 -18 -1 3 -24 15 -16 19 -26 11 -31 -20 -13 -80 -7 -105 9 -24 16 -25 16
-25 -8 0 -13 7 -29 15 -36 8 -7 15 -20 15 -29 0 -14 2 -14 10 -1 9 13 13 12
30 -9 35 -41 22 -127 -27 -183 -29 -33 -8 -42 26 -12 28 25 34 39 39 82 7 80
49 104 64 37 3 -11 5 15 4 58 -1 76 0 79 31 107 18 16 47 32 66 35 62 12 129
-32 139 -90 2 -15 -2 -19 -16 -17 -16 3 -18 1 -9 -10 6 -7 13 -25 15 -40 5
-25 2 -28 -23 -28 -15 0 -35 7 -43 16 -21 21 -50 0 -54 -39 -3 -25 -1 -27 17
-18 30 16 32 14 29 -26 -2 -27 -9 -41 -26 -49 l-22 -11 22 -10 22 -9 -22 -22
c-17 -17 -34 -22 -71 -22 -27 0 -69 -9 -95 -21 -32 -14 -57 -18 -79 -14 -30 6
-31 5 -13 -10 23 -18 44 -19 82 -4 16 5 39 7 52 4 20 -5 22 -8 12 -20 -10 -13
-8 -15 16 -17 16 0 37 0 47 0 20 2 16 -10 -16 -45 -13 -14 -32 -23 -51 -23
-30 -1 -30 -1 -11 -16 17 -13 18 -16 5 -25 -8 -5 -29 -8 -46 -7 -18 1 -39 -4
-48 -12 -16 -12 -16 -11 -5 13 7 15 16 24 20 21 5 -3 9 4 9 15 0 12 -5 21 -11
21 -5 0 -7 -5 -3 -11 4 -8 -1 -9 -17 -5 -13 3 -18 3 -11 0 18 -9 -22 -60 -53
-68 -14 -4 -25 -12 -25 -18 0 -9 3 -9 12 0 16 16 33 15 20 -1 -8 -10 -2 -22
27 -49 21 -20 54 -61 72 -92 19 -30 41 -56 50 -56 13 0 14 10 8 67 -8 82 -30
106 -94 102 -65 -4 -74 10 -23 38 36 21 52 24 96 20 29 -3 59 -11 67 -17 17
-14 45 -96 37 -107 -4 -4 5 2 19 15 15 13 30 22 35 21 21 -4 34 2 34 14 0 8
16 18 35 24 20 6 35 7 35 2 0 -5 7 -9 16 -9 14 0 14 -2 3 -16 -12 -14 -14 -14
-25 0 -13 19 -41 12 -41 -9 0 -10 8 -13 26 -10 l26 5 -24 -10 c-14 -6 -31 -8
-38 -6 -8 3 -17 -2 -20 -12 -4 -9 -15 -24 -26 -32 -12 -10 -16 -21 -11 -33 6
-16 10 -14 36 17 16 19 51 48 78 63 32 18 46 31 40 38 -12 14 9 85 25 85 21 0
25 -13 7 -27 -16 -13 -16 -14 0 -9 12 3 15 1 11 -10 -3 -8 -12 -13 -19 -10
-21 8 -17 -12 5 -23 15 -9 18 -7 17 7 -1 12 6 17 26 16 15 0 25 3 23 6 -2 4
25 35 59 69 39 39 67 76 71 95 4 17 9 37 10 44 2 6 -2 9 -8 5 -6 -4 -8 -1 -5
9 3 8 -2 19 -11 25 -16 10 -17 8 -8 -27 11 -38 -4 -100 -24 -100 -5 0 -9 -6
-9 -14 0 -19 -22 -26 -81 -26 -51 0 -119 -32 -119 -57 0 -6 -13 -16 -30 -22
-24 -8 -30 -7 -30 3 0 8 10 16 23 20 18 5 19 8 7 15 -8 6 -12 11 -10 13 3 2
14 8 24 14 47 25 22 48 -38 34 -20 -4 -38 -4 -41 0 -12 19 21 61 62 81 25 12
65 39 90 61 25 21 58 42 74 45 16 3 29 12 29 19 0 19 -47 0 -83 -34 -21 -20
-30 -23 -39 -14 -9 9 -8 12 4 12 9 0 25 15 36 33 l19 33 -25 49 c-13 27 -35
78 -49 114 -34 90 -8 65 70 -68 l62 -106 6 35 6 35 20 -44 21 -44 18 34 c10
19 17 40 15 48 -4 23 16 3 29 -29 10 -24 10 -33 0 -45 -7 -8 -18 -15 -24 -14
-35 4 -36 -4 -2 -16 45 -16 94 -60 102 -92 4 -13 21 -30 41 -40 19 -9 37 -23
40 -32 2 -9 9 -24 14 -33 7 -13 5 -18 -5 -18 -8 0 -18 5 -21 10 -3 6 -13 10
-22 10 -14 0 -14 -2 1 -18 16 -18 30 -112 17 -112 -18 0 -47 57 -44 85 5 36
-8 24 -27 -25 -8 -19 -27 -54 -42 -77 -27 -41 -28 -43 -8 -43 11 0 20 6 20 13
0 7 8 24 17 37 10 14 16 33 15 43 -4 21 14 23 22 1 14 -37 6 -72 -21 -93 -24
-17 -26 -22 -13 -31 12 -8 13 -10 1 -10 -8 0 -23 7 -33 17 -17 15 -18 15 -20
-13 0 -16 -1 -36 0 -45 1 -9 -13 -21 -33 -29 l-34 -13 19 -25 c13 -16 18 -33
14 -48 -5 -19 -2 -24 12 -24 13 0 15 -3 7 -11 -6 -6 -20 -8 -30 -5 -15 5 -20
16 -21 48 -2 53 -12 64 -12 12 0 -36 33 -191 41 -197 2 -2 16 -8 32 -15 15 -6
32 -23 37 -37 6 -15 14 -24 19 -20 16 9 51 -49 44 -75 -4 -15 -1 -27 10 -35
20 -15 13 -75 -9 -75 -8 0 -14 -6 -14 -13 0 -28 62 -136 81 -142 29 -9 55 2
67 30 20 44 -4 115 -81 242 -90 149 -121 236 -114 318 6 81 26 116 93 166 31
22 65 56 76 75 19 32 108 102 108 85 0 -5 -8 -19 -17 -32 -10 -13 -24 -34 -31
-47 -12 -21 -11 -22 15 -17 23 5 25 4 11 -5 -10 -6 -18 -18 -18 -27 0 -9 -7
-25 -17 -35 -15 -17 -15 -18 8 -19 19 -1 20 -2 5 -6 -10 -3 -30 -18 -43 -33
-13 -16 -39 -32 -61 -37 -30 -7 -41 -16 -60 -53 -28 -53 -24 -115 10 -186 25
-49 38 -56 38 -19 0 14 9 34 20 45 24 24 49 28 30 5 -7 -8 -10 -24 -7 -35 6
-24 -29 -63 -47 -53 -6 4 -3 -6 8 -22 10 -15 28 -44 39 -62 l20 -35 21 26 c30
36 69 43 95 17 12 -12 26 -21 33 -21 6 0 8 -3 4 -8 -4 -4 -26 -7 -49 -7 -34 0
-44 -5 -56 -26 -13 -24 -13 -32 2 -79 21 -65 22 -112 2 -150 -9 -18 -11 -31
-5 -35 6 -3 10 -19 10 -35 0 -24 -7 -32 -45 -51 -48 -24 -68 -21 -41 6 9 9 16
21 16 26 0 21 -21 49 -36 49 -28 0 -70 38 -89 79 -13 30 -21 38 -30 31 -6 -5
-15 -6 -19 -2 -4 4 -14 -1 -21 -11 -11 -16 -8 -25 22 -70 19 -28 48 -59 65
-69 21 -14 28 -24 23 -36 -14 -35 -33 -170 -34 -245 -1 -86 -5 -99 -28 -95
-23 4 -27 -19 -5 -24 26 -7 63 -80 50 -101 -5 -9 -16 -17 -23 -17 -8 0 -15 -9
-15 -20 0 -28 -36 -45 -67 -31 -18 8 -30 8 -46 -1 -33 -19 -2102 -19 -2134 0
-18 10 -28 10 -44 1 -29 -15 -69 3 -69 31 0 11 -7 20 -15 20 -7 0 -18 8 -23
17 -11 19 16 79 49 109 13 12 16 20 8 24 -7 5 0 13 18 20 23 11 30 20 30 44 0
28 -1 29 -10 8 -6 -12 -16 -22 -24 -22 -7 0 -16 -7 -20 -16 -5 -13 -7 -13 -14
-2 -15 23 -10 53 16 88 36 49 31 59 -10 16 l-35 -37 0 28 c0 20 11 40 35 63
19 19 35 38 35 42 0 9 -60 -30 -72 -47 -10 -12 -10 17 -2 40 4 10 21 23 38 31
30 13 30 13 5 14 -14 0 -30 -5 -37 -12 -9 -9 -12 -8 -12 5 0 9 25 35 55 58 75
57 95 101 95 212 0 55 6 101 15 124 17 41 20 77 5 68 -6 -4 -10 -14 -9 -23 2
-10 -13 -48 -33 -87 -19 -38 -43 -94 -53 -123 -19 -60 -81 -132 -113 -132 -32
0 -52 -11 -52 -27 0 -10 7 -14 20 -10 17 4 18 2 9 -14 -11 -21 -45 -26 -51 -7
-3 9 -6 9 -12 0 -4 -6 4 -21 19 -34 25 -21 37 -50 13 -30 -7 5 -24 12 -38 14
-30 4 -40 47 -16 68 9 7 16 17 16 23 0 5 -11 -3 -25 -19 l-25 -29 0 31 c0 43
22 61 57 45 14 -6 28 -10 30 -7 3 3 -11 11 -30 19 -65 28 -59 98 15 174 43 44
47 80 8 70 -27 -7 -25 -1 4 18 20 14 29 14 47 4 22 -11 21 -10 -4 20 -29 34
-32 48 -18 70 7 11 10 9 15 -7 4 -11 14 -23 23 -26 12 -5 14 -2 9 16 -3 13 -9
32 -12 43 -2 11 2 29 11 40 8 11 15 16 14 10 -3 -23 2 -35 19 -44 18 -9 19 -6
14 37 -3 36 0 51 12 61 14 12 16 12 10 -3 -6 -16 20 -56 36 -56 10 0 40 75 40
99 0 10 -9 30 -21 45 -37 47 -117 27 -107 -27 4 -18 1 -27 -8 -27 -15 0 -54
47 -54 67 0 25 47 63 80 63 16 0 30 5 30 11 0 5 5 7 10 4 6 -4 7 -12 4 -18 -4
-7 -3 -9 1 -4 5 4 17 -1 28 -10 19 -17 20 -17 8 4 -15 29 -24 34 -73 38 -62 4
-92 42 -83 104 8 53 21 73 35 51 5 -8 10 -26 11 -40 2 -23 2 -23 6 -3 2 12 -1
32 -8 44 -10 20 -9 21 7 15 14 -5 16 -4 8 4 -19 19 -53 1 -68 -34 -8 -18 -23
-35 -33 -38 -18 -5 -19 -1 -15 46 6 71 37 92 95 65 31 -14 46 -42 55 -103 5
-35 13 -53 31 -65 23 -15 24 -15 13 6 -39 72 15 150 77 111 19 -12 19 -12 -2
-23 -29 -14 -27 -53 6 -130 37 -83 36 -146 -3 -219 -40 -77 -115 -185 -200
-287 -73 -87 -81 -110 -53 -141 44 -49 113 5 152 118 33 95 74 174 106 204 60
56 106 169 110 273 1 37 0 67 -2 67 -2 0 -9 -13 -14 -30 -6 -16 -14 -30 -17
-30 -15 0 -11 146 4 187 14 36 15 48 4 73 -16 40 -23 33 -9 -9 12 -34 0 -61
-27 -61 -11 0 -12 4 -2 19 10 16 7 24 -15 51 -15 17 -27 40 -27 51 0 10 -6 19
-14 19 -20 0 -53 31 -61 58 -5 18 -2 25 14 29 12 3 21 11 21 19 0 14 -78 94
-92 94 -4 0 -14 14 -23 30 -10 19 -11 30 -5 30 6 0 9 4 6 9 -7 11 29 53 38 44
3 -3 6 -1 6 5 0 7 3 11 8 11 4 -1 17 -1 29 0 18 1 21 6 18 29 -2 15 -4 32 -4
37 -1 6 -5 4 -10 -3 -6 -10 -10 -10 -21 3 -10 13 -9 15 6 15 15 0 16 2 5 9
-11 7 -8 10 9 16 29 9 56 -20 39 -42 -9 -10 -8 -13 4 -13 8 0 17 -5 19 -12 3
-7 16 0 34 19 21 22 38 30 64 30 35 -1 62 -15 53 -29 -2 -5 1 -8 7 -8 8 0 10
-9 6 -25 -6 -25 10 -113 24 -128 4 -5 17 -3 29 5 20 12 24 10 42 -12 15 -17
19 -33 15 -53 -4 -20 0 -37 14 -54 11 -14 20 -34 20 -43 0 -22 26 -44 41 -34
7 4 10 2 7 -7 -8 -24 -38 -22 -76 7 -35 26 -36 26 -17 3 11 -13 25 -27 30 -31
15 -11 53 -9 74 4 11 6 26 8 37 3 18 -7 18 -8 2 -12 -10 -3 -18 -14 -18 -25 0
-20 1 -20 20 -3 26 23 70 22 90 -2 11 -14 21 -18 35 -12 11 4 37 8 59 8 l39 1
-39 -42 c-22 -24 -50 -61 -64 -83 -13 -22 -30 -46 -37 -53 -7 -7 -13 -18 -13
-23 0 -5 -11 -11 -25 -15 -14 -3 -22 -10 -19 -15 3 -5 1 -9 -3 -9 -13 0 -40
23 -47 40 -3 8 -4 5 -2 -6 4 -23 -3 -24 -59 -10 -11 2 -22 5 -25 5 -2 1 2 7 8
13 10 10 15 10 22 -2 6 -9 10 -10 10 -3 0 14 -34 35 -53 32 -6 -2 -26 1 -44 5
-26 6 -33 13 -36 39 l-4 32 -1 -33 c-2 -27 3 -34 26 -43 15 -6 40 -12 57 -12
27 0 28 -1 7 -10 -37 -17 -95 12 -109 53 -8 24 -12 29 -12 14 -1 -32 34 -71
71 -78 26 -5 30 -9 18 -16 -22 -14 -53 -13 -44 2 5 8 2 9 -10 5 -12 -5 -19 1
-27 20 -5 14 -12 23 -15 20 -3 -3 2 -19 11 -36 10 -21 23 -31 38 -31 12 0 37
-9 56 -21 28 -17 33 -18 27 -4 -3 9 -6 20 -6 25 0 4 -10 6 -22 3 -23 -5 -23
-5 -3 10 18 14 23 14 42 1 13 -8 35 -14 50 -13 16 0 52 -4 82 -9 56 -10 103
-3 135 21 15 11 16 17 5 40 -10 21 -10 30 -1 39 9 9 12 9 12 0 0 -7 9 -12 21
-12 13 0 18 4 13 13 -5 9 -4 9 5 1 12 -11 7 -27 -27 -98 -3 -5 1 -5 8 -1 6 4
20 26 30 50 22 51 36 62 43 35 5 -20 37 -29 37 -10 0 5 18 13 40 16 32 5 38 9
29 20 -6 8 -8 25 -5 38 6 24 -9 47 -16 26 -2 -6 -8 -2 -15 9 -10 16 -9 18 8
14 11 -3 22 -9 24 -14 3 -4 12 -6 19 -3 24 9 37 -19 21 -49 -8 -15 -10 -27 -5
-27 4 0 10 7 14 15 4 12 24 15 86 15 54 0 79 4 75 10 -4 7 -28 8 -65 4 -66 -7
-88 0 -69 22 6 8 29 14 50 14 28 0 39 4 39 15 0 9 -9 15 -21 15 -12 0 -37 9
-55 21 -37 22 -54 19 -54 -12 0 -16 7 -19 43 -19 l42 -1 -30 -13 c-24 -11 -33
-11 -45 -1 -8 7 -21 14 -29 17 -22 6 43 68 72 68 14 0 39 13 55 29 31 28 31
28 59 10 42 -28 75 -31 127 -14 37 13 51 14 62 5 20 -18 7 -32 -18 -19 -16 9
-23 8 -29 -2 -5 -8 -7 -19 -5 -26 3 -6 -2 -14 -10 -17 -9 -4 -14 1 -14 14 0
11 -4 20 -9 20 -5 0 -7 -26 -4 -59 3 -36 1 -61 -5 -65 -6 -3 -27 4 -47 15 -31
18 -34 24 -21 31 18 10 22 48 5 48 -6 0 -9 6 -6 13 3 8 2 19 -3 26 -6 10 -12
11 -30 1 -20 -11 -22 -10 -17 4 5 12 -1 11 -28 -6 -35 -24 -37 -38 -5 -35 22
1 26 13 8 20 -8 4 -7 6 3 6 21 1 31 -23 16 -38 -8 -8 -7 -11 5 -11 9 0 19 -11
22 -25 4 -16 21 -32 46 -45 l40 -20 40 25 c26 16 40 33 40 46 0 17 -3 19 -14
10 -10 -8 -16 -9 -21 -1 -3 5 1 13 10 16 10 4 13 13 10 24 -6 20 10 36 20 20
3 -5 18 -8 33 -4 23 4 24 4 9 -6 -9 -6 -14 -16 -11 -22 5 -7 2 -9 -8 -5 -13 4
-14 0 -8 -28 4 -19 5 -36 2 -39 -3 -4 50 -6 117 -6 90 0 120 3 115 12 -4 6 -3
8 4 4 6 -4 11 -68 12 -176 l1 -170 -36 0 c-22 0 -34 4 -30 10 4 6 -7 10 -24
10 -17 0 -31 4 -31 9 0 18 -41 19 -63 0 -12 -10 -17 -18 -10 -19 6 0 14 6 16
13 4 9 8 9 15 -2 6 -9 12 -10 16 -2 5 7 13 7 27 -2 19 -11 18 -12 -8 -17 -38
-7 -94 0 -87 11 3 5 -4 9 -16 9 -48 0 -67 65 -34 115 15 23 15 27 0 50 -33 51
-12 125 35 125 26 -1 69 -31 69 -50 0 -7 8 -9 19 -5 11 3 22 1 26 -5 4 -6 3
-10 -2 -9 -25 4 -42 -3 -48 -21 -7 -22 -51 -28 -57 -8 -2 6 -9 8 -16 4 -6 -3
-9 -13 -6 -21 4 -8 10 -12 15 -9 5 3 9 0 9 -6 0 -7 18 -10 48 -8 41 3 49 7 60
32 6 15 12 37 12 48 0 16 -5 19 -25 16 -31 -6 -31 -2 -2 23 68 57 143 -27 88
-98 -20 -25 -18 -52 6 -66 14 -9 18 -87 4 -87 -5 0 -11 -7 -15 -15 -4 -10 1
-15 14 -15 19 0 20 7 20 155 l0 155 -124 0 c-68 0 -131 -3 -140 -6 -20 -8 -23
-119 -3 -128 9 -5 9 -7 -1 -12 -9 -4 -10 -9 -2 -19 8 -9 8 -15 0 -20 -5 -3
-10 -33 -10 -65 0 -56 1 -59 28 -63 25 -4 25 -4 -5 -6 l-32 -1 -3 150 c-3 149
-3 151 -23 135 -16 -12 -17 -14 -2 -9 15 5 17 -1 17 -51 0 -35 -4 -54 -10 -50
-5 3 -10 -1 -10 -9 0 -9 5 -16 10 -16 7 0 10 -28 8 -75 -1 -41 -5 -70 -9 -64
-4 8 -9 8 -13 1 -3 -6 -2 -13 3 -17 6 -3 8 -11 5 -18 -6 -17 41 -16 58 0 14
15 112 18 103 4 -3 -5 -1 -12 5 -16 6 -3 13 1 16 9 8 22 97 22 114 1 14 -17
30 -20 30 -4 0 5 -4 8 -9 4 -5 -3 -12 -1 -16 5 -10 16 21 12 35 -5 18 -21 24
-11 10 15 -8 15 -8 20 -1 16 6 -4 11 -3 11 3 0 5 -4 13 -10 16 -14 9 -12 119
2 133 9 9 9 12 0 12 -14 0 -17 116 -3 125 5 3 9 18 9 34 -1 24 -5 28 -29 29
-16 0 -31 -4 -34 -9 -8 -13 -102 -11 -111 2 -4 8 -9 8 -17 0 -17 -17 -64 -13
-71 5 -10 25 -7 30 20 42 14 7 22 17 19 22 -3 6 1 7 12 4 15 -5 15 -3 -2 10
-35 27 -55 49 -55 62 0 8 -12 6 -37 -7 -49 -25 -87 -24 -149 5 -49 23 -90 58
-49 43 9 -4 24 -2 31 4 11 9 14 8 14 -5 0 -19 21 -21 38 -4 9 9 15 8 27 -8 15
-19 15 -19 30 0 12 16 18 17 27 8 17 -17 38 -15 38 4 0 13 3 14 15 4 8 -7 22
-9 31 -6 14 5 15 4 4 -9 -15 -18 -5 -54 11 -38 13 13 18 58 8 74 -4 8 -1 17 7
24 24 17 30 90 10 120 -13 20 -14 29 -5 44 12 18 14 17 58 -10 54 -35 102 -38
132 -8 20 20 19 59 -3 68 -26 9 -59 50 -64 79 -6 27 -4 32 13 32 10 0 25 -6
32 -12 12 -11 12 -9 5 7 -14 34 -10 102 8 122 9 10 23 36 30 58 10 29 22 45
48 57 46 24 73 24 66 1z m-1018 -179 c28 -13 30 -17 20 -39 -14 -32 -44 -17
-50 25 -3 16 -4 30 -3 30 1 0 16 -7 33 -16z m1393 -94 c5 0 9 -7 9 -15 0 -9 9
-34 20 -55 l21 -40 -32 -31 c-18 -18 -28 -36 -25 -45 4 -11 -10 -22 -49 -40
-56 -26 -85 -61 -85 -102 0 -32 26 -47 56 -33 44 20 61 11 20 -11 -32 -16 -44
-18 -58 -9 -14 9 -18 8 -18 -4 0 -9 9 -15 24 -15 20 0 23 -4 18 -22 -3 -13
-10 -28 -16 -34 -15 -14 -56 -24 -56 -13 0 4 -14 24 -31 44 l-32 36 30 32 c17
18 33 41 37 51 8 23 -19 56 -45 56 -10 0 -21 4 -24 10 -3 5 0 7 9 4 30 -12 87
16 100 49 22 51 36 102 36 125 0 12 3 23 8 23 4 1 18 3 31 4 28 3 44 25 30 42
-6 7 -7 18 -2 25 6 9 9 7 11 -9 2 -13 8 -23 13 -23z m-937 -108 c-5 -14 -4
-15 5 -2 17 23 31 -5 23 -49 -6 -39 -6 -47 -4 -102 1 -26 7 -38 20 -41 16 -5
18 3 17 76 0 65 3 81 15 81 12 0 15 -16 15 -81 0 -70 2 -80 16 -77 20 6 30 74
19 134 -8 44 -4 69 11 69 14 0 31 -81 26 -129 -11 -107 -19 -126 -41 -96 -12
17 -13 17 -28 -4 l-15 -21 -19 21 c-17 19 -19 19 -31 3 -24 -33 -36 6 -38 126
-1 42 -5 81 -9 88 -9 15 -36 16 -36 1 0 -5 5 -7 11 -3 19 11 29 -18 13 -40
-18 -26 -18 -93 0 -127 7 -15 10 -32 7 -38 -10 -16 -43 -2 -37 15 3 8 -2 26
-11 42 -18 32 -11 100 12 108 11 5 10 10 -6 27 l-20 22 38 11 c44 13 54 10 47
-14z m92 -6 c19 -20 18 -21 -16 -21 -34 0 -35 1 -17 20 15 18 16 18 33 1z
m1217 -28 l29 -28 -35 0 c-47 0 -55 -12 -15 -26 28 -9 87 -73 88 -96 0 -3 -18
1 -39 10 -22 9 -37 20 -34 24 2 5 -3 8 -11 8 -9 0 -16 6 -16 14 0 8 -7 17 -16
20 -11 4 -15 14 -12 31 3 13 1 22 -4 19 -5 -3 -15 0 -23 6 -8 6 -19 9 -25 5
-21 -13 -9 14 15 33 31 25 60 19 98 -20z m-1103 22 c12 -8 13 -12 2 -19 -11
-7 -11 -9 2 -14 24 -9 32 -76 13 -109 -9 -16 -14 -34 -11 -42 6 -17 -27 -31
-37 -15 -3 6 0 23 7 38 18 34 18 102 0 126 -8 11 -12 25 -9 32 6 15 13 16 33
3z m-200 -331 c-9 -15 -7 -19 5 -19 19 0 19 -14 0 -30 -10 -9 -15 -9 -15 -1 0
6 6 11 13 11 6 1 3 6 -8 13 -11 7 -21 20 -23 31 -2 11 1 15 7 11 6 -3 11 -1
11 5 0 6 5 8 10 5 7 -4 7 -13 0 -26z m-218 -31 c-9 -9 -67 -13 -91 -7 -10 3
-14 -7 -15 -36 -1 -32 2 -39 16 -37 22 3 34 -18 17 -29 -11 -7 -9 -9 6 -9 17
0 17 -2 5 -10 -18 -12 -33 -13 -26 -2 2 4 1 14 -3 21 -6 10 -13 10 -28 2 -11
-5 -23 -8 -26 -4 -4 3 -13 0 -22 -7 -10 -8 -15 -9 -15 -1 0 6 -7 11 -16 11 -8
0 -12 5 -9 10 5 8 11 8 20 0 9 -8 15 -8 20 0 3 6 11 8 16 5 5 -4 9 -1 9 5 0 7
-8 9 -20 5 -28 -9 -25 2 14 49 32 40 35 41 94 41 34 1 58 -3 54 -7z m358 -34
c0 -2 -9 -8 -20 -14 -17 -9 -20 -8 -20 9 0 14 5 18 20 14 11 -3 20 -7 20 -9z
m480 -4 c9 -16 8 -20 -5 -20 -8 0 -15 6 -15 14 0 8 -6 17 -12 19 -8 3 -6 6 4
6 10 1 22 -8 28 -19z m-906 -4 c-4 -11 0 -13 17 -9 14 4 20 2 15 -5 -3 -6 -2
-13 4 -17 5 -3 15 -15 20 -26 9 -15 7 -19 -5 -19 -8 0 -21 11 -27 25 -6 13
-19 27 -30 30 -21 7 -24 35 -3 35 8 0 12 -6 9 -14z m586 -40 c0 -11 -19 -15
-25 -6 -3 5 1 10 9 10 9 0 16 -2 16 -4z m-1254 -83 c2 -32 5 -71 7 -88 3 -16
2 -21 0 -10 -3 11 -8 22 -12 25 -15 12 -38 67 -37 87 2 22 26 57 34 49 2 -3 6
-31 8 -63z m2178 36 c-5 -9 -34 -13 -34 -5 0 2 3 12 6 20 5 13 9 14 20 5 8 -6
11 -15 8 -20z m-920 -44 c-8 -20 -31 -26 -38 -10 -3 8 2 19 12 24 20 12 33 5
26 -14z m-724 -14 c0 -5 -9 -7 -20 -4 -12 3 -22 -1 -26 -11 -3 -9 -10 -16 -15
-16 -6 0 -5 9 1 20 11 20 60 29 60 11z m1616 -8 c-3 -21 -26 -30 -26 -10 0 7
3 17 7 20 12 12 21 7 19 -10z m-796 -13 c0 -5 -5 -10 -11 -10 -5 0 -7 5 -4 10
3 6 8 10 11 10 2 0 4 -4 4 -10z m0 -36 c0 -8 -5 -12 -10 -9 -6 4 -8 11 -5 16
9 14 15 11 15 -7z m787 -6 c-3 -8 -6 -5 -6 6 -1 11 2 17 5 13 3 -3 4 -12 1
-19z m-2103 -65 c9 -21 -22 -125 -34 -118 -6 4 -10 11 -10 16 0 6 5 7 10 4 6
-4 10 17 10 54 0 59 11 79 24 44z m2114 -11 c0 -15 8 -47 18 -70 9 -24 14 -46
10 -49 -3 -4 -6 -1 -6 5 0 7 -5 12 -11 12 -36 0 -68 94 -39 117 22 18 27 16
28 -15z m-1058 -76 c0 -3 -4 -8 -10 -11 -5 -3 -10 -1 -10 4 0 6 5 11 10 11 6
0 10 -2 10 -4z m1283 -15 c-3 -10 0 -22 6 -25 19 -12 12 -40 -18 -68 -21 -20
-31 -24 -40 -15 -17 17 -13 35 9 49 11 7 20 22 20 33 0 12 5 26 12 33 16 16
17 15 11 -7z m-2391 -61 c-9 -16 -18 -27 -19 -26 -7 7 20 65 27 61 5 -3 1 -19
-8 -35z m2404 -71 c-49 -39 -56 -16 -11 34 29 32 30 32 33 9 2 -15 -5 -30 -22
-43z m-56 -156 c6 -17 12 -47 13 -65 2 -29 -1 -33 -24 -36 -23 -3 -29 3 -47
45 -13 30 -17 52 -11 59 8 9 16 39 18 69 2 16 40 -37 51 -72z m-2502 -39 c-12
-38 -24 -71 -27 -74 -3 -3 -11 -14 -17 -25 -13 -23 -46 -28 -69 -11 -17 12
-13 17 73 116 17 21 32 42 32 48 0 9 21 22 28 17 1 -1 -7 -33 -20 -71z m2392
-124 c6 -11 8 -20 6 -20 -3 0 -10 9 -16 20 -6 11 -8 20 -6 20 3 0 10 -9 16
-20z"/>
<path d="M1344 2774 c3 -9 6 -22 6 -30 0 -8 5 -14 11 -14 5 0 8 4 4 9 -3 5 -1
12 5 16 5 3 10 -1 10 -9 0 -9 4 -16 8 -16 12 0 10 44 -2 52 -21 14 -49 9 -42
-8z"/>
<path d="M1419 2778 c-6 -12 -4 -48 2 -48 5 0 9 4 9 9 0 5 8 8 17 7 10 0 19 7
21 17 3 13 -3 17 -22 17 -14 0 -27 -1 -27 -2z"/>
<path d="M1358 2645 c5 -11 8 -30 7 -42 -1 -12 2 -20 6 -17 4 2 9 -1 11 -7 2
-5 11 -7 21 -3 11 4 16 13 12 24 -3 10 -1 21 5 25 5 3 10 12 10 18 -1 7 -5 6
-13 -4 -13 -18 -35 -14 -55 10 -11 14 -12 13 -4 -4z"/>
<path d="M1329 2563 c-13 -16 -12 -17 4 -4 9 7 17 15 17 17 0 8 -8 3 -21 -13z"/>
<path d="M1429 2553 c20 -41 12 -60 -10 -23 -15 28 -18 30 -14 10 6 -24 5 -24
-9 -6 -9 11 -16 15 -16 9 0 -14 25 -34 33 -26 4 3 7 2 7 -4 0 -6 -7 -16 -15
-23 -12 -10 -15 -9 -16 6 -1 19 -1 18 -15 -25 -4 -11 -7 -10 -18 4 -11 15 -13
11 -13 -31 0 -32 1 -38 4 -16 2 18 9 30 14 27 5 -4 16 1 25 9 19 20 30 20 38
1 3 -8 1 -15 -5 -15 -6 0 -7 -4 -4 -10 3 -5 1 -10 -5 -10 -6 0 -9 -3 -6 -8 2
-4 -2 -18 -10 -32 -7 -14 -13 -20 -14 -15 0 6 -7 -3 -15 -19 -16 -30 -11 -52
5 -26 9 14 15 6 10 -15 -1 -6 4 -5 10 1 13 13 50 7 50 -8 0 -5 5 -6 10 -3 10
6 48 -24 42 -34 -2 -3 2 -7 10 -9 10 -3 10 -1 -1 6 -11 8 -9 11 8 17 11 3 21
11 21 17 0 5 6 8 14 5 8 -3 17 -1 20 6 3 9 8 8 15 -3 9 -13 11 -12 11 4 0 16
2 17 17 5 12 -10 15 -10 9 -1 -5 8 3 18 23 30 46 25 38 57 -22 95 -19 13 -26
24 -22 36 3 11 -3 28 -14 42 -16 19 -22 22 -32 12 -11 -11 -9 -13 7 -13 18 0
20 -6 19 -80 -1 -47 -7 -85 -15 -94 -19 -24 -29 -10 -23 33 6 45 -13 66 -23
25 -4 -17 -2 -29 7 -35 10 -6 6 -9 -14 -9 -19 0 -26 4 -21 12 5 8 2 9 -9 5
-12 -5 -17 -1 -17 13 0 14 5 18 18 13 15 -6 16 -5 2 12 -14 16 -13 17 8 11 18
-6 22 -3 22 12 0 11 12 31 26 46 34 33 13 35 -46 5 -39 -21 -70 -20 -70 1 0 6
5 8 10 5 12 -7 33 42 27 64 -4 12 -5 11 -6 -3 -1 -20 -1 -20 -17 0 -15 18 -15
18 -5 -3z m211 -173 c0 -4 -9 -10 -21 -13 -15 -4 -19 -2 -15 10 3 8 6 19 6 25
0 6 6 6 15 -2 8 -7 15 -16 15 -20z m-211 -21 c-16 -10 -23 -4 -14 10 3 6 11 8
17 5 6 -4 5 -9 -3 -15z m46 -9 c-3 -6 1 -7 9 -4 10 4 16 1 16 -7 0 -11 2 -11
10 1 8 12 10 12 16 -4 4 -11 0 -24 -10 -34 -16 -16 -18 -16 -36 6 -10 12 -24
22 -30 22 -10 0 -10 3 0 15 14 17 35 21 25 5z"/>
<path d="M1498 2313 c7 -3 16 -2 19 1 4 3 -2 6 -13 5 -11 0 -14 -3 -6 -6z"/>
<path d="M1343 2544 c-7 -7 -13 -19 -13 -25 0 -7 7 -4 16 7 14 18 15 18 9 -6
-5 -21 -4 -22 5 -7 15 23 0 51 -17 31z"/>
<path d="M1660 2330 c-8 -5 -12 -12 -9 -15 4 -3 12 1 19 10 14 17 11 19 -10 5z"/>
<path d="M1320 2319 c0 -5 5 -7 10 -4 6 3 10 8 10 11 0 2 -4 4 -10 4 -5 0 -10
-5 -10 -11z"/>
<path d="M1306 2277 c-27 -27 -35 -71 -15 -83 6 -3 16 -1 22 5 6 6 19 11 28
11 9 0 22 7 29 16 9 10 26 14 49 12 31 -3 36 -6 34 -26 -3 -27 13 -62 29 -62
7 0 6 6 -3 16 -7 9 -12 36 -10 63 l2 48 -38 7 c-21 3 -52 9 -70 12 -26 5 -37
1 -57 -19z m55 -31 c-17 -20 -51 -27 -51 -11 0 15 15 23 44 24 15 1 16 -2 7
-13z"/>
<path d="M1605 2290 c-11 -5 -33 -9 -48 -9 -27 -1 -28 -3 -26 -50 2 -29 -3
-56 -10 -65 -9 -10 -9 -16 -3 -16 6 0 16 8 21 18 8 14 10 9 11 -22 0 -31 -3
-37 -12 -28 -16 16 -29 15 -22 -2 8 -21 53 -26 70 -9 8 9 12 18 9 21 -3 4 -10
0 -15 -8 -7 -11 -10 -8 -10 13 0 15 4 27 10 27 5 0 15 10 21 23 6 12 8 19 4
15 -5 -4 -15 -2 -23 5 -13 10 -15 9 -9 -5 4 -12 2 -15 -8 -12 -16 7 -27 32
-19 45 9 15 74 11 80 -6 4 -8 16 -15 28 -15 12 0 27 -5 33 -11 16 -16 33 -2
33 27 0 52 -62 87 -115 64z m63 -26 c12 -4 22 -14 22 -24 0 -15 -5 -17 -27
-11 -16 4 -29 15 -31 24 -4 18 1 20 36 11z"/>
<path d="M1483 2223 c0 -25 4 -33 18 -33 11 0 17 7 16 19 0 10 -7 17 -13 14
-7 -2 -14 4 -17 14 -2 10 -4 3 -4 -14z"/>
<path d="M1371 2202 c-6 -2 -11 -10 -11 -18 0 -12 -4 -12 -20 -4 -15 8 -21 6
-30 -9 -13 -25 -13 -31 0 -31 6 0 10 7 10 15 0 28 18 15 22 -15 4 -25 2 -30
-11 -25 -13 5 -14 4 -3 -7 7 -7 23 -13 36 -13 18 -1 22 3 18 18 -4 14 -7 15
-13 6 -6 -10 -10 -9 -15 5 -4 10 -3 21 3 25 5 3 12 14 16 24 11 30 33 18 28
-15 0 -4 6 -5 14 -2 11 5 15 -1 15 -22 0 -22 -3 -25 -10 -14 -5 8 -12 12 -15
8 -3 -3 1 -13 9 -21 11 -10 12 -17 4 -19 -6 -2 7 -4 28 -5 29 0 34 1 19 7 -15
7 -16 9 -4 9 9 1 19 8 23 16 7 18 -5 20 -22 3 -9 -9 -12 -4 -12 25 0 27 -4 35
-14 31 -8 -3 -17 -1 -21 5 -3 6 1 11 11 11 10 0 14 3 10 8 -8 8 -46 10 -65 4z"/>
<path d="M1625 2180 c4 -14 12 -28 18 -31 5 -4 7 -15 3 -25 -6 -16 -8 -16 -16
-4 -8 13 -10 13 -10 -1 0 -9 -10 -21 -22 -27 -22 -10 -22 -11 5 -11 18 -1 26
3 21 10 -4 7 0 9 13 5 13 -4 25 0 33 9 11 13 10 14 -2 10 -12 -5 -14 0 -11 19
6 30 18 34 27 10 4 -9 9 -15 12 -12 2 3 0 17 -5 31 -7 18 -15 25 -26 21 -8 -4
-23 0 -32 7 -14 12 -15 11 -8 -11z"/>
<path d="M1498 2103 c6 -2 10 -9 6 -14 -3 -5 7 -9 23 -9 l28 0 -29 15 c-15 8
-31 15 -35 14 -3 0 0 -3 7 -6z"/>
<path d="M1350 2070 c-21 -7 -21 -8 -5 -9 11 0 27 4 35 9 18 11 5 11 -30 0z"/>
<path d="M1470 2052 c9 -18 9 -23 -2 -21 -24 3 -38 -1 -38 -11 0 -5 11 -10 25
-10 14 0 25 4 25 9 0 5 10 11 22 13 12 2 23 10 25 18 4 12 3 12 -5 1 -8 -11
-11 -11 -16 0 -5 11 -7 12 -12 1 -5 -10 -9 -9 -21 5 -13 16 -13 16 -3 -5z"/>
<path d="M1560 2059 c14 -4 21 -7 16 -8 -5 -1 3 -11 18 -22 22 -17 32 -19 49
-11 l22 11 -22 0 c-33 1 -29 29 5 33 15 2 -4 4 -43 4 -45 1 -61 -2 -45 -7z"/>
<path d="M1381 2048 c-1 -19 16 -23 38 -9 10 7 10 10 1 16 -7 4 -16 2 -20 -5
-6 -10 -9 -9 -13 1 -4 10 -6 9 -6 -3z"/>
<path d="M1355 2020 c3 -5 16 -10 28 -9 21 0 21 1 2 9 -28 12 -37 12 -30 0z"/>
<path d="M1046 2322 c-3 -5 1 -9 9 -9 8 0 12 4 9 9 -3 4 -7 8 -9 8 -2 0 -6 -4
-9 -8z"/>
<path d="M932 2301 c4 -13 18 -16 19 -4 0 4 -5 9 -11 12 -7 2 -11 -2 -8 -8z"/>
<path d="M1087 2299 c7 -9 10 -19 6 -22 -3 -4 -1 -7 5 -7 17 0 15 16 -5 31
-16 12 -17 12 -6 -2z"/>
<path d="M993 2283 c15 -2 39 -2 55 0 15 2 2 4 -28 4 -30 0 -43 -2 -27 -4z"/>
<path d="M988 2263 c7 -3 16 -2 19 1 4 3 -2 6 -13 5 -11 0 -14 -3 -6 -6z"/>
<path d="M1040 2240 c-14 -11 -31 -18 -37 -15 -7 2 -13 0 -13 -6 0 -14 40 -7
95 16 39 15 39 16 7 11 -20 -4 -31 -2 -27 4 9 14 3 12 -25 -10z"/>
<path d="M783 2210 c-3 -11 -9 -18 -13 -15 -15 9 11 -91 27 -103 26 -19 38 1
25 40 l-11 33 4 -40 c4 -34 2 -32 -10 15 -8 30 -13 63 -11 73 6 24 -5 22 -11
-3z"/>
<path d="M1100 2226 c0 -2 9 -6 20 -9 11 -3 18 -1 14 4 -5 9 -34 13 -34 5z"/>
<path d="M725 2190 c-16 -16 -25 -30 -19 -29 8 0 60 59 52 59 -3 0 -17 -13
-33 -30z"/>
<path d="M819 2183 c-12 -16 -12 -17 1 -7 8 7 24 14 35 17 19 4 19 5 -1 6 -12
0 -28 -7 -35 -16z"/>
<path d="M744 2150 c-4 -16 -9 -28 -13 -26 -3 2 -7 -8 -8 -22 -1 -27 -1 -27
11 -4 7 12 14 21 17 18 2 -2 4 11 5 30 1 42 -5 44 -12 4z"/>
<path d="M1107 2153 c-2 -4 -1 -17 3 -27 6 -19 7 -19 14 -1 7 19 -8 44 -17 28z"/>
<path d="M850 2142 c0 -5 7 -16 16 -23 14 -12 16 -11 13 5 -4 20 -29 35 -29
18z"/>
<path d="M1030 2072 c0 -5 7 -17 16 -28 14 -17 15 -17 10 -1 -3 10 -6 23 -6
28 0 5 -4 9 -10 9 -5 0 -10 -4 -10 -8z"/>
<path d="M1140 2063 c0 -6 -3 -20 -6 -30 -7 -17 -6 -17 12 -1 14 14 16 21 6
30 -8 8 -12 9 -12 1z"/>
<path d="M845 2030 c10 -11 19 -20 21 -20 1 0 0 9 -3 20 -3 11 -12 20 -21 20
-13 0 -12 -3 3 -20z"/>
<path d="M937 2009 c4 -16 8 -17 14 -7 13 19 11 28 -5 28 -9 0 -12 -7 -9 -21z"/>
<path d="M795 1990 c-4 -7 -1 -16 6 -21 23 -14 32 -10 18 9 -7 9 -14 18 -15
20 -1 2 -5 -2 -9 -8z"/>
<path d="M1068 1991 c-14 -5 -14 -9 -3 -24 12 -16 13 -16 18 5 7 26 7 27 -15
19z"/>
<path d="M1105 1950 c-7 -23 18 -75 40 -84 9 -3 13 -2 10 4 -3 6 1 10 10 10
10 0 13 -5 9 -12 -6 -9 -3 -9 9 0 9 8 25 11 37 7 35 -11 75 4 94 36 10 17 15
33 12 36 -3 3 -11 -6 -17 -20 -7 -15 -16 -24 -22 -20 -6 3 -7 1 -4 -4 21 -34
-105 -22 -139 12 -15 15 -25 19 -29 12 -3 -7 -3 0 0 16 6 31 -1 37 -10 7z"/>
<path d="M896 1951 c-3 -5 5 -16 19 -25 25 -16 25 -16 13 9 -12 26 -23 31 -32
16z"/>
<path d="M824 1909 c-9 -15 1 -21 26 -17 21 3 21 3 1 15 -14 9 -22 9 -27 2z"/>
<path d="M986 1885 c-4 -11 2 -15 21 -15 21 0 24 2 13 15 -7 8 -16 15 -20 15
-4 0 -10 -7 -14 -15z"/>
<path d="M1270 1860 c-8 -6 -29 -9 -45 -8 -17 1 -36 -1 -43 -6 -6 -4 -16 -5
-21 -2 -14 9 -23 -26 -10 -38 9 -8 10 -8 5 2 -5 8 -1 12 11 12 11 0 23 4 29 9
13 12 84 21 84 11 0 -5 -16 -14 -36 -19 -20 -6 -45 -18 -56 -27 -18 -17 -19
-17 -12 2 5 15 4 16 -5 4 -19 -27 -13 -50 13 -50 13 0 32 3 41 7 15 5 14 8 -6
20 -21 12 -21 13 -4 11 13 -2 19 2 17 12 -2 8 0 12 4 7 4 -4 18 0 31 8 14 10
23 11 23 5 0 -12 -25 -41 -31 -37 -3 1 2 -4 10 -10 11 -9 11 -13 2 -13 -7 0
-9 -4 -6 -10 3 -5 -4 -10 -16 -10 -18 0 -19 -2 -9 -15 11 -14 15 -13 28 7 27
39 46 49 54 30 6 -15 7 -15 7 -1 1 9 -6 22 -14 29 -9 7 -13 21 -10 31 4 11 2
19 -4 19 -5 0 -11 7 -13 15 -2 10 -7 12 -18 5z m35 -69 c3 -5 2 -12 -3 -15 -5
-3 -9 1 -9 9 0 17 3 19 12 6z m-88 -27 c-3 -3 -12 -4 -19 -1 -8 3 -5 6 6 6 11
1 17 -2 13 -5z"/>
<path d="M1096 1831 c-5 -7 -6 -13 -5 -14 2 -2 12 -9 22 -16 20 -16 23 -2 4
24 -10 13 -16 15 -21 6z"/>
<path d="M1041 1796 l-22 -23 23 -59 c12 -32 22 -61 21 -65 -1 -3 7 -10 18
-17 11 -7 19 -8 19 -2 0 5 -4 10 -8 10 -14 0 -32 48 -31 83 0 18 3 26 6 20 7
-18 20 -16 25 5 3 9 -3 29 -12 44 l-17 28 -22 -24z m2 -21 c-3 -9 -8 -14 -10
-11 -3 3 -2 9 2 15 9 16 15 13 8 -4z m37 0 c7 -9 8 -15 2 -15 -5 0 -12 7 -16
15 -3 8 -4 15 -2 15 2 0 9 -7 16 -15z"/>
<path d="M971 1767 c-9 -12 -7 -16 9 -20 21 -5 25 0 11 21 -6 10 -10 10 -20
-1z"/>
<path d="M890 1760 c0 -5 10 -10 23 -10 18 0 19 2 7 10 -19 13 -30 13 -30 0z"/>
<path d="M1123 1739 c-4 -15 -8 -17 -14 -7 -6 9 -8 6 -6 -9 0 -12 5 -19 9 -17
12 8 10 -10 -3 -23 -13 -13 -5 -43 11 -43 6 0 10 10 9 23 -3 35 12 78 25 70 6
-4 5 1 -3 10 -17 22 -22 21 -28 -4z"/>
<path d="M980 1709 c0 -11 5 -17 10 -14 6 3 10 3 10 -2 0 -4 13 -17 28 -28
l26 -19 -22 31 c-16 23 -19 33 -10 37 7 3 2 3 -11 0 -16 -4 -21 -3 -17 5 4 6
2 11 -3 11 -6 0 -11 -9 -11 -21z"/>
<path d="M1156 1704 c-9 -24 -8 -26 14 -14 11 6 20 15 20 20 0 16 -27 11 -34
-6z"/>
<path d="M1190 1665 c0 -19 11 -19 36 0 18 14 18 14 -8 15 -18 0 -28 -5 -28
-15z"/>
<path d="M2025 2299 c3 -4 -18 -10 -47 -12 -40 -3 -36 -3 16 -3 42 1 71 5 73
12 2 7 -7 12 -21 12 -14 0 -23 -4 -21 -9z"/>
<path d="M1929 2257 c12 -15 10 -17 -20 -12 -33 6 -33 6 6 -10 56 -22 95 -29
95 -15 0 6 -5 8 -10 5 -6 -4 -28 6 -48 21 -20 16 -31 20 -23 11z"/>
<path d="M1998 2263 c7 -3 16 -2 19 1 4 3 -2 6 -13 5 -11 0 -14 -3 -6 -6z"/>
<path d="M1866 2221 c-4 -5 3 -7 14 -4 23 6 26 13 6 13 -8 0 -17 -4 -20 -9z"/>
<path d="M2205 2197 c1 -18 5 -38 9 -46 6 -9 5 -12 -2 -7 -7 4 -15 -6 -22 -26
l-10 -33 5 40 4 40 -11 -33 c-13 -39 -1 -59 25 -40 17 13 42 112 26 102 -5 -3
-9 2 -9 10 0 8 -3 17 -7 19 -5 3 -8 -9 -8 -26z"/>
<path d="M2260 2195 c14 -16 26 -32 28 -34 1 -2 4 -2 7 1 3 2 -10 18 -28 34
l-32 29 25 -30z"/>
<path d="M2145 2193 c11 -3 27 -10 35 -17 13 -10 13 -9 1 7 -7 9 -23 16 -35
16 -20 -1 -20 -2 -1 -6z"/>
<path d="M1875 2150 c-3 -5 -2 -17 3 -26 8 -14 10 -14 15 5 5 22 -7 38 -18 21z"/>
<path d="M2251 2145 c0 -11 6 -31 14 -45 18 -32 18 -25 0 25 -8 22 -14 31 -14
20z"/>
<path d="M2127 2143 c-4 -3 -7 -13 -7 -21 0 -12 3 -12 15 -2 8 7 15 16 15 21
0 11 -14 12 -23 2z"/>
<path d="M1950 2071 c0 -5 -3 -18 -6 -28 -5 -16 -4 -16 10 1 18 23 20 36 6 36
-5 0 -10 -4 -10 -9z"/>
<path d="M1846 2061 c-5 -8 -2 -20 8 -29 17 -17 19 -9 7 22 -6 15 -10 16 -15
7z"/>
<path d="M2137 2029 c-5 -20 -5 -20 14 -3 23 20 23 24 5 24 -7 0 -16 -9 -19
-21z"/>
<path d="M520 2032 c-8 -3 -29 -17 -46 -32 -24 -21 -29 -31 -22 -44 5 -9 6
-21 2 -28 -4 -7 -3 -8 4 -4 8 4 12 0 12 -11 0 -14 2 -15 9 -4 7 10 10 10 16 1
4 -7 2 -16 -5 -20 -17 -10 3 -22 24 -14 9 3 16 13 16 21 0 8 -5 11 -11 8 -6
-4 -10 -1 -8 6 4 32 -1 40 -21 34 -14 -4 -20 -2 -20 9 0 16 18 23 69 25 43 2
45 4 32 29 -12 23 -30 31 -51 24z"/>
<path d="M2040 2023 c0 -5 4 -14 9 -21 6 -10 10 -9 14 7 3 14 0 21 -9 21 -8 0
-14 -3 -14 -7z"/>
<path d="M1911 1992 c0 -4 4 -15 7 -24 7 -17 8 -17 19 1 10 16 9 20 -8 24 -10
3 -19 2 -18 -1z"/>
<path d="M2182 1980 c-13 -21 -6 -25 18 -10 10 6 12 12 5 19 -7 7 -14 4 -23
-9z"/>
<path d="M540 1960 l-25 -8 23 -7 c12 -4 22 -14 22 -22 0 -8 -5 -11 -12 -7
-10 6 -10 4 0 -7 9 -10 15 -10 24 -1 9 9 9 15 0 24 -15 15 -16 31 0 22 7 -4 8
-3 4 4 -4 7 -8 12 -9 11 -1 -1 -13 -5 -27 -9z"/>
<path d="M2510 1950 c0 -11 4 -20 9 -20 5 0 7 9 4 20 -3 11 -7 20 -9 20 -2 0
-4 -9 -4 -20z"/>
<path d="M390 1950 c-8 -5 -24 -10 -36 -10 -22 0 -54 -29 -54 -48 0 -6 14 -25
30 -42 17 -17 30 -26 30 -20 0 6 5 8 10 5 6 -4 8 -11 5 -16 -4 -5 1 -9 10 -9
8 0 18 7 21 15 4 8 9 13 13 10 10 -6 51 23 51 37 0 7 -5 7 -14 -1 -10 -9 -15
-8 -20 4 -3 8 0 15 7 15 8 0 9 2 1 8 -6 4 -17 19 -25 34 -11 21 -18 25 -29 18z
m23 -41 c4 -14 2 -19 -8 -16 -7 3 -23 -6 -35 -20 -27 -31 -35 -25 -16 12 24
46 51 57 59 24z m8 -39 c17 0 9 -19 -11 -25 -11 -4 -17 -11 -14 -17 4 -6 2 -8
-3 -5 -6 4 -10 18 -10 32 0 19 4 25 14 21 8 -3 19 -6 24 -6z"/>
<path d="M2072 1935 c-12 -25 -12 -25 13 -9 14 9 22 20 19 25 -9 15 -20 10
-32 -16z"/>
<path d="M1670 1947 c0 -21 35 -66 56 -71 25 -7 111 1 128 12 6 3 5 -2 -3 -11
-12 -15 -12 -17 3 -11 9 4 23 19 31 35 17 31 20 52 5 29 -6 -9 -10 -10 -10 -3
0 7 -10 2 -23 -11 -35 -35 -161 -47 -140 -13 3 6 1 7 -5 3 -7 -4 -12 -3 -12 1
0 12 -29 50 -30 40z"/>
<path d="M2145 1904 c-18 -13 -18 -14 8 -14 15 0 27 4 27 9 0 17 -15 19 -35 5z"/>
<path d="M1980 1885 c-11 -13 -8 -15 13 -15 19 0 25 4 21 15 -4 8 -10 15 -14
15 -4 0 -13 -7 -20 -15z"/>
<path d="M543 1870 c-2 -23 21 -33 39 -17 7 7 11 11 9 9 -2 -1 -14 4 -26 12
-19 12 -21 12 -22 -4z"/>
<path d="M1710 1855 c0 -8 -5 -15 -11 -15 -6 0 -8 -7 -5 -16 4 -10 -1 -25 -10
-35 -9 -10 -14 -24 -11 -31 3 -8 6 -6 6 6 1 15 4 16 16 6 8 -6 20 -8 26 -4 8
4 9 3 5 -4 -4 -7 -1 -21 7 -32 13 -18 16 -19 27 -5 10 13 9 15 -9 15 -18 0
-19 3 -10 27 6 15 7 25 3 21 -8 -8 -34 16 -34 32 0 6 9 5 23 -5 13 -8 27 -12
31 -8 4 4 4 -1 0 -12 -6 -15 -4 -17 10 -12 9 4 14 3 11 -2 -3 -5 0 -11 7 -14
7 -2 2 -2 -12 0 -19 3 -22 1 -10 -7 8 -5 27 -10 43 -10 29 0 36 22 16 50 -9
12 -10 11 -5 -4 7 -19 6 -19 -12 -2 -11 9 -36 21 -56 27 -20 5 -36 14 -36 19
0 10 71 1 85 -11 5 -5 17 -9 28 -9 12 0 16 -4 11 -12 -5 -10 -4 -10 5 -2 13
12 4 47 -10 38 -5 -3 -15 -2 -21 3 -7 4 -25 6 -40 4 -15 -1 -36 3 -47 9 -17 9
-21 8 -21 -5z m-3 -70 c0 -8 -4 -12 -9 -9 -5 3 -6 10 -3 15 9 13 12 11 12 -6z"/>
<path d="M650 1842 c0 -19 18 -42 32 -42 12 0 9 35 -4 48 -17 17 -28 15 -28
-6z m30 -18 c0 -8 -4 -12 -10 -9 -5 3 -10 13 -10 21 0 8 5 12 10 9 6 -3 10
-13 10 -21z"/>
<path d="M2417 1845 c-8 -8 -18 -11 -22 -7 -5 4 -5 1 -1 -5 9 -17 41 -16 55 0
20 25 -8 36 -32 12z m33 1 c0 -3 -4 -8 -10 -11 -5 -3 -10 -1 -10 4 0 6 5 11
10 11 6 0 10 -2 10 -4z"/>
<path d="M490 1828 c0 -11 -4 -16 -10 -13 -5 3 -10 -2 -10 -11 0 -16 1 -16 18
-1 10 10 24 17 30 17 23 0 21 18 -3 22 -20 4 -25 1 -25 -14z"/>
<path d="M1880 1820 c-15 -28 -10 -32 14 -14 15 10 17 17 9 25 -8 8 -14 5 -23
-11z"/>
<path d="M2500 1824 c-24 -9 -29 -13 -14 -13 11 -1 29 6 40 14 22 17 20 17
-26 -1z"/>
<path d="M548 1819 c-2 -4 -10 -9 -18 -11 -8 -2 -20 -9 -26 -17 -12 -16 -50
-10 -46 7 2 14 -24 16 -32 3 -4 -5 0 -12 6 -14 10 -4 10 -6 1 -6 -7 -1 -13 -6
-13 -12 0 -8 5 -7 15 1 9 7 18 10 21 7 9 -9 -5 -27 -22 -27 -8 0 -14 -5 -14
-10 0 -6 20 1 43 15 24 14 47 22 52 17 4 -4 5 -1 0 7 -6 10 -2 12 16 7 13 -3
18 -3 10 0 -10 5 -4 12 20 25 27 14 29 17 12 16 -13 -1 -24 -4 -25 -8z"/>
<path d="M593 1796 c-11 -13 -27 -26 -34 -29 -10 -4 -7 -12 13 -30 28 -26 25
-36 -14 -50 -15 -5 -18 -1 -18 23 0 34 -15 47 -36 29 -8 -6 -24 -12 -37 -13
-16 -1 -23 -8 -25 -26 -2 -18 0 -21 6 -11 7 9 12 10 16 2 14 -22 45 -12 53 17
l7 27 6 -35 c4 -29 9 -35 30 -35 32 0 39 -30 9 -38 -27 -7 -39 -1 -39 18 0 11
-6 12 -24 5 -16 -6 -28 -5 -36 3 -10 9 -11 9 -8 -3 3 -8 15 -17 29 -19 13 -1
36 -12 52 -23 15 -11 27 -16 26 -11 -4 23 3 25 14 3 18 -36 63 -38 72 -3 3 14
1 31 -4 36 -13 13 -14 27 -3 27 4 0 16 -13 25 -30 18 -29 18 -30 -7 -55 -29
-29 -71 -33 -85 -7 -10 16 -10 16 -11 0 -1 -49 88 -38 120 14 l17 29 31 -26
c20 -17 38 -24 50 -21 12 4 19 1 19 -8 0 -25 -29 -28 -59 -6 -15 11 -28 16
-28 10 0 -6 14 -19 31 -29 32 -19 32 -19 60 1 20 15 35 19 56 14 15 -4 34 -7
41 -8 31 -3 -12 -22 -64 -28 -80 -9 -114 -2 -126 26 -6 13 -15 24 -20 24 -16
0 32 -59 53 -65 16 -5 18 -10 8 -21 -24 -29 -89 -14 -89 21 0 13 -4 27 -10 30
-19 11 -10 -35 10 -55 27 -27 66 -25 100 4 23 18 40 23 86 24 44 0 61 5 71 19
9 12 10 19 3 21 -7 3 -7 9 2 20 12 13 11 14 -8 2 -29 -18 -56 -6 -52 22 4 31
26 34 22 3 -3 -31 19 -29 24 2 5 30 -32 39 -66 17 -15 -10 -31 -19 -37 -20 -5
-1 -17 -5 -25 -8 -9 -4 -24 0 -35 8 -19 15 -19 15 5 16 15 0 31 9 39 23 13 21
13 21 -5 6 -30 -25 -60 -28 -92 -9 -36 22 -50 71 -31 106 10 19 10 27 1 36 -9
9 -12 7 -12 -10 0 -12 -5 -22 -11 -22 -6 0 -8 -11 -4 -28 7 -33 -15 -58 -41
-48 -15 6 -15 9 1 33 17 25 17 27 -1 40 -10 7 -21 13 -26 13 -4 0 -8 5 -8 11
0 5 5 7 12 3 6 -4 8 -3 4 4 -3 6 -2 13 4 17 5 3 10 -1 10 -9 0 -26 30 -18 41
11 7 20 6 28 -3 35 -19 11 -22 10 -45 -16z m40 -13 c-3 -7 -9 -13 -13 -13 -4
0 -10 6 -13 13 -3 7 3 13 13 13 10 0 16 -6 13 -13z m-123 -63 c0 -5 -5 -10
-11 -10 -5 0 -7 5 -4 10 3 6 8 10 11 10 2 0 4 -4 4 -10z m334 -157 c-29 -21
-34 -15 -11 12 12 13 24 19 26 13 2 -6 -4 -17 -15 -25z"/>
<path d="M1920 1792 c-8 -15 -13 -43 -12 -62 l4 -35 14 30 c14 30 14 30 10
-20 l-3 -50 19 44 c16 35 18 49 9 70 -11 24 -10 25 4 7 8 -11 15 -15 15 -10 0
6 -10 20 -23 32 l-22 21 -15 -27z m20 -6 c0 -2 -8 -10 -17 -17 -16 -13 -17
-12 -4 4 13 16 21 21 21 13z"/>
<path d="M2441 1778 c-1 -21 -7 -28 -28 -31 -23 -3 -21 -4 10 -6 39 -1 43 6
27 44 -8 18 -9 17 -9 -7z"/>
<path d="M2006 1764 c-8 -21 -6 -23 17 -15 17 6 17 9 4 19 -12 10 -16 9 -21
-4z"/>
<path d="M2278 1773 c7 -3 16 -2 19 1 4 3 -2 6 -13 5 -11 0 -14 -3 -6 -6z"/>
<path d="M2700 1744 c0 -30 2 -34 14 -25 8 7 12 21 9 32 -9 35 -23 31 -23 -7z"/>
<path d="M2080 1760 c-12 -8 -11 -10 8 -10 12 0 22 5 22 10 0 13 -11 13 -30 0z"/>
<path d="M2353 1748 c16 -17 23 -19 25 -9 4 14 -15 31 -35 31 -7 0 -2 -10 10
-22z"/>
<path d="M1849 1743 c-7 -10 -9 -15 -4 -10 15 13 32 -45 24 -81 l-7 -34 20 22
c12 13 17 27 13 38 -4 9 -9 28 -11 42 -7 36 -19 44 -35 23z"/>
<path d="M390 1706 c0 -25 12 -46 26 -46 17 0 18 32 2 48 -16 16 -28 15 -28
-2z m30 -27 c0 -6 -4 -7 -10 -4 -5 3 -10 11 -10 16 0 6 5 7 10 4 6 -3 10 -11
10 -16z"/>
<path d="M1810 1710 c0 -5 10 -14 22 -21 18 -10 20 -9 15 6 -4 9 -7 19 -7 21
0 2 -7 4 -15 4 -8 0 -15 -4 -15 -10z"/>
<path d="M1657 1679 c-5 -20 4 -27 75 -52 19 -7 44 -47 29 -47 -5 0 -13 9 -16
20 -8 24 -14 25 -44 3 -13 -9 -38 -19 -55 -24 -20 -4 8 -7 79 -8 100 -1 111 1
123 19 11 18 10 20 -10 20 -46 0 -100 22 -138 56 -36 32 -38 33 -43 13z"/>
<path d="M1774 1665 c25 -19 36 -19 36 0 0 10 -10 15 -27 15 -27 -1 -27 -1 -9
-15z"/>
<path d="M1846 1643 c-6 -14 -5 -15 5 -6 7 7 10 15 7 18 -3 3 -9 -2 -12 -12z"/>
<path d="M1489 1602 c-3 -20 -2 -29 4 -23 5 5 7 19 5 32 -3 20 -5 19 -9 -9z"/>
<path d="M1874 1608 c-5 -7 -3 -8 6 -3 8 5 11 3 8 -6 -3 -8 -10 -14 -15 -14
-6 0 -15 -3 -19 -7 -4 -5 2 -8 14 -8 27 0 28 -6 24 -232 l-3 -188 -194 0 -195
0 0 153 c0 149 -1 154 -24 176 -20 19 -28 21 -57 13 l-34 -10 32 -1 c33 -1 60
-31 48 -52 -9 -14 -30 -6 -30 12 0 8 -12 15 -32 17 -17 2 -37 10 -43 18 -17
19 -31 18 -92 -11 -29 -13 -66 -27 -82 -29 -17 -3 -42 -19 -56 -36 -14 -16
-30 -30 -36 -30 -6 0 -19 -7 -30 -15 -17 -13 -14 -13 25 0 55 19 67 19 51 0
-16 -19 1 -42 21 -29 9 5 8 10 -7 16 -18 8 -18 8 1 5 11 -2 19 -9 17 -15 -3
-17 15 -15 22 3 3 8 2 15 -3 15 -5 0 -16 12 -26 26 -12 19 -14 29 -6 37 8 8
11 6 11 -6 0 -9 4 -17 10 -17 5 0 16 -12 23 -27 14 -26 14 -26 12 14 -3 33 0
42 15 46 24 6 42 -15 33 -38 -5 -16 -2 -17 27 -12 18 4 61 7 96 7 39 0 64 4
64 11 0 6 -9 8 -20 4 -12 -4 -27 -2 -34 4 -15 13 -98 12 -90 -1 3 -4 -2 -8
-10 -8 -18 0 -21 16 -6 25 19 12 122 16 115 5 -4 -6 6 -10 23 -10 16 0 32 -3
35 -7 14 -13 -17 -33 -52 -33 -23 0 -31 -3 -23 -9 7 -4 24 -6 37 -3 16 3 27
-2 34 -17 7 -12 9 -21 5 -21 -3 0 -1 -7 6 -15 7 -9 10 -18 6 -22 -3 -3 -6 -1
-6 5 0 7 -9 12 -20 12 -14 0 -20 6 -18 18 2 13 -5 18 -30 20 -18 2 -39 -1 -45
-6 -19 -16 -77 -25 -77 -13 0 6 9 11 20 11 11 0 23 7 26 15 5 12 10 13 20 4 9
-7 14 -8 14 -1 0 23 -36 21 -89 -5 -31 -14 -76 -30 -101 -35 -55 -10 -58 -10
-94 -2 -28 7 -28 7 -12 -18 9 -13 14 -27 10 -30 -11 -12 -45 6 -59 31 -8 14
-14 20 -15 13 0 -7 7 -23 15 -35 12 -19 12 -30 3 -61 -18 -59 3 -184 47 -272
44 -91 137 -188 169 -178 42 14 70 4 112 -41 36 -38 47 -44 74 -40 21 2 38 -2
49 -13 14 -14 14 -15 0 -10 -9 3 -21 3 -28 -1 -7 -5 8 -16 41 -28 29 -12 60
-24 69 -28 13 -5 17 3 22 37 8 61 43 90 107 87 39 -2 57 3 90 25 155 102 243
305 211 485 -7 38 -28 102 -47 141 -38 80 -45 112 -12 62 17 -27 23 -31 30
-19 11 21 0 47 -18 40 -8 -3 -14 0 -14 6 0 6 14 12 30 13 17 0 36 1 43 2 6 1
12 -6 12 -14 0 -8 8 -16 19 -18 15 -3 13 4 -14 43 -67 98 -121 147 -136 123z
m56 -47 c0 -5 -7 -14 -15 -21 -13 -10 -15 -9 -15 9 0 12 6 21 15 21 8 0 15 -4
15 -9z m35 -43 c14 -21 14 -23 -2 -30 -33 -12 -53 -9 -53 10 0 18 18 42 31 42
5 0 15 -10 24 -22z m-634 -76 c-32 -12 -51 -9 -51 8 0 5 6 7 14 4 8 -3 20 1
27 9 11 11 17 12 28 4 11 -9 7 -14 -18 -25z m155 -67 c-4 -14 -11 -23 -17 -20
-7 5 -6 11 1 20 6 7 7 21 4 31 -6 15 -4 17 6 7 8 -7 10 -22 6 -38z m-103 18
c-7 -2 -21 -2 -30 0 -10 3 -4 5 12 5 17 0 24 -2 18 -5z m27 -88 c-9 -8 -36
-16 -63 -17 -47 -3 -68 -18 -24 -18 13 0 27 -4 33 -9 10 -9 94 -3 94 8 0 3
-21 5 -47 4 l-48 -2 40 10 c45 11 65 6 65 -16 0 -14 -22 -20 -63 -17 -11 1
-15 -2 -11 -9 3 -6 17 -9 30 -6 24 4 46 -13 50 -39 1 -8 -6 -14 -17 -14 -10 0
-18 3 -18 8 4 25 -3 31 -29 26 -19 -4 -32 -1 -41 10 -18 22 -41 20 -98 -8 -26
-13 -63 -26 -80 -29 -29 -6 -33 -4 -33 14 0 17 3 19 14 10 11 -9 17 -8 29 4
10 10 17 11 19 3 5 -13 48 7 48 22 0 6 17 10 38 11 31 1 33 2 13 8 -14 4 -26
12 -28 18 -5 14 18 22 75 25 24 1 46 6 48 10 3 4 8 8 12 8 3 0 0 -7 -8 -15z
m546 -116 c-3 -25 0 -39 7 -39 7 0 5 -5 -3 -10 -12 -7 -12 -10 -1 -10 8 0 11
-6 6 -17 -4 -10 -9 -33 -11 -52 -2 -18 -9 -41 -14 -51 -6 -10 -10 -28 -10 -40
0 -12 -3 -19 -8 -16 -4 2 -16 -14 -27 -37 -14 -29 -21 -36 -23 -23 -2 10 1 28
6 40 22 47 35 123 35 207 0 49 4 92 8 95 5 3 9 22 10 42 l1 37 14 -44 c7 -24
12 -61 10 -82z m-699 100 c12 -12 -3 -59 -19 -59 -19 0 -23 7 -23 38 -1 34 19
44 42 21z m-80 -6 c-4 -3 0 -15 10 -25 9 -10 13 -21 9 -25 -4 -4 -18 5 -31 19
-24 26 -23 38 3 38 9 0 12 -3 9 -7z m-34 -27 c15 -22 15 -25 1 -30 -9 -4 -14
-15 -12 -28 2 -19 10 -24 42 -26 21 -2 43 1 49 7 17 17 60 14 54 -3 -4 -11 2
-12 29 -6 19 5 41 13 48 19 14 12 43 4 78 -21 14 -10 22 -10 38 -1 16 11 18
10 14 -2 -3 -7 -13 -16 -22 -18 -10 -3 -5 -5 11 -6 15 0 27 -6 27 -12 0 -8 4
-8 14 0 12 10 13 9 9 -8 -3 -10 0 -27 5 -37 8 -14 5 -25 -10 -46 -11 -16 -17
-34 -15 -41 3 -7 6 -4 6 6 1 10 5 16 11 12 12 -8 1 -35 -15 -35 -8 0 -10 -9
-7 -25 2 -14 9 -25 14 -25 6 0 8 -7 5 -15 -4 -8 -2 -17 4 -20 5 -4 7 -11 3
-16 -3 -5 -9 -7 -13 -4 -5 2 -8 -9 -7 -24 1 -16 4 -27 7 -25 11 7 41 -47 35
-63 -3 -8 -14 -17 -24 -20 -13 -3 -19 -14 -19 -34 0 -37 -9 -46 -31 -32 -10 6
-31 13 -48 17 -17 4 -52 25 -78 46 -27 22 -55 40 -62 40 -21 0 -102 78 -129
124 -28 48 -41 121 -49 269 -5 88 -4 107 8 107 7 0 21 -11 29 -24z m340 -26
c3 -11 1 -18 -4 -14 -5 3 -9 12 -9 20 0 20 7 17 13 -6z m-397 -75 c-3 -42 -1
-86 5 -101 5 -15 10 -42 11 -61 1 -18 5 -33 9 -33 4 0 10 -16 14 -36 4 -22 23
-54 48 -82 l42 -46 -37 28 c-21 15 -40 36 -43 47 -4 11 -10 17 -15 14 -4 -3
-6 5 -3 17 4 19 3 20 -6 8 -9 -13 -11 -11 -11 6 0 12 -8 25 -17 28 -15 6 -15
8 -3 16 8 6 10 10 4 10 -20 0 -36 55 -35 123 1 42 -3 66 -9 62 -14 -8 0 58 14
67 32 22 38 9 32 -67z m245 37 c-32 -12 -51 -9 -51 9 0 5 11 9 25 9 14 0 25 5
25 11 0 8 6 7 16 -2 15 -12 13 -15 -15 -27z m-294 -84 c-3 -7 -5 -2 -5 12 0
14 2 19 5 13 2 -7 2 -19 0 -25z m756 21 c-4 -4 -17 -9 -28 -12 -11 -3 3 -4 30
-3 38 1 50 -2 50 -14 0 -10 -11 -15 -35 -16 -35 -1 -35 -1 -2 3 52 7 36 20
-18 15 -27 -2 -50 0 -50 5 0 5 -11 8 -25 8 -40 -2 -39 -12 3 -19 22 -3 45 -13
53 -22 7 -9 22 -14 36 -11 16 3 27 -2 33 -14 15 -28 12 -39 -12 -39 -17 0 -19
3 -9 9 11 7 11 10 0 17 -8 5 -23 7 -35 6 -11 -2 -27 4 -34 12 -17 22 -42 20
-100 -8 -63 -30 -115 -37 -115 -16 0 11 8 14 30 12 l30 -4 -25 28 c-14 16 -28
31 -32 34 -4 3 -3 11 1 18 6 10 12 6 25 -13 18 -28 36 -25 36 6 0 21 29 26 48
7 12 -12 0 -46 -22 -60 -8 -5 -7 -8 2 -8 7 0 15 7 18 15 4 9 19 15 38 16 29 0
30 1 8 10 -37 14 -20 34 34 39 71 7 75 7 67 -1z m94 -68 c-3 -45 -13 -97 -24
-122 -25 -55 -71 -111 -85 -102 -6 3 -8 1 -4 -5 9 -15 -56 -65 -125 -95 -54
-23 -58 -24 -49 -6 6 10 15 19 21 19 6 0 7 6 3 13 -6 9 -4 9 8 -1 20 -16 39
-8 63 28 13 19 29 30 45 31 14 0 19 3 12 6 -6 2 -10 8 -7 13 3 5 -15 8 -40 7
-36 -2 -41 -4 -25 -11 19 -8 19 -10 3 -37 -18 -30 -37 -37 -48 -19 -3 6 0 10
8 10 18 0 30 27 17 35 -11 7 -42 -8 -41 -18 3 -18 -2 -26 -36 -64 -21 -22 -44
-38 -50 -36 -15 5 -18 23 -4 23 4 0 24 15 44 33 31 30 32 33 12 29 -17 -3 -27
3 -36 20 -20 36 -21 58 -3 58 10 0 14 -6 11 -14 -3 -8 1 -20 9 -26 12 -10 14
-8 14 14 0 14 3 25 8 23 4 -1 17 8 30 21 26 26 45 28 63 5 8 -10 9 -14 2 -10
-6 4 -14 3 -18 -3 -3 -5 -15 -10 -25 -10 -13 0 -18 -5 -13 -15 5 -14 8 -14 22
-2 26 23 92 29 113 10 11 -10 18 -12 18 -5 0 7 8 12 18 12 16 1 16 1 -1 11 -9
6 -15 14 -12 20 4 5 -2 12 -12 16 -10 3 -22 12 -26 20 -12 19 -33 16 -96 -13
-56 -27 -110 -36 -111 -20 0 5 17 11 37 13 21 2 50 12 65 23 22 16 43 20 107
20 44 0 82 4 85 9 4 6 -29 7 -79 4 -71 -4 -85 -3 -85 10 0 17 29 27 82 27 20
0 39 6 41 13 4 7 6 6 6 -5 1 -9 -7 -19 -16 -22 -10 -3 -5 -4 11 -2 36 5 56 -2
56 -19 0 -15 -22 -25 -58 -26 -26 0 -26 -1 -4 -9 12 -6 22 -18 22 -30 0 -11 5
-20 11 -20 7 0 9 9 6 21 -4 14 1 27 13 38 19 16 21 32 20 135 0 16 -5 36 -11
43 -9 10 -6 13 16 13 l28 0 -6 -79z m-150 -18 c4 -12 -52 -35 -61 -26 -10 10
-7 25 3 18 6 -3 16 1 23 9 14 17 30 16 35 -1z m-90 -45 c15 -12 -2 -54 -25
-63 -20 -8 -29 9 -24 44 4 28 26 37 49 19z m-73 -29 c10 -17 15 -33 11 -37 -9
-9 -57 47 -50 59 10 16 20 10 39 -22z m-36 -20 c12 -18 11 -20 -5 -17 -10 2
-19 11 -21 21 -5 23 10 21 26 -4z m201 -33 c-11 -11 -53 -10 -56 2 -3 7 1 10
10 6 8 -3 18 0 22 6 5 8 10 9 18 1 6 -6 9 -13 6 -15z m109 -66 c-12 -19 -28
-27 -28 -14 0 6 30 33 38 34 1 0 -3 -9 -10 -20z m-58 -60 c0 -5 -2 -10 -4 -10
-3 0 -8 5 -11 10 -3 6 -1 10 4 10 6 0 11 -4 11 -10z m-30 -25 c-7 -8 -17 -15
-23 -15 -6 0 -2 7 9 15 25 19 30 19 14 0z m-187 -75 c-3 -11 -9 -17 -15 -14
-5 3 -4 12 3 20 16 19 18 18 12 -6z m-33 -5 c0 -2 -7 -5 -15 -9 -9 -3 -15 0
-15 9 0 9 6 12 15 9 8 -4 15 -7 15 -9z m10 -24 c0 -16 -27 -31 -44 -25 -23 9
-20 23 4 17 11 -3 20 0 20 6 0 6 5 11 10 11 6 0 10 -4 10 -9z"/>
<path d="M1925 1510 c-3 -6 1 -7 9 -4 18 7 21 14 7 14 -6 0 -13 -4 -16 -10z"/>
<path d="M1232 1268 c-14 -14 -16 -28 -3 -28 5 0 11 9 14 20 6 23 5 24 -11 8z"/>
<path d="M1163 1143 c15 -2 37 -2 50 0 12 2 0 4 -28 4 -27 0 -38 -2 -22 -4z"/>
<path d="M1288 1143 c28 -2 76 -2 105 0 28 2 5 3 -53 3 -58 0 -81 -1 -52 -3z"/>
<path d="M1340 1120 c-8 -5 -24 -7 -35 -4 -16 4 -17 3 -5 -5 26 -18 -30 -32
-57 -15 -30 19 -49 18 -72 -5 -16 -16 -19 -28 -14 -58 3 -21 9 -40 13 -43 3
-3 9 -13 13 -23 5 -13 13 -16 27 -12 16 5 20 2 20 -14 0 -11 19 -39 42 -63 23
-24 42 -46 42 -50 1 -12 16 -21 16 -10 0 7 5 12 10 12 6 0 10 -13 10 -29 0
-35 24 -47 64 -32 28 11 29 17 28 141 -1 35 3 69 8 75 12 14 -7 105 -27 127
-17 19 -59 24 -83 8z m73 -17 c19 -22 20 -28 18 -190 l-1 -133 -35 0 c-37 0
-38 2 -29 37 4 13 11 20 20 16 9 -3 14 2 14 13 0 12 -3 15 -8 8 -9 -15 -58 -9
-88 11 -37 24 -58 64 -57 106 2 41 -12 61 -20 29 -3 -10 0 -21 7 -24 6 -2 -1
-5 -16 -5 l-27 -1 20 34 c18 31 18 66 -1 66 -16 0 -23 -22 -10 -30 11 -7 10
-11 -3 -24 -22 -22 -23 -21 -22 27 0 36 3 42 23 45 13 2 32 -4 41 -12 17 -15
22 -14 72 13 64 35 81 37 102 14z"/>
<path d="M1333 1080 c-18 -11 -33 -24 -33 -28 0 -5 -12 -7 -26 -4 -22 4 -25 2
-21 -14 3 -11 11 -39 17 -63 11 -42 65 -111 88 -111 11 0 23 48 26 97 1 30 0
31 -16 16 -23 -21 -23 -40 0 -22 15 12 16 12 4 -2 -7 -9 -10 -25 -7 -35 3 -11
-10 12 -30 50 -20 37 -34 70 -32 72 2 3 10 -9 17 -25 l12 -30 25 30 c14 16 28
27 31 24 3 -3 -7 -19 -23 -35 -16 -16 -26 -32 -23 -35 3 -3 13 6 22 20 23 36
36 23 38 -38 1 -52 1 -52 5 -8 3 24 1 51 -3 60 -11 25 -12 51 -2 51 5 0 8 10
6 23 -4 29 -35 32 -75 7z m42 -18 c3 -8 -4 -26 -17 -39 l-22 -24 -14 27 c-13
24 -13 29 1 39 22 16 45 15 52 -3z m-85 -42 c0 -5 -4 -10 -10 -10 -5 0 -10 5
-10 10 0 6 5 10 10 10 6 0 10 -4 10 -10z m22 -55 c16 -36 10 -46 -12 -20 -7 9
-10 18 -7 22 4 3 2 12 -4 20 -6 7 -7 13 -2 13 5 0 16 -16 25 -35z m38 -75 c0
-5 -2 -10 -4 -10 -3 0 -8 5 -11 10 -3 6 -1 10 4 10 6 0 11 -4 11 -10z"/>
<path d="M1329 1053 c-13 -16 -12 -17 4 -4 16 13 21 21 13 21 -2 0 -10 -8 -17
-17z"/>
<path d="M1344 1038 l-19 -23 23 19 c21 18 27 26 19 26 -2 0 -12 -10 -23 -22z"/>
<path d="M1395 809 c-4 -6 -5 -12 -2 -15 2 -3 7 2 10 11 7 17 1 20 -8 4z"/>
<path d="M1502 1085 c0 -16 2 -22 5 -12 2 9 2 23 0 30 -3 6 -5 -1 -5 -18z"/>
<path d="M1200 930 c0 -5 5 -10 11 -10 5 0 7 5 4 10 -3 6 -8 10 -11 10 -2 0
-4 -4 -4 -10z"/>
<path d="M1617 1103 c-11 -10 -8 -33 4 -33 6 0 9 6 6 14 -3 8 -1 17 6 20 7 3
8 5 1 5 -6 1 -14 -2 -17 -6z"/>
<path d="M1596 1057 c3 -10 9 -15 12 -12 3 3 0 11 -7 18 -10 9 -11 8 -5 -6z"/>
<path d="M1715 990 l-40 -7 43 -2 c23 0 42 4 42 9 0 6 -1 9 -2 9 -2 -1 -21 -5
-43 -9z"/>
<path d="M1640 890 c-8 -5 -10 -10 -5 -10 6 0 17 5 25 10 8 5 11 10 5 10 -5 0
-17 -5 -25 -10z"/>
<path d="M1590 820 c0 -5 5 -10 10 -10 6 0 10 5 10 10 0 6 -4 10 -10 10 -5 0
-10 -4 -10 -10z"/>
<path d="M1610 954 c0 -8 5 -12 10 -9 6 3 10 10 10 16 0 5 -4 9 -10 9 -5 0
-10 -7 -10 -16z"/>
<path d="M2458 1593 c5 -10 7 -24 4 -32 -3 -10 2 -13 22 -9 16 3 30 0 38 -10
11 -13 10 -15 -4 -9 -12 4 -15 2 -11 -9 5 -13 8 -12 25 3 19 17 19 18 -1 27
-12 5 -21 13 -21 18 0 12 14 10 30 -4 8 -7 6 -3 -4 10 -21 24 -41 28 -52 10
-4 -7 -3 -8 4 -4 8 5 10 1 5 -10 -5 -14 -8 -12 -20 10 -7 14 -16 26 -19 26 -2
0 -1 -8 4 -17z"/>
<path d="M2436 1575 c4 -8 10 -12 15 -9 11 6 2 24 -11 24 -5 0 -7 -7 -4 -15z"/>
<path d="M2606 1574 c-23 -23 -20 -30 4 -9 11 10 20 20 20 22 0 7 -9 2 -24
-13z"/>
<path d="M2385 1569 c-11 -4 -15 -8 -10 -8 6 -1 42 -26 80 -56 68 -55 91 -66
82 -42 -2 6 -12 11 -21 10 -11 0 -15 4 -12 14 3 8 1 11 -4 8 -6 -3 -10 0 -10
8 0 14 -30 47 -43 47 -4 0 -7 -5 -7 -11 0 -5 5 -7 12 -3 7 4 8 3 4 -5 -9 -14
-26 -5 -26 13 0 21 -23 34 -45 25z"/>
<path d="M2837 1534 c-10 -14 -38 -34 -63 -45 -28 -14 -55 -37 -74 -65 -24
-36 -26 -43 -10 -34 11 6 20 15 20 21 0 6 4 8 9 4 5 -3 12 -1 16 5 3 5 23 14
44 20 36 9 87 50 63 50 -6 0 -15 -7 -20 -15 -4 -9 -18 -17 -31 -20 -13 -2 -34
-11 -47 -20 -13 -8 -24 -12 -24 -7 0 14 33 40 73 57 20 8 44 26 53 40 22 33
14 40 -9 9z"/>
<path d="M841 1531 c-9 -6 -6 -8 13 -8 14 0 23 3 20 8 -7 11 -15 11 -33 0z"/>
<path d="M1325 1530 l-40 -7 40 -1 c22 -1 47 3 55 8 18 12 10 12 -55 0z"/>
<path d="M2188 1526 c-10 -7 -18 -18 -18 -25 0 -6 -7 -11 -15 -11 -8 0 -21
-15 -28 -32 -13 -30 -12 -34 6 -41 10 -4 24 -4 29 0 6 3 8 1 5 -4 -4 -6 3 -13
16 -17 12 -3 33 -15 47 -28 16 -15 22 -17 18 -6 -10 24 57 118 85 119 16 1 17
3 5 6 -19 5 -58 -13 -58 -27 0 -5 -10 -24 -23 -43 -26 -39 -50 -38 -41 1 l5
27 -14 -24 c-19 -32 -27 -15 -17 36 4 28 4 40 -3 36 -5 -3 -8 0 -5 8 3 8 9 14
14 14 5 0 18 6 29 12 20 12 20 12 0 12 -11 0 -28 -6 -37 -13z m-16 -58 c-7 -7
-12 -8 -12 -2 0 6 3 14 7 17 3 4 9 5 12 2 2 -3 -1 -11 -7 -17z m8 -26 c0 -10
-38 -13 -44 -3 -3 3 6 8 20 9 13 1 24 -2 24 -6z"/>
<path d="M550 1523 c0 -5 4 -13 9 -18 8 -9 17 -110 12 -125 -1 -3 -4 -21 -7
-40 -4 -32 -3 -33 11 -15 14 19 15 19 8 1 -5 -14 -3 -17 6 -12 24 15 29 48 9
68 -13 13 -18 33 -18 72 0 35 -5 58 -15 66 -8 7 -15 8 -15 3z m47 -169 c-9 -9
-28 6 -21 18 4 6 10 6 17 -1 6 -6 8 -13 4 -17z"/>
<path d="M2552 1519 c-22 -8 -28 -32 -7 -29 6 1 12 -8 15 -20 5 -20 6 -20 25
-5 15 13 16 15 3 11 -24 -7 -33 25 -12 41 20 15 9 16 -24 2z"/>
<path d="M181 1504 c0 -11 3 -14 6 -6 3 7 2 16 -1 19 -3 4 -6 -2 -5 -13z"/>
<path d="M2589 1503 c-13 -16 -12 -17 4 -4 16 13 21 21 13 21 -2 0 -10 -8 -17
-17z"/>
<path d="M690 1502 c0 -13 47 -28 57 -18 4 3 -3 6 -13 6 -11 0 -25 5 -32 12
-9 9 -12 9 -12 0z"/>
<path d="M1225 1500 c-3 -5 -1 -10 4 -10 6 0 11 5 11 10 0 6 -2 10 -4 10 -3 0
-8 -4 -11 -10z"/>
<path d="M372 1488 c-17 -17 -15 -49 5 -78 10 -14 13 -25 6 -27 -5 -2 -19 -10
-29 -18 -18 -13 -18 -14 2 -9 15 4 27 -1 38 -17 9 -13 16 -18 16 -12 0 6 -7
16 -15 23 -8 7 -12 17 -8 23 4 6 11 3 20 -8 23 -32 14 -7 -12 35 -27 44 -31
70 -13 88 7 7 10 12 7 12 -3 0 -10 -5 -17 -12z"/>
<path d="M861 1484 c-1 -6 8 -19 19 -29 16 -14 22 -15 35 -5 20 17 8 33 -20
26 -14 -4 -25 -1 -28 7 -3 7 -6 7 -6 1z m54 -24 c-3 -5 -10 -10 -16 -10 -5 0
-9 5 -9 10 0 6 7 10 16 10 8 0 12 -4 9 -10z"/>
<path d="M547 1434 c3 -27 7 -51 9 -53 8 -9 3 75 -5 88 -5 8 -7 -5 -4 -35z"/>
<path d="M818 1473 c12 -2 29 -15 38 -28 8 -13 22 -26 31 -29 8 -4 3 9 -13 28
-20 23 -37 34 -54 34 -24 -1 -24 -1 -2 -5z"/>
<path d="M1646 1471 c-4 -5 -1 -22 5 -37 7 -21 12 -25 18 -15 9 14 3 48 -10
56 -4 3 -10 1 -13 -4z"/>
<path d="M232 1430 c0 -19 2 -27 5 -17 2 9 2 25 0 35 -3 9 -5 1 -5 -18z"/>
<path d="M767 1454 c-3 -3 2 -19 10 -35 18 -36 28 -33 14 3 -9 23 -7 26 15 26
16 0 24 -6 24 -18 0 -19 23 -43 33 -34 13 14 -35 61 -63 62 -15 0 -30 -2 -33
-4z"/>
<path d="M1965 1450 c4 -6 11 -8 16 -5 14 9 11 15 -7 15 -8 0 -12 -5 -9 -10z"/>
<path d="M280 1431 c0 -11 4 -22 9 -25 4 -3 6 6 3 19 -5 30 -12 33 -12 6z"/>
<path d="M521 1434 c0 -11 3 -14 6 -6 3 7 2 16 -1 19 -3 4 -6 -2 -5 -13z"/>
<path d="M1763 1428 c2 -7 0 -28 -5 -47 -7 -25 -6 -36 4 -43 9 -6 6 -7 -9 -3
-19 5 -23 2 -23 -16 0 -18 -3 -20 -12 -11 -9 9 -8 16 5 30 22 24 21 27 -3 29
-11 1 -20 -2 -20 -7 0 -5 -10 -10 -22 -12 -12 -2 -23 -10 -26 -18 -4 -12 -2
-13 9 -2 21 19 33 14 48 -19 10 -24 16 -28 23 -18 8 11 9 11 5 -1 -2 -9 -13
-14 -28 -12 -23 3 -23 3 -7 -14 17 -17 18 -17 38 1 14 13 17 22 10 29 -15 15
-12 24 8 22 12 -1 17 7 18 24 0 14 3 30 6 36 4 5 5 19 3 30 -2 10 -4 22 -4 27
-1 4 -6 7 -12 7 -6 0 -9 -6 -6 -12z"/>
<path d="M2520 1436 c0 -2 7 -7 16 -10 8 -3 12 -2 9 4 -6 10 -25 14 -25 6z"/>
<path d="M250 1424 c0 -6 7 -19 16 -30 14 -18 14 -18 3 6 -14 31 -19 36 -19
24z"/>
<path d="M2497 1380 c-28 -46 -74 -74 -130 -76 -50 -3 -97 -25 -97 -47 0 -9 3
-9 9 1 14 23 56 39 78 31 43 -16 141 46 158 101 9 28 2 25 -18 -10z"/>
<path d="M1225 1381 c-3 -5 -1 -12 5 -16 5 -3 10 1 10 9 0 18 -6 21 -15 7z"/>
<path d="M2012 1369 c2 -6 7 -10 11 -10 4 1 15 1 25 1 14 0 15 2 2 10 -20 13
-43 13 -38 -1z"/>
<path d="M638 1353 c7 -3 16 -2 19 1 4 3 -2 6 -13 5 -11 0 -14 -3 -6 -6z"/>
<path d="M1240 1350 c-9 -6 -10 -10 -3 -10 6 0 15 5 18 10 8 12 4 12 -15 0z"/>
<path d="M371 1333 c7 -12 15 -20 18 -17 3 2 -3 12 -13 22 -17 16 -18 16 -5
-5z"/>
<path d="M2039 1342 c-15 -6 -16 -11 -2 -43 8 -21 25 -41 41 -49 25 -11 26
-13 9 -25 -17 -12 -17 -14 6 -41 l25 -28 -9 57 c-21 135 -28 147 -70 129z m30
-52 c0 -10 -3 -8 -9 5 -12 27 -12 43 0 25 5 -8 9 -22 9 -30z"/>
<path d="M2506 1290 c5 -63 65 -260 99 -328 16 -32 23 -117 10 -130 -7 -7 -13
-9 -44 -11 -11 0 -27 -9 -37 -18 -15 -16 -15 -17 2 -24 16 -6 16 -8 2 -8 -9
-1 -25 -4 -35 -7 -15 -5 -15 -4 -3 5 22 15 0 31 -27 20 -23 -9 -31 -33 -14
-44 6 -3 8 4 6 15 -2 11 0 20 5 20 13 0 18 -23 8 -42 -6 -14 -5 -16 7 -12 8 3
12 11 8 17 -4 6 0 8 10 4 10 -4 17 -2 17 4 0 6 10 9 23 6 25 -6 51 3 54 19 1
6 -8 9 -21 7 -16 -3 -23 0 -23 11 0 11 6 14 18 11 26 -9 47 6 67 46 17 33 17
35 -7 84 -14 28 -26 55 -28 60 -1 6 -19 57 -39 114 -20 57 -42 136 -50 175
l-13 71 5 -65z"/>
<path d="M1616 1323 c-3 -4 -6 -13 -6 -20 0 -23 73 -13 76 10 1 10 -3 16 -9
14 -7 -3 -11 -10 -9 -17 2 -9 -4 -8 -21 3 -14 9 -27 13 -31 10z"/>
<path d="M770 1310 c8 -5 20 -10 25 -10 6 0 3 5 -5 10 -8 5 -19 10 -25 10 -5
0 -3 -5 5 -10z"/>
<path d="M2110 1302 c6 -13 14 -66 17 -117 13 -222 -88 -425 -278 -554 -42
-29 -96 -58 -120 -65 l-44 -14 46 -7 c61 -9 83 -4 87 20 5 25 46 65 59 57 5
-4 9 -26 8 -49 -1 -37 2 -43 19 -44 12 0 29 -2 38 -4 9 -2 28 3 41 10 22 11
26 10 35 -9 9 -18 10 -16 6 14 -2 19 -2 30 2 23 3 -7 12 -9 20 -6 17 6 19 -8
2 -25 -6 -6 -8 -15 -4 -19 4 -5 14 1 22 12 14 19 15 19 20 -3 9 -32 25 -27 18
6 l-5 27 19 -22 c25 -28 28 -28 36 0 l6 22 14 -24 c8 -15 16 -20 20 -12 12 18
25 12 19 -9 -4 -16 -2 -19 13 -13 11 3 29 17 41 30 12 13 29 23 38 23 17 0 20
11 6 26 -15 15 0 66 20 71 19 5 23 14 20 44 -2 21 35 53 53 46 29 -11 32 22
12 108 -18 74 -23 84 -39 79 -11 -3 -35 -6 -54 -6 -28 0 -33 -3 -27 -16 4 -10
12 -36 19 -60 6 -24 17 -47 24 -51 29 -18 5 -47 -69 -84 -45 -22 -95 -57 -124
-87 -54 -56 -69 -62 -60 -24 6 22 4 25 -12 22 -10 -2 -24 -14 -31 -28 -7 -14
-13 -22 -13 -17 0 4 -18 -2 -40 -13 -42 -21 -90 -27 -90 -10 0 6 6 10 13 10 8
0 22 9 32 20 10 11 13 20 7 20 -6 0 -14 -4 -17 -10 -3 -5 -15 -10 -26 -10 -10
0 -19 5 -19 10 0 6 9 10 21 10 11 0 32 13 47 30 18 19 50 36 97 51 156 48 198
95 144 163 -25 32 -57 34 -68 4 -10 -25 -14 -19 -25 35 -5 23 -2 29 19 37 24
9 25 11 10 26 -19 19 -12 72 12 91 33 26 168 75 219 80 57 6 60 4 43 -29 -6
-12 -7 -18 -1 -14 20 12 21 -26 2 -64 -11 -22 -20 -45 -19 -52 0 -7 7 3 16 22
8 19 25 49 37 65 12 17 26 37 31 45 8 13 7 13 -10 0 -17 -14 -18 -13 -12 3 4
10 3 16 -2 13 -5 -3 -14 1 -21 9 -7 8 -23 15 -36 15 -13 0 -27 8 -33 18 -8 14
-13 15 -31 4 -17 -10 -25 -10 -49 2 -16 9 -31 23 -35 32 -4 9 -12 14 -22 10
-16 -6 -67 40 -59 54 2 4 -12 22 -32 41 -28 27 -33 29 -23 11z m71 -117 c10
-4 19 -11 19 -16 0 -5 3 -8 8 -7 10 4 57 -30 51 -36 -6 -7 -93 -45 -96 -43 -1
1 -4 34 -7 72 -2 39 -2 62 0 53 3 -9 14 -20 25 -23z m263 -101 c9 -22 -3 -32
-14 -14 -12 19 -12 30 -1 30 5 0 12 -7 15 -16z m-56 -247 c14 -61 15 -77 4
-77 -8 0 -36 49 -51 91 -11 29 -6 39 18 39 12 0 20 -16 29 -53z m-255 -18 c8
6 17 8 21 4 4 -4 4 1 1 12 -6 17 -4 17 14 -4 37 -41 27 -61 -49 -94 -49 -22
-106 -39 -127 -38 -5 0 -18 -10 -30 -21 -13 -12 -23 -17 -23 -12 0 5 16 22 35
37 30 24 92 106 86 115 -1 1 4 8 11 16 11 11 16 10 30 -7 14 -15 21 -17 31 -8z
m187 -138 c-5 -11 -14 -22 -19 -25 -5 -3 -12 -21 -15 -39 -3 -18 -15 -43 -26
-55 -11 -12 -20 -27 -20 -33 0 -7 -6 -4 -14 7 -8 10 -18 16 -22 11 -4 -4 -16
1 -26 10 -14 13 -21 14 -30 5 -7 -7 -17 -12 -22 -12 -25 0 85 95 139 120 33
16 61 29 63 29 1 1 -2 -8 -8 -18z m-390 -62 c0 -5 -4 -9 -10 -9 -5 0 -10 7
-10 16 0 8 5 12 10 9 6 -3 10 -10 10 -16z m-125 -49 c-3 -5 -11 -10 -16 -10
-6 0 -7 5 -4 10 3 6 11 10 16 10 6 0 7 -4 4 -10z"/>
<path d="M618 1291 c-10 -36 -3 -40 57 -35 43 3 57 1 61 -11 3 -8 11 -12 16
-9 6 4 14 0 19 -7 8 -12 11 -12 19 1 5 8 10 20 10 25 0 6 -5 3 -10 -5 -8 -13
-11 -12 -24 5 -9 11 -15 15 -16 7 0 -9 -6 -8 -24 3 -17 11 -35 14 -59 10 -32
-6 -36 -4 -39 17 l-3 23 -7 -24z"/>
<path d="M250 1280 c-21 -21 -26 -45 -11 -54 5 -4 7 2 4 13 -3 12 5 26 23 40
14 11 22 21 15 21 -6 0 -20 -9 -31 -20z"/>
<path d="M320 1296 c0 -2 9 -6 20 -9 11 -3 18 -1 14 4 -5 9 -34 13 -34 5z"/>
<path d="M868 1293 c7 -3 16 -2 19 1 4 3 -2 6 -13 5 -11 0 -14 -3 -6 -6z"/>
<path d="M928 1293 c7 -3 16 -2 19 1 4 3 -2 6 -13 5 -11 0 -14 -3 -6 -6z"/>
<path d="M1986 1285 c3 -11 10 -51 16 -89 32 -228 -131 -465 -369 -536 -36
-11 -42 -17 -45 -46 -4 -31 -2 -33 35 -43 46 -11 88 1 184 55 123 69 229 199
269 329 40 131 43 153 24 170 -10 9 -21 15 -26 13 -5 -1 -19 1 -30 5 -22 8
-33 33 -34 77 -1 14 -8 39 -16 55 -8 17 -12 21 -8 10z m53 -181 c-14 -17 -5
-44 14 -44 26 0 40 26 27 51 -10 17 -9 20 2 17 15 -6 15 -65 0 -80 -5 -5 -21
-6 -36 -2 -19 4 -26 13 -26 29 0 33 10 56 22 49 5 -3 4 -11 -3 -20z m22 -17
c-1 -12 -15 -9 -19 4 -3 6 1 10 8 8 6 -3 11 -8 11 -12z m-12 -58 c26 -9 32
-16 27 -33 -3 -11 -6 -25 -6 -29 0 -5 -10 -7 -22 -5 -19 2 -22 8 -20 31 3 19
-1 27 -12 27 -9 0 -16 5 -16 10 0 13 10 13 49 -1z m-34 -49 c0 -29 -8 -39 -19
-22 -6 10 4 52 13 52 3 0 6 -13 6 -30z m33 -65 c6 -5 -21 -55 -30 -55 -5 0 -4
9 2 21 15 27 4 38 -14 13 -8 -11 -11 -25 -6 -34 9 -18 2 -40 -12 -40 -6 0 -7
7 -4 16 3 8 2 13 -3 9 -12 -7 -41 5 -41 17 0 6 7 8 15 4 15 -5 45 28 45 51 0
23 -19 14 -26 -12 -3 -14 -10 -22 -15 -19 -5 3 -2 18 6 35 16 29 16 29 48 13
18 -9 33 -18 35 -19z m-87 -89 c33 -28 29 -36 -19 -36 l-34 0 23 -20 c13 -10
20 -19 14 -20 -5 0 -23 11 -40 24 -26 21 -28 25 -12 31 9 4 30 5 45 2 l27 -5
-23 18 c-21 18 -28 30 -16 30 3 0 19 -11 35 -24z m-69 -71 c0 -5 -5 -11 -11
-13 -6 -2 -11 4 -11 13 0 9 5 15 11 13 6 -2 11 -8 11 -13z m-32 -5 c0 -5 -6
-10 -14 -10 -17 0 -31 -18 -22 -27 3 -3 12 0 21 7 18 15 45 6 45 -14 0 -9 -9
-20 -19 -26 -29 -15 -39 -12 -17 5 11 8 17 18 13 21 -4 4 -14 1 -22 -6 -13
-11 -19 -11 -32 2 -14 14 -13 18 6 37 22 22 41 27 41 11z m60 -9 c0 -12 -20
-25 -27 -18 -7 7 6 27 18 27 5 0 9 -4 9 -9z m-111 -54 c20 -22 21 -25 5 -38
-15 -12 -17 -12 -12 1 2 8 -1 21 -9 28 -12 12 -18 32 -10 32 2 0 13 -11 26
-23z m-19 -58 c0 -5 -45 -29 -55 -29 -14 0 -2 18 15 23 11 3 20 10 20 16 0 9
-5 9 -20 1 -24 -13 -27 -2 -3 15 25 18 0 27 -26 9 -16 -12 -19 -19 -11 -29 16
-19 2 -43 -31 -50 -48 -11 -97 16 -51 28 12 3 11 5 -6 6 -37 2 -16 18 33 25
25 4 45 11 45 16 0 5 12 16 28 24 26 14 28 13 44 -17 9 -18 17 -35 18 -38z"/>
<path d="M2040 990 c0 -11 4 -20 9 -20 5 0 11 9 14 20 3 13 0 20 -9 20 -8 0
-14 -9 -14 -20z"/>
<path d="M892 1184 c-5 -140 25 -251 96 -364 33 -52 145 -170 162 -170 4 0 10
9 13 19 5 20 -17 36 -34 25 -5 -3 -9 0 -9 5 0 18 24 13 95 -19 37 -16 77 -30
90 -30 24 0 35 -16 28 -37 -6 -17 -40 -17 -50 0 -4 7 -30 26 -58 41 -27 16
-44 23 -37 15 6 -7 12 -21 12 -32 0 -21 109 -75 299 -148 63 -24 107 -45 97
-47 -12 -3 -16 -15 -16 -47 0 -24 -4 -47 -10 -50 -6 -4 -10 14 -10 47 l0 54
-60 22 -60 21 0 -75 c0 -54 -3 -73 -12 -68 -7 4 -8 3 -4 -4 4 -7 16 -12 27
-12 24 0 24 -5 -2 -31 -17 -17 -20 -29 -15 -57 6 -40 19 -57 35 -48 18 11 13
39 -5 32 -11 -4 -14 -1 -12 12 2 9 11 16 21 14 10 -2 15 2 12 10 -3 7 0 20 5
28 9 13 11 13 20 0 5 -8 8 -21 5 -28 -3 -8 2 -12 12 -10 10 2 19 -5 21 -16 2
-11 0 -16 -7 -12 -16 10 -31 -2 -24 -19 9 -24 33 -17 44 12 14 37 2 83 -24 93
-22 8 -22 8 -2 15 41 13 50 23 53 54 l3 31 88 0 c75 0 91 -3 106 -20 18 -19
17 -20 -28 -40 -25 -11 -49 -25 -52 -30 -3 -6 -31 -10 -62 -10 -49 0 -54 2
-43 15 7 9 10 18 7 21 -12 12 -25 -33 -24 -86 0 -95 -53 -159 -108 -130 -42
22 -58 58 -58 125 0 34 -6 68 -13 80 -8 11 -14 15 -14 9 0 -5 5 -15 12 -22 9
-9 -1 -12 -44 -12 -31 0 -60 4 -63 10 -3 5 -27 19 -52 30 -45 20 -46 21 -28
40 15 17 33 20 114 22 l96 2 -94 3 c-85 3 -96 2 -117 -18 -18 -17 -21 -25 -13
-36 9 -9 8 -13 0 -13 -23 0 -23 31 -1 56 22 22 30 24 121 24 l97 0 4 34 c4 33
2 36 -42 52 -25 9 -76 32 -113 51 -38 19 -66 29 -62 23 4 -7 27 -20 51 -30 24
-11 44 -21 44 -23 0 -3 -21 -2 -47 0 -52 5 -93 38 -93 73 0 10 -8 21 -18 25
-31 9 -144 130 -183 194 -58 96 -84 189 -84 302 0 90 -2 97 -24 114 -24 18
-24 18 -18 -4 4 -17 2 -21 -11 -19 -9 2 -30 -12 -46 -30 -16 -18 -46 -42 -67
-52 -20 -11 -49 -34 -63 -52 -20 -25 -26 -29 -26 -15 0 10 27 44 60 75 52 50
78 85 51 67 -5 -3 -12 3 -14 12 -4 14 -5 13 -6 -4 0 -13 -24 -48 -52 -79 -40
-45 -49 -61 -45 -80 8 -31 -11 -32 -24 -1 -9 22 -9 22 -9 1 -1 -12 14 -37 33
-56 19 -19 38 -47 42 -61 7 -31 -3 -100 -14 -93 -4 2 -8 -4 -8 -14 0 -29 14
-13 27 29 14 48 5 100 -22 130 -18 19 -20 27 -10 47 6 14 16 22 21 19 6 -4 7
-11 4 -17 -4 -7 10 -8 44 -3 50 7 52 6 87 -32 19 -21 38 -46 41 -55 3 -10 15
-18 28 -18 13 0 31 -10 42 -21 19 -22 19 -22 -6 -15 -23 6 -23 6 -5 -5 29 -17
34 -30 28 -59 -3 -17 1 -31 11 -39 28 -23 17 -31 -16 -12 -18 10 -35 26 -36
37 -6 31 -22 41 -22 13 0 -13 -6 -42 -14 -63 -24 -70 10 -132 88 -160 35 -13
54 -14 99 -7 5 0 6 5 2 10 -3 5 -1 12 5 16 5 3 10 2 10 -4 0 -7 8 -7 23 -2 15
6 26 4 35 -6 11 -11 17 -11 28 -2 11 9 14 8 14 -5 0 -9 -1 -18 -2 -19 -2 -2 3
-11 11 -20 7 -9 11 -23 8 -31 -4 -10 -1 -13 10 -9 8 3 18 1 22 -5 7 -12 92
-19 108 -9 14 9 84 -18 95 -36 20 -32 8 -37 -79 -37 l-88 0 -44 -40 c-25 -22
-48 -40 -53 -40 -4 0 -8 -16 -8 -36 0 -31 -2 -35 -15 -24 -23 19 -18 46 11 65
l25 16 -25 24 c-14 13 -26 31 -26 40 0 19 -14 19 -29 1 -14 -17 -51 -28 -51
-14 0 5 -5 6 -10 3 -7 -4 -7 -12 0 -25 17 -32 11 -44 -10 -20 -11 12 -25 20
-32 17 -7 -2 -18 1 -24 7 -13 14 -3 52 14 50 6 -1 19 -2 28 -3 9 -1 12 -6 7
-13 -4 -7 6 -5 21 6 22 14 28 15 24 4 -4 -9 0 -15 8 -15 17 0 18 9 3 24 -7 7
-9 19 -5 28 5 14 9 15 20 6 10 -8 16 -9 21 -1 3 6 11 7 17 4 7 -5 8 -2 3 6 -6
10 -1 12 19 8 17 -4 25 -1 23 6 -2 6 -14 10 -25 8 -12 -2 -22 2 -22 8 0 7 7
10 15 7 21 -9 28 10 8 22 -16 9 -16 10 5 11 13 0 21 4 18 9 -3 5 -15 7 -27 4
-12 -4 -25 0 -30 8 -7 11 -9 10 -9 -3 0 -16 -18 -23 -43 -19 -5 1 -6 -3 -2 -8
3 -7 15 -7 29 -1 29 11 34 6 28 -25 -5 -28 -23 -32 -42 -10 -7 8 -22 15 -34
14 -18 0 -17 -2 7 -11 30 -11 35 -23 11 -32 -9 -4 -14 -13 -10 -21 3 -10 -1
-15 -12 -15 -24 0 -42 19 -35 36 6 16 -13 44 -30 44 -5 0 -3 -8 7 -19 9 -10
14 -25 10 -34 -5 -15 -7 -15 -22 0 -15 14 -17 14 -26 0 -9 -14 -13 -9 -28 26
-15 38 -17 39 -17 15 -1 -16 3 -28 9 -28 5 0 7 -6 4 -14 -3 -8 3 -19 15 -25
17 -9 20 -8 24 12 3 13 5 8 6 -15 1 -32 -2 -38 -20 -38 -11 0 -18 -4 -15 -9 3
-5 -1 -14 -9 -21 -8 -7 -15 -19 -15 -26 0 -11 -10 -13 -38 -9 -20 2 -58 -2
-82 -10 -25 -7 -38 -14 -30 -14 17 -1 -53 -51 -72 -51 -17 -1 -53 -28 -46 -36
8 -7 79 29 131 67 29 21 51 29 83 29 54 0 74 -25 74 -92 0 -48 0 -48 -34 -48
-29 0 -34 4 -39 28 -6 33 -8 31 29 34 20 1 30 8 31 18 1 15 -5 16 -49 9 -61
-10 -65 -13 -44 -34 21 -21 21 -22 -11 -38 -32 -17 -114 -9 -121 11 -2 6 1 12
6 12 5 0 32 15 58 33 62 42 79 48 93 34 8 -8 11 -8 11 1 0 8 8 9 28 2 26 -10
26 -9 7 6 -28 22 -74 12 -134 -30 -29 -19 -60 -38 -71 -41 -20 -6 -23 -25 -5
-37 5 -4 0 -6 -12 -5 -18 1 -20 4 -10 17 11 13 10 13 -5 1 -10 -7 -18 -17 -18
-22 0 -5 57 -10 128 -10 82 -1 115 -4 92 -9 -23 -5 -27 -8 -12 -9 19 -1 22 -6
22 -46 0 -26 5 -45 11 -45 7 0 10 17 7 45 -3 40 -1 45 17 45 16 0 17 2 6 9
-11 7 -5 10 20 13 29 3 34 7 33 28 0 16 -5 24 -15 22 -12 -3 -12 -1 0 10 11
10 14 10 18 0 3 -6 10 -9 16 -5 7 4 6 -1 -2 -10 -7 -9 -9 -17 -3 -17 13 0 36
29 29 37 -7 7 22 32 38 33 6 0 3 -5 -5 -10 -9 -6 -10 -10 -3 -10 7 0 11 -14
11 -33 -1 -17 -3 -26 -5 -19 -3 6 -12 12 -20 12 -12 0 -13 -3 -4 -14 9 -11 7
-12 -13 -9 -13 3 -26 1 -29 -4 -3 -5 96 -10 223 -11 152 -1 231 2 235 9 9 14
-23 49 -57 63 -25 11 -23 12 30 12 36 1 47 -1 28 -5 l-28 -6 21 -19 c19 -17
21 -26 15 -98 l-6 -78 39 1 c31 1 34 2 13 8 -14 3 -25 12 -25 19 0 16 9 16 45
0 19 -8 25 -15 17 -20 -7 -5 -1 -8 16 -8 15 0 27 4 27 8 0 11 56 43 64 35 14
-15 4 -32 -21 -36 -22 -3 -20 -4 10 -6 l39 -1 -6 78 c-6 72 -4 81 15 98 l21
19 -28 6 c-19 4 -8 6 28 5 53 0 55 -1 30 -12 -34 -14 -66 -50 -57 -64 8 -13
465 -10 465 3 0 5 -13 7 -30 5 -25 -4 -28 -2 -17 11 10 12 9 14 -10 9 -13 -4
-26 -1 -30 4 -3 6 -1 8 5 5 6 -5 8 0 5 13 -3 13 0 20 8 20 11 0 11 2 -1 10 -8
5 -10 10 -5 10 6 -1 19 -7 29 -15 11 -8 17 -15 13 -15 -4 0 -3 -9 3 -20 6 -11
16 -20 22 -20 6 0 3 9 -6 19 -12 13 -14 21 -6 26 6 3 10 3 9 -2 -3 -20 2 -27
11 -13 8 12 11 13 22 2 11 -11 10 -13 -2 -10 -13 3 -16 -8 -11 -42 0 -5 16
-10 34 -11 27 0 29 -2 12 -9 -16 -7 -14 -9 15 -9 26 -1 31 2 20 9 -10 7 26 10
113 10 147 0 159 9 75 55 -29 16 -67 39 -84 52 -43 32 -88 39 -118 19 -35 -22
-30 -51 8 -54 37 -3 35 -1 29 -34 -5 -24 -10 -28 -39 -28 l-34 0 0 55 c0 51
-10 69 -25 45 -3 -5 -1 -10 4 -10 6 0 11 -4 11 -9 0 -9 -57 2 -68 14 -3 3 3
12 14 19 10 8 16 18 12 22 -5 4 -16 0 -27 -10 -23 -21 -61 -29 -61 -13 0 8 -3
9 -8 1 -10 -15 -40 -25 -46 -15 -9 14 41 34 69 27 17 -4 24 -3 20 4 -3 5 -3
16 2 23 4 6 8 16 8 21 0 19 24 16 30 -4 8 -25 25 -17 18 9 -11 43 42 25 59
-21 5 -12 0 -14 -23 -12 -18 2 -28 0 -24 -6 3 -6 13 -10 21 -10 8 0 14 -5 14
-12 0 -6 7 -4 18 5 30 27 93 22 139 -12 23 -16 63 -41 91 -55 27 -14 52 -32
56 -41 3 -10 -3 -37 -14 -62 -31 -71 -28 -83 23 -82 42 2 42 2 8 8 l-34 6 26
14 c28 15 38 37 12 28 -8 -4 -17 -2 -20 4 -4 5 0 12 8 15 10 4 14 17 12 42 -4
40 -53 92 -87 92 -10 0 -18 3 -18 8 0 4 -14 13 -31 21 -23 10 -28 16 -18 22
11 7 9 9 -6 9 -11 0 -31 6 -45 13 -14 7 -34 16 -44 20 -15 6 -17 5 -7 -6 9
-11 5 -14 -19 -15 -19 0 -30 4 -30 12 0 8 -7 19 -15 26 -8 7 -12 16 -9 21 9
15 -33 10 -46 -5 -6 -8 -18 -12 -26 -9 -8 3 -23 -5 -34 -17 -21 -24 -27 -12
-10 20 7 13 7 21 0 25 -5 3 -10 2 -10 -3 0 -14 -37 -3 -51 14 -17 20 -26 17
-33 -11 -4 -16 -11 -23 -18 -19 -6 4 -8 3 -4 -4 3 -6 -2 -16 -11 -22 -13 -8
-14 -13 -6 -16 7 -3 23 -14 35 -24 l23 -19 -22 -23 -23 -22 0 34 c-1 32 -2 33
-14 17 -11 -14 -15 -15 -19 -5 -4 9 -6 8 -6 -3 -1 -9 6 -22 14 -29 8 -7 12
-16 9 -22 -3 -5 -12 -4 -20 3 -18 14 -15 64 4 64 24 0 17 14 -25 50 -41 35
-46 36 -122 38 -44 1 -77 5 -73 9 4 3 36 14 72 23 36 9 75 23 88 31 12 8 28
12 34 8 7 -4 8 -3 4 4 -4 6 -19 9 -34 6 -61 -12 -239 44 -446 140 -67 32 -102
43 -110 37 -14 -12 -56 -3 -56 10 0 6 6 12 13 15 8 3 -12 30 -53 72 -37 37
-78 92 -93 122 -36 74 -60 191 -54 263 5 52 4 57 -11 45 -13 -11 -15 -10 -9 4
3 10 -1 22 -10 30 -14 11 -16 10 -11 -9 9 -33 -29 -31 -42 2 -5 14 -11 25 -12
25 -2 0 -4 -43 -6 -96z m77 20 c2 -2 4 -24 4 -49 0 -52 1 -50 -35 -59 l-28 -6
0 65 0 65 28 -6 c15 -4 29 -8 31 -10z m-121 -77 c1 -40 7 -89 12 -107 6 -19
10 -35 10 -36 0 0 -7 -1 -16 -1 -9 0 -26 14 -37 30 -28 37 -66 57 -114 57
l-38 1 35 29 c19 17 40 30 47 30 7 0 13 5 13 10 0 6 7 10 15 10 9 0 18 7 22
16 3 9 15 20 27 24 12 5 21 9 22 9 0 1 1 -32 2 -72z m122 -58 c-37 -10 -60
-10 -60 0 0 11 59 19 75 12 5 -3 -1 -8 -15 -12z m20 -29 c0 -5 -11 -10 -25
-10 -14 0 -25 -4 -25 -10 0 -5 -4 -10 -10 -10 -5 0 -10 9 -10 20 0 16 7 20 35
20 19 0 35 -4 35 -10z m-7 -66 l-17 -27 27 7 c15 3 27 3 27 -2 0 -10 -72 -34
-79 -26 -3 2 3 18 13 35 l18 30 -26 -7 c-14 -3 -26 -2 -26 3 0 11 74 31 78 21
2 -4 -5 -19 -15 -34z m47 -53 c0 -5 -8 -11 -17 -15 -10 -3 -24 -9 -30 -12 -8
-3 -13 1 -13 9 0 14 9 18 53 26 4 0 7 -3 7 -8z m26 -47 c16 -24 16 -26 -5 -47
-16 -17 -25 -19 -38 -11 -32 20 -39 41 -19 63 25 28 42 26 62 -5z m28 -52 c-6
-4 -13 -15 -17 -24 -6 -16 -37 -26 -37 -12 0 9 44 43 55 44 6 0 6 -3 -1 -8z
m3 -49 c-14 -15 -29 -24 -33 -20 -3 3 7 17 22 31 38 32 46 23 11 -11z m-179
-14 c-20 -13 8 -12 33 1 16 9 25 5 54 -26 19 -20 35 -39 35 -42 0 -3 8 -14 18
-25 16 -19 16 -19 -4 -13 -15 5 -24 2 -28 -10 -3 -9 -12 -14 -20 -11 -7 3 -19
0 -25 -6 -8 -8 -11 -8 -11 0 0 6 -8 9 -18 6 -27 -7 -92 68 -92 106 0 32 11 40
48 33 18 -4 20 -7 10 -13z m205 -1 c3 -10 7 -10 20 1 24 20 21 1 -5 -26 -24
-25 -48 -32 -28 -8 7 9 10 19 6 22 -4 4 -11 1 -16 -7 -11 -17 -13 -9 -4 14 7
19 21 21 27 4z m57 -22 c0 -3 -4 -8 -10 -11 -5 -3 -10 -1 -10 4 0 6 5 11 10
11 6 0 10 -2 10 -4z m131 -74 c-7 -2 -18 1 -23 6 -8 8 -4 9 13 5 13 -4 18 -8
10 -11z m-41 -48 c0 -2 -9 0 -20 6 -11 6 -20 13 -20 16 0 2 9 0 20 -6 11 -6
20 -13 20 -16z m120 16 c11 -7 12 -12 4 -17 -7 -5 -14 -18 -15 -29 -4 -19 -7
-20 -29 -11 -20 8 -22 11 -7 14 10 3 17 14 17 29 0 26 7 29 30 14z m50 -35
c16 -19 6 -45 -19 -45 -23 0 -35 28 -20 46 15 18 24 18 39 -1z m64 -14 c18 -7
18 -8 3 -14 -9 -3 -17 -16 -17 -27 0 -21 -16 -26 -40 -10 -13 8 -12 11 4 23
11 8 16 19 12 25 -8 13 9 15 38 3z m51 -46 c0 -22 -31 -33 -47 -17 -17 17 -1
44 24 40 15 -2 23 -10 23 -23z m50 9 c14 -6 13 -8 -5 -21 -17 -12 -19 -18 -9
-29 9 -11 7 -14 -9 -14 -28 0 -35 15 -16 30 8 7 13 19 10 27 -6 14 3 16 29 7z
m55 -29 c17 -20 5 -45 -20 -45 -11 0 -23 7 -26 15 -6 15 11 45 26 45 4 0 13
-7 20 -15z m100 -15 c-75 -21 -80 -21 -80 -3 0 15 7 17 52 14 41 -3 48 -5 28
-11z m-217 -65 c17 -12 15 -13 -22 -8 -24 3 -41 2 -41 -4 0 -6 11 -8 25 -5 32
6 45 -22 21 -46 -14 -15 -18 -15 -31 -1 -9 8 -18 33 -22 54 -6 38 -6 38 22 31
16 -4 37 -13 48 -21z m-608 -33 c1 -30 12 -37 20 -12 6 20 30 23 30 4 0 -5 4
-15 8 -21 5 -7 5 -17 2 -23 -4 -6 5 -7 23 -4 41 8 85 -21 76 -50 -5 -17 -4
-19 6 -9 10 9 18 9 33 2 12 -7 17 -7 13 -1 -3 5 1 15 9 22 8 7 15 20 15 29 0
12 -2 13 -9 3 -7 -11 -9 -11 -14 1 -4 10 0 14 11 13 26 -4 33 -50 10 -65 -17
-10 -18 -15 -6 -28 7 -9 8 -14 2 -10 -7 4 -14 1 -17 -7 -3 -7 -15 -16 -26 -19
-14 -3 -19 -1 -14 6 4 7 0 8 -11 4 -9 -4 -14 -3 -11 2 10 17 -12 21 -25 6 -14
-17 -40 -20 -40 -5 0 6 11 15 25 20 14 5 25 16 25 25 0 8 5 15 10 15 15 0 12
16 -2 18 -60 4 -92 13 -109 28 -10 9 -22 14 -27 10 -4 -4 2 -14 12 -22 11 -7
17 -16 14 -19 -11 -12 -68 -23 -68 -14 0 5 6 9 13 9 6 0 4 5 -5 11 -22 12 -23
29 -4 29 8 0 18 5 22 11 5 8 -3 10 -24 7 -33 -5 -34 9 -3 43 20 22 36 18 36
-9z m168 6 c14 -22 -7 -48 -38 -48 -17 0 -26 9 -34 30 -5 17 -6 28 -1 25 5 -3
12 0 15 5 10 16 46 8 58 -12z m705 -1 c18 -19 21 -31 17 -69 -5 -36 -2 -47 11
-52 13 -5 14 -9 4 -21 -7 -8 -9 -15 -4 -15 5 0 0 -7 -10 -15 -11 -8 -27 -15
-35 -15 -11 1 -7 6 9 16 16 10 18 13 5 8 -44 -16 -95 -16 -120 0 -21 14 -25
14 -25 2 0 -8 6 -17 13 -19 6 -3 0 -6 -15 -6 -16 -1 -28 3 -28 7 0 14 32 40
63 51 16 6 26 15 22 20 -7 12 25 30 42 24 6 -2 24 3 40 12 15 9 19 14 9 10
-19 -6 -19 -5 -3 13 16 18 16 20 -6 40 -19 18 -37 22 -112 25 l-90 3 96 2 c88
2 97 0 117 -21z m167 13 c4 -6 10 -8 15 -5 5 3 4 -8 -2 -25 -8 -25 -15 -31
-36 -28 -34 4 -50 30 -31 51 16 18 45 22 54 7z m-445 -62 c14 8 20 9 20 1 0
-6 -9 -13 -19 -16 -12 -3 -17 -11 -14 -19 8 -21 -6 -17 -28 9 -24 29 -24 40 1
25 16 -10 24 -10 40 0z m-306 -19 c-5 -9 35 -23 43 -15 9 9 44 -14 38 -25 -4
-5 6 -14 22 -20 31 -11 63 -37 63 -51 0 -4 -12 -8 -27 -8 -21 0 -24 3 -15 12
21 21 13 29 -13 12 -25 -16 -76 -16 -120 0 -13 5 -11 2 5 -8 16 -10 20 -15 9
-16 -8 0 -24 7 -35 15 -10 8 -15 15 -10 15 5 0 3 7 -4 15 -10 12 -9 16 5 21
12 5 15 14 12 33 -5 21 -2 27 13 27 10 0 17 -3 14 -7z m1060 -32 c17 -13 50
-34 74 -47 23 -13 42 -27 42 -32 0 -11 -17 -10 -22 1 -1 4 -26 5 -55 2 -29 -4
-60 -3 -69 2 -12 7 -15 6 -10 -2 8 -13 -3 -14 -22 -2 -12 7 -12 12 -1 30 8 11
17 21 21 21 5 0 8 4 8 9 0 11 -48 25 -77 22 -29 -3 -30 7 -1 18 34 12 78 4
112 -22z m-334 -27 c0 -6 11 -15 25 -20 14 -5 25 -14 25 -20 0 -15 -26 -12
-40 5 -12 14 -35 11 -26 -3 2 -4 -9 -8 -25 -9 -19 -1 -32 3 -36 12 -3 8 -10
12 -17 9 -6 -3 2 6 18 21 23 21 31 24 43 13 14 -11 15 -10 8 12 -7 22 -6 23 9
8 9 -9 16 -22 16 -28z m-895 10 c0 -8 -8 -16 -17 -18 -13 -2 -18 3 -18 18 0
15 5 20 18 18 9 -2 17 -10 17 -18z m945 0 c0 -11 -6 -20 -13 -20 -19 0 -27 10
-20 26 8 21 33 17 33 -6z m-1150 6 c0 -2 -11 -6 -25 -8 -14 -3 -25 -1 -25 3 0
5 11 9 25 9 14 0 25 -2 25 -4z m1370 -5 c0 -4 -11 -6 -25 -3 -14 2 -25 6 -25
8 0 2 11 4 25 4 14 0 25 -4 25 -9z m-1420 -61 c-8 -5 -19 -10 -25 -10 -5 0 -3
5 5 10 8 5 20 10 25 10 6 0 3 -5 -5 -10z m370 6 c0 -3 -4 -8 -10 -11 -5 -3
-10 -1 -10 4 0 6 5 11 10 11 6 0 10 -2 10 -4z m700 0 c0 -3 -4 -8 -10 -11 -5
-3 -10 -1 -10 4 0 6 5 11 10 11 6 0 10 -2 10 -4z"/>
<path d="M924 1176 c-3 -8 -2 -28 3 -43 l10 -28 12 23 c9 17 9 22 0 20 -6 -2
-14 3 -17 11 -3 10 0 12 12 8 11 -5 16 -3 14 5 -7 19 -27 21 -34 4z"/>
<path d="M1004 865 c-4 -9 -2 -21 4 -27 15 -15 44 -1 40 19 -4 23 -36 29 -44
8z m30 -16 c-3 -5 -10 -7 -15 -3 -5 3 -7 10 -3 15 3 5 10 7 15 3 5 -3 7 -10 3
-15z"/>
<path d="M1400 580 c0 -5 7 -10 16 -10 8 0 12 5 9 10 -3 6 -10 10 -16 10 -5 0
-9 -4 -9 -10z"/>
<path d="M1510 535 c0 -9 5 -15 11 -13 6 2 11 8 11 13 0 5 -5 11 -11 13 -6 2
-11 -4 -11 -13z"/>
<path d="M1620 494 c0 -8 5 -12 10 -9 6 3 10 10 10 16 0 5 -4 9 -10 9 -5 0
-10 -7 -10 -16z"/>
<path d="M1490 390 c0 -5 5 -10 10 -10 6 0 10 5 10 10 0 6 -4 10 -10 10 -5 0
-10 -4 -10 -10z"/>
<path d="M1070 264 c0 -2 8 -8 18 -13 12 -6 23 -5 36 5 18 12 16 13 -17 12
-21 -1 -37 -3 -37 -4z"/>
<path d="M1047 404 c-8 -8 1 -24 14 -24 5 0 9 7 9 15 0 15 -12 20 -23 9z"/>
<path d="M1720 310 c-9 -6 -10 -10 -3 -10 6 0 15 5 18 10 8 12 4 12 -15 0z"/>
<path d="M1939 402 c9 -7 10 -11 2 -15 -7 -4 -8 -5 0 -4 15 3 13 21 -3 25 -10
3 -10 2 1 -6z"/>
<path d="M1267 309 c7 -7 15 -10 18 -7 3 3 -2 9 -12 12 -14 6 -15 5 -6 -5z"/>
<path d="M1876 256 c13 -10 24 -11 36 -5 25 14 23 16 -19 17 -33 1 -35 0 -17
-12z"/>
<path d="M2192 1230 c7 -10 15 -15 18 -10 3 5 11 5 20 0 8 -6 27 -10 41 -10
15 0 38 -9 52 -20 14 -11 32 -20 40 -20 8 0 17 -7 21 -15 3 -8 10 -15 16 -15
21 0 -2 22 -63 61 -44 27 -65 35 -73 28 -9 -7 -22 -5 -43 5 -39 21 -44 20 -29
-4z"/>
<path d="M2341 1228 c2 -2 24 -21 49 -43 31 -27 36 -30 17 -9 -15 17 -24 34
-20 39 5 4 3 5 -4 1 -6 -3 -14 -2 -18 4 -3 5 -11 10 -17 10 -6 0 -9 -1 -7 -2z"/>
<path d="M2273 1188 c2 -14 17 -28 30 -28 14 0 7 28 -9 34 -22 8 -24 8 -21 -6z"/>
<path d="M2057 1183 c-4 -3 -7 -13 -7 -22 1 -13 3 -13 11 2 11 19 8 33 -4 20z"/>
<path d="M2594 1125 c4 -25 23 -39 29 -21 4 10 -1 20 -12 26 -15 8 -19 6 -17
-5z"/>
<path d="M575 1109 c-11 -16 -1 -19 13 -3 7 8 8 14 3 14 -5 0 -13 -5 -16 -11z"/>
<path d="M2615 1058 c4 -12 20 -45 35 -71 26 -46 28 -47 34 -23 4 18 1 31 -14
46 -11 11 -21 25 -21 30 -1 6 -2 16 -3 22 0 7 -9 14 -19 16 -16 3 -18 0 -12
-20z"/>
<path d="M2673 1052 c-8 -5 -9 -13 -3 -22 6 -10 13 -11 19 -5 13 13 -1 36 -16
27z"/>
<path d="M671 999 c-1 -9 9 -28 20 -43 17 -21 20 -36 16 -69 -5 -41 -5 -42 8
-12 13 31 11 50 -11 75 -7 9 -17 27 -23 40 -6 15 -10 19 -10 9z"/>
<path d="M2191 998 c0 -9 -4 -25 -7 -35 -5 -17 -5 -17 6 0 6 10 9 25 7 35 -4
15 -5 15 -6 0z"/>
<path d="M2352 985 c-6 -14 -8 -25 -3 -25 8 0 23 41 17 47 -1 2 -8 -8 -14 -22z"/>
<path d="M710 997 c0 -4 9 -16 20 -27 11 -11 20 -16 20 -12 0 5 -9 17 -20 27
-11 10 -20 15 -20 12z"/>
<path d="M600 962 c8 -30 7 -49 -6 -114 -5 -24 -8 -25 -35 -18 -16 5 -29 6
-29 3 0 -12 -42 32 -51 52 -7 19 -8 19 -8 -2 -1 -34 33 -63 75 -63 32 0 35 -2
30 -22 -3 -13 5 0 19 27 28 56 32 121 10 151 -13 17 -14 16 -5 -14z"/>
<path d="M2846 967 c3 -10 9 -15 12 -12 3 3 0 11 -7 18 -10 9 -11 8 -5 -6z"/>
<path d="M2690 933 c0 -16 -4 -22 -12 -17 -7 5 -8 3 -3 -5 4 -8 -2 -25 -14
-42 -12 -16 -17 -29 -11 -29 6 0 8 -5 4 -12 -4 -7 -3 -8 4 -4 7 4 12 14 12 21
0 8 8 30 17 50 12 24 19 31 25 23 5 -9 8 -4 8 13 0 16 -5 26 -15 26 -9 0 -15
-10 -15 -24z"/>
<path d="M754 920 c0 -13 4 -16 10 -10 7 7 7 13 0 20 -6 6 -10 3 -10 -10z"/>
<path d="M2255 930 c3 -5 11 -10 16 -10 6 0 7 5 4 10 -3 6 -11 10 -16 10 -6 0
-7 -4 -4 -10z"/>
<path d="M814 874 c1 -32 -2 -75 -6 -94 -7 -33 -6 -33 7 5 7 22 14 58 15 80 1
22 4 33 6 25 3 -8 17 -21 32 -27 26 -12 27 -12 6 5 -11 9 -26 26 -32 37 -8 15
-12 16 -12 5 -1 -10 -4 -9 -9 4 -4 12 -7 -4 -7 -40z"/>
<path d="M742 870 c-7 -11 -8 -20 -3 -20 9 0 24 30 18 36 -1 2 -8 -6 -15 -16z"/>
<path d="M671 816 c-7 -9 -21 -16 -31 -16 -28 0 -30 -11 -7 -42 18 -24 19 -32
9 -48 -7 -11 -12 -28 -12 -38 0 -11 -9 -27 -19 -36 -11 -10 -17 -25 -14 -34 4
-10 2 -13 -5 -8 -7 4 -12 14 -12 22 0 8 -5 14 -11 14 -6 0 -9 -6 -6 -14 3 -8
-1 -22 -9 -33 -9 -10 -13 -13 -10 -6 4 6 1 22 -5 36 -9 21 -6 34 25 91 41 75
44 86 18 63 -10 -10 -22 -14 -27 -10 -4 5 -5 2 -1 -5 5 -9 0 -19 -13 -28 -12
-8 -21 -22 -21 -31 0 -14 2 -14 15 3 12 16 14 17 15 2 0 -9 -25 -42 -56 -75
l-56 -58 2 -74 c1 -42 8 -87 16 -102 18 -35 50 -46 73 -25 22 20 41 21 41 2 0
-22 27 -38 50 -31 20 6 21 8 4 26 -9 10 -25 19 -36 19 -10 0 -18 7 -18 15 0
19 -16 19 -24 0 -6 -17 -26 -20 -26 -4 0 5 5 7 10 4 14 -9 12 8 -2 24 -11 11
-8 13 15 9 24 -5 27 -3 21 15 -4 14 -2 18 7 15 8 -3 14 -11 14 -18 0 -7 6 -14
13 -16 7 -1 9 0 4 2 -11 6 -3 64 8 64 5 0 12 -10 16 -22 l6 -21 19 24 19 24 0
-22 c0 -27 6 -29 26 -8 22 22 33 18 27 -7 -4 -21 -3 -21 7 -5 6 9 15 15 21 12
12 -8 12 2 -1 26 -13 22 7 27 29 7 11 -11 13 -9 8 10 -6 26 -7 26 27 9 14 -8
23 -17 19 -20 -3 -4 -2 -7 4 -7 19 0 22 13 8 34 -8 11 -15 30 -15 43 0 12 -4
24 -8 27 -4 2 -6 -11 -4 -30 5 -41 -2 -43 -23 -6 -14 23 -16 24 -12 5 3 -13 2
-23 -2 -23 -10 0 -31 46 -31 66 0 8 -16 24 -35 35 -40 24 -43 40 -16 75 17 22
18 29 7 57 -8 18 -15 38 -18 46 -3 10 -6 10 -17 -3z m12 -43 c3 -5 1 -17 -4
-28 -4 -11 -8 -15 -8 -8 -1 6 -4 18 -7 27 -6 16 11 23 19 9z m17 -155 c10 -9
21 -14 24 -10 3 3 6 -3 6 -14 0 -11 7 -30 16 -42 14 -20 14 -23 0 -28 -9 -3
-16 -12 -16 -19 0 -10 -11 -12 -36 -9 -20 2 -42 0 -49 -6 -9 -8 -14 -6 -19 5
-5 14 -11 13 -45 -7 -22 -12 -38 -25 -35 -29 2 -4 -5 -9 -16 -12 -11 -3 -20
-12 -20 -20 0 -23 -28 -29 -40 -7 -5 10 -10 46 -10 79 0 53 3 62 27 81 l27 21
16 -22 c14 -18 20 -20 38 -10 12 7 22 9 22 6 0 -4 7 0 15 9 8 8 15 19 15 25 0
6 4 11 9 11 5 0 12 9 16 20 7 21 9 20 55 -22z m-190 -244 c0 -8 -5 -12 -10 -9
-6 4 -8 11 -5 16 9 14 15 11 15 -7z m97 -10 c-3 -3 -12 -4 -19 -1 -8 3 -5 6 6
6 11 1 17 -2 13 -5z"/>
<path d="M485 720 c4 -6 11 -8 16 -5 14 9 11 15 -7 15 -8 0 -12 -5 -9 -10z"/>
<path d="M596 715 c4 -8 10 -15 15 -15 4 0 6 7 3 15 -4 8 -10 15 -15 15 -4 0
-6 -7 -3 -15z"/>
<path d="M1270 725 c0 -2 18 -14 40 -25 48 -25 53 -18 8 10 -33 20 -48 25 -48
15z"/>
<path d="M2430 716 c0 -8 -14 -26 -32 -41 -20 -17 -32 -37 -33 -56 -2 -17 -11
-39 -20 -49 -15 -17 -16 -20 -3 -20 8 0 22 -8 30 -17 18 -22 40 -103 27 -103
-8 0 -13 23 -10 43 1 5 -3 6 -9 2 -5 -3 -10 -13 -10 -22 0 -9 -6 -13 -15 -10
-8 4 -16 3 -19 -1 -3 -4 3 -9 12 -10 53 -8 67 -6 67 7 0 8 6 16 14 19 9 3 11
-1 7 -15 -6 -18 -3 -20 21 -15 23 4 26 2 16 -9 -15 -16 -17 -33 -3 -24 6 3 10
-4 11 -17 0 -21 1 -21 8 -4 7 19 8 19 23 -2 17 -24 28 -19 28 12 0 17 2 18 10
6 5 -8 10 -20 10 -27 0 -15 -41 -28 -49 -15 -4 7 -13 5 -26 -5 -20 -15 -20
-15 2 -9 26 8 38 -7 18 -24 -8 -7 -15 -19 -15 -26 0 -8 -8 -14 -17 -15 -10 0
-13 -3 -6 -6 10 -3 10 -9 0 -25 -9 -16 -9 -22 1 -25 6 -3 12 -9 12 -14 0 -4
-6 -7 -12 -5 -7 1 -10 1 -5 -1 4 -3 7 -14 7 -26 1 -20 2 -21 14 -5 17 24 23
23 30 -5 4 -19 12 -23 40 -23 24 1 31 4 25 12 -5 6 -20 9 -34 6 -30 -5 -34 15
-6 26 11 4 19 12 19 17 -1 6 14 18 33 27 19 10 30 18 26 18 -4 0 4 12 18 27
26 29 31 43 16 43 -23 0 -41 -14 -41 -31 0 -11 -7 -22 -15 -26 -9 -3 -29 -18
-45 -34 -16 -16 -36 -29 -45 -29 -15 0 -15 2 -1 22 9 12 16 27 16 33 0 5 -5 2
-11 -7 -5 -10 -17 -18 -26 -18 -13 0 -11 6 10 28 15 15 27 35 27 43 0 7 22 33
49 56 41 36 51 51 60 95 17 77 5 133 -37 180 -19 21 -43 43 -52 48 -14 7 -16
4 -11 -23 3 -19 6 -25 9 -14 2 9 8 17 13 17 12 0 12 -47 -1 -55 -5 -3 -10 -1
-10 4 0 20 -15 11 -32 -19 -15 -27 -9 -45 7 -20 3 6 17 10 31 10 13 0 24 5 24
10 0 6 4 10 9 10 28 0 33 -162 6 -189 -13 -14 -17 -14 -25 -2 -6 11 -12 12
-22 4 -10 -8 -18 -8 -31 1 -9 7 -17 17 -17 21 0 12 -44 55 -57 55 -7 0 -13 8
-13 17 0 9 -10 27 -21 39 -27 29 -20 76 16 118 30 35 60 30 52 -11 -5 -26 10
-73 23 -73 11 0 10 69 -1 76 -6 4 -4 13 7 25 14 16 15 19 2 19 -8 0 -23 9 -33
20 -21 23 -35 26 -35 6z"/>
<path d="M2370 706 c-8 -10 -7 -15 4 -19 8 -3 19 0 26 7 8 10 7 15 -4 19 -8 3
-19 0 -26 -7z"/>
<path d="M1643 699 c-48 -14 -41 -28 7 -16 22 6 40 15 40 19 0 9 -5 9 -47 -3z"/>
<path d="M2834 702 c-6 -4 -4 -13 8 -24 15 -15 18 -15 18 -3 0 8 -6 15 -12 15
-9 0 -8 4 2 10 8 5 11 10 5 10 -5 0 -15 -4 -21 -8z"/>
<path d="M576 662 l-19 -27 24 22 c12 12 21 24 18 27 -2 2 -13 -8 -23 -22z"/>
<path d="M1986 611 c21 -21 29 -19 21 4 -4 8 -14 15 -23 15 -16 0 -16 -2 2
-19z"/>
<path d="M2320 604 c0 -17 22 -14 28 4 2 7 -3 12 -12 12 -9 0 -16 -7 -16 -16z"/>
<path d="M370 589 c0 -5 5 -7 10 -4 6 3 10 8 10 11 0 2 -4 4 -10 4 -5 0 -10
-5 -10 -11z"/>
<path d="M1850 590 c-9 -6 -10 -10 -3 -10 6 0 15 5 18 10 8 12 4 12 -15 0z"/>
<path d="M2289 504 c-10 -12 -8 -18 9 -34 27 -25 32 -25 32 3 1 22 1 22 16 2
15 -19 15 -19 12 10 -2 24 -8 30 -30 32 -15 1 -32 -5 -39 -13z"/>
<path d="M1040 501 c0 -6 4 -13 10 -16 6 -3 7 1 4 9 -7 18 -14 21 -14 7z"/>
<path d="M796 485 c-3 -8 -1 -15 4 -15 6 0 10 7 10 15 0 8 -2 15 -4 15 -2 0
-6 -7 -10 -15z"/>
<path d="M2088 483 c7 -3 16 -2 19 1 4 3 -2 6 -13 5 -11 0 -14 -3 -6 -6z"/>
<path d="M2201 474 c13 -7 27 -10 31 -8 3 2 10 -1 14 -7 4 -8 3 -9 -4 -5 -7 4
-12 2 -12 -3 0 -6 7 -11 15 -11 8 0 15 -4 15 -10 0 -5 6 -10 14 -10 17 0 30
30 18 42 -6 6 -12 3 -16 -7 -4 -10 -2 -14 6 -9 7 4 8 3 4 -5 -4 -6 -12 -9 -17
-5 -5 3 -7 9 -5 13 10 16 -15 35 -49 37 -35 1 -36 0 -14 -12z"/>
<path d="M587 399 c7 -7 15 -10 18 -7 3 3 -2 9 -12 12 -14 6 -15 5 -6 -5z"/>
<path d="M356 383 c-6 -14 -5 -15 5 -6 7 7 10 15 7 18 -3 3 -9 -2 -12 -12z"/>
<path d="M2400 350 c0 -5 5 -10 11 -10 5 0 7 5 4 10 -3 6 -8 10 -11 10 -2 0
-4 -4 -4 -10z"/>
<path d="M540 313 c26 -12 30 -18 18 -20 -16 -4 -22 -15 -19 -35 0 -5 -6 -8
-14 -8 -14 0 -20 20 -15 45 1 6 -2 7 -6 2 -4 -4 -19 0 -33 9 l-26 17 28 -30
c33 -36 34 -45 3 -37 -21 5 -24 2 -28 -29 -4 -38 14 -41 33 -5 8 16 17 19 40
14 21 -4 28 -2 23 5 -4 7 -2 10 5 8 7 -3 12 -8 12 -12 -1 -4 -1 -13 -1 -21 0
-14 -34 -30 -58 -26 -8 0 -16 -8 -19 -19 -3 -12 -14 -21 -25 -21 -10 0 -16 -4
-13 -10 12 -19 35 -10 41 15 7 30 12 31 30 8 12 -17 13 -16 14 5 0 26 4 27 29
5 22 -18 19 -35 -4 -26 -25 9 -17 -11 13 -31 15 -9 20 -16 12 -13 -8 2 -24 1
-35 -4 -15 -6 -9 -8 23 -8 50 -1 53 11 21 83 -15 35 -18 51 -10 60 6 8 9 21 5
30 -3 9 -1 23 6 31 17 21 8 27 -42 31 l-43 3 35 -16z m30 -48 c11 -13 10 -14
-4 -9 -9 3 -16 10 -16 15 0 13 6 11 20 -6z m-90 -22 c0 -5 -5 -15 -10 -23 -8
-12 -10 -11 -10 8 0 12 5 22 10 22 6 0 10 -3 10 -7z"/>
<path d="M417 290 c-3 -11 -17 -24 -31 -30 -33 -12 -34 -24 -2 -16 18 4 28 1
35 -11 5 -10 13 -14 17 -10 4 4 3 12 -4 19 -6 6 -8 24 -5 39 6 33 -2 40 -10 9z"/>
<path d="M354 279 c0 -20 11 -25 20 -10 3 5 0 13 -7 19 -10 8 -13 6 -13 -9z"/>
<path d="M2540 285 c0 -2 10 -10 23 -16 20 -11 21 -11 8 4 -13 16 -31 23 -31
12z"/>
<path d="M330 239 c0 -5 5 -7 10 -4 6 3 10 8 10 11 0 2 -4 4 -10 4 -5 0 -10
-5 -10 -11z"/>
<path d="M301 197 c-13 -21 -12 -21 5 -5 10 10 16 20 13 22 -3 3 -11 -5 -18
-17z"/>
<path d="M628 193 c17 -2 47 -2 65 0 17 2 3 4 -33 4 -36 0 -50 -2 -32 -4z"/>
<path d="M925 190 c-3 -5 -17 -10 -30 -10 -19 0 -23 -6 -27 -40 -3 -39 -3 -40
29 -40 18 0 33 5 33 11 0 6 -9 8 -20 4 -14 -4 -20 -2 -20 9 0 10 6 13 15 10 8
-4 15 -1 15 5 0 6 -7 11 -15 11 -8 0 -15 5 -15 11 0 6 9 9 20 6 13 -3 20 0 20
8 0 7 6 16 13 18 9 4 9 6 0 6 -6 1 -15 -3 -18 -9z"/>
<path d="M991 192 c20 -9 20 -67 -1 -67 -9 0 -15 10 -16 25 0 14 -4 26 -9 27
-9 2 -8 -54 2 -69 6 -10 53 -10 54 0 10 67 2 93 -30 91 -14 0 -14 -1 0 -7z"/>
<path d="M1053 193 c15 -2 37 -2 50 0 12 2 0 4 -28 4 -27 0 -38 -2 -22 -4z"/>
<path d="M1277 193 c18 -2 50 -2 70 0 21 2 7 4 -32 4 -38 0 -55 -2 -38 -4z"/>
<path d="M1633 193 c9 -2 23 -2 30 0 6 3 -1 5 -18 5 -16 0 -22 -2 -12 -5z"/>
<path d="M1708 192 c18 -3 21 -8 16 -28 -4 -13 -2 -24 4 -24 6 0 8 -9 5 -20
-3 -11 0 -20 6 -20 6 0 11 18 11 44 0 38 3 45 23 48 12 2 -3 4 -33 4 -30 0
-45 -2 -32 -4z"/>
<path d="M1838 193 c22 -4 27 -19 22 -70 -1 -13 3 -23 9 -23 6 0 11 10 11 23
l1 22 18 -22 c28 -34 36 -28 34 22 -1 42 1 45 25 46 25 2 25 2 4 6 -31 6 -51
-12 -45 -40 5 -19 2 -18 -27 11 -18 18 -42 31 -54 31 -20 -2 -20 -2 2 -6z"/>
<path d="M2218 193 c6 -2 18 -2 25 0 6 3 1 5 -13 5 -14 0 -19 -2 -12 -5z"/>
<path d="M2338 193 c12 -2 32 -2 45 0 12 2 2 4 -23 4 -25 0 -35 -2 -22 -4z"/>
<path d="M720 140 c0 -38 2 -40 30 -40 33 0 52 25 43 58 -4 17 -13 22 -39 22
-33 0 -34 -1 -34 -40z m48 2 c2 -15 -2 -22 -12 -22 -11 0 -16 9 -16 26 0 31
23 28 28 -4z"/>
<path d="M1120 140 c0 -39 1 -40 35 -40 19 0 35 5 35 11 0 5 -10 9 -22 7 -12
-2 -23 3 -26 11 -3 10 0 12 12 8 9 -4 16 -2 16 3 0 6 -7 10 -15 10 -8 0 -15 5
-15 11 0 7 10 9 25 7 14 -3 25 -1 25 3 0 5 -16 9 -35 9 -34 0 -35 -1 -35 -40z"/>
<path d="M1200 170 c0 -5 5 -10 10 -10 6 0 10 -13 10 -30 0 -16 5 -30 10 -30
6 0 10 14 10 30 0 20 5 30 15 30 8 0 15 5 15 10 0 6 -16 10 -35 10 -19 0 -35
-4 -35 -10z"/>
<path d="M1670 140 c0 -22 5 -40 10 -40 6 0 10 8 10 18 0 14 2 15 10 2 16 -25
23 -3 9 29 -20 44 -39 40 -39 -9z"/>
<path d="M1774 165 c-12 -30 5 -65 31 -65 28 0 46 27 38 58 -6 26 -60 31 -69
7z m50 -11 c8 -20 -1 -34 -20 -34 -8 0 -14 8 -14 18 0 33 23 44 34 16z"/>
<path d="M1980 140 c0 -37 2 -40 29 -40 36 0 55 22 47 55 -5 21 -12 25 -41 25
-34 0 -35 -1 -35 -40z m55 4 c0 -10 -8 -20 -17 -22 -18 -3 -26 27 -11 42 12
11 28 0 28 -20z"/>
<path d="M2070 140 c0 -41 20 -58 21 -17 l0 22 16 -22 c22 -32 29 -29 30 17 2
39 1 40 -33 40 -33 0 -34 -1 -34 -40z m50 20 c0 -5 -7 -10 -15 -10 -8 0 -15 5
-15 10 0 6 7 10 15 10 8 0 15 -4 15 -10z"/>
<path d="M2154 155 c-7 -29 10 -55 36 -55 26 0 43 26 36 55 -5 20 -13 25 -36
25 -23 0 -31 -5 -36 -25z m51 -11 c0 -10 -8 -20 -17 -22 -18 -3 -26 27 -11 42
12 11 28 0 28 -20z"/>
<path d="M2240 140 c0 -22 5 -40 10 -40 6 0 10 18 10 40 0 22 -4 40 -10 40 -5
0 -10 -18 -10 -40z"/>
<path d="M2283 166 c9 -7 17 -25 17 -40 0 -14 5 -26 10 -26 6 0 10 12 10 26 0
15 8 33 18 40 15 12 12 13 -28 13 -40 0 -43 -1 -27 -13z"/>
<path d="M398 163 c7 -3 16 -2 19 1 4 3 -2 6 -13 5 -11 0 -14 -3 -6 -6z"/>
<path d="M408 131 c-16 -18 -15 -20 1 -18 9 0 18 9 18 19 2 22 1 22 -19 -1z"/>
<path d="M1301 134 c0 -11 3 -14 6 -6 3 7 2 16 -1 19 -3 4 -6 -2 -5 -13z"/>
<path d="M2661 134 c0 -11 3 -14 6 -6 3 7 2 16 -1 19 -3 4 -6 -2 -5 -13z"/>
<path d="M502 128 c-15 -15 -16 -38 0 -38 6 0 8 3 5 7 -4 3 0 15 10 25 18 20
4 25 -15 6z"/>
<path d="M670 124 c0 -8 5 -12 10 -9 6 4 8 11 5 16 -9 14 -15 11 -15 -7z"/>
<path d="M1341 124 c0 -11 3 -14 6 -6 3 7 2 16 -1 19 -3 4 -6 -2 -5 -13z"/>
<path d="M2483 122 c10 -10 14 -22 10 -25 -3 -4 -1 -7 5 -7 16 0 15 23 0 38
-19 19 -33 14 -15 -6z"/>
<path d="M673 83 c9 -2 23 -2 30 0 6 3 -1 5 -18 5 -16 0 -22 -2 -12 -5z"/>
<path d="M1043 83 c15 -2 39 -2 55 0 15 2 2 4 -28 4 -30 0 -43 -2 -27 -4z"/>
<path d="M1198 83 c7 -3 16 -2 19 1 4 3 -2 6 -13 5 -11 0 -14 -3 -6 -6z"/>
<path d="M1273 83 c20 -2 54 -2 75 0 20 2 3 4 -38 4 -41 0 -58 -2 -37 -4z"/>
<path d="M1633 83 c9 -2 23 -2 30 0 6 3 -1 5 -18 5 -16 0 -22 -2 -12 -5z"/>
<path d="M1693 83 c9 -2 23 -2 30 0 6 3 -1 5 -18 5 -16 0 -22 -2 -12 -5z"/>
<path d="M1758 83 c7 -3 16 -2 19 1 4 3 -2 6 -13 5 -11 0 -14 -3 -6 -6z"/>
<path d="M1948 83 c6 -2 18 -2 25 0 6 3 1 5 -13 5 -14 0 -19 -2 -12 -5z"/>
<path d="M2278 83 c7 -3 16 -2 19 1 4 3 -2 6 -13 5 -11 0 -14 -3 -6 -6z"/>
<path d="M2333 83 c9 -2 23 -2 30 0 6 3 -1 5 -18 5 -16 0 -22 -2 -12 -5z"/>
<path d="M1355 1830 c3 -5 8 -10 11 -10 2 0 4 5 4 10 0 6 -5 10 -11 10 -5 0
-7 -4 -4 -10z"/>
<path d="M1420 1829 c0 -5 5 -7 10 -4 6 3 10 8 10 11 0 2 -4 4 -10 4 -5 0 -10
-5 -10 -11z"/>
<path d="M1490 1830 c0 -5 5 -10 10 -10 6 0 10 5 10 10 0 6 -4 10 -10 10 -5 0
-10 -4 -10 -10z"/>
<path d="M1070 1545 c-14 -16 -3 -20 19 -6 8 5 9 11 3 15 -5 3 -15 -1 -22 -9z"/>
</g>
</svg>
