<?xml version="1.0" standalone="no"?>
<!DOCTYPE svg PUBLIC "-//W3C//DTD SVG 20010904//EN"
 "http://www.w3.org/TR/2001/REC-SVG-20010904/DTD/svg10.dtd">
<svg version="1.0" xmlns="http://www.w3.org/2000/svg"
 width="289.000000pt" height="292.000000pt" viewBox="0 0 289.000000 292.000000"
 preserveAspectRatio="xMidYMid meet">
<metadata>
Created by potrace 1.16, written by Peter Selinger 2001-2019
</metadata>
<g transform="translate(0.000000,292.000000) scale(0.100000,-0.100000)"
fill="#FF2E63" stroke="none">
<path d="M1282 2734 c-32 -17 -72 -58 -72 -75 0 -5 18 -9 41 -9 75 0 138 -46
154 -113 7 -27 8 -27 95 -27 87 0 88 0 95 27 16 67 79 113 154 113 23 0 41 4
41 10 0 5 -16 25 -35 44 -56 57 -154 62 -220 11 l-35 -26 -36 27 c-46 35 -132
44 -182 18z"/>
<path d="M1593 2486 c3 -8 13 -55 22 -105 21 -110 12 -145 -48 -197 l-42 -36
30 -24 c35 -28 46 -29 83 -10 123 65 150 228 53 325 -41 41 -108 73 -98 47z"/>
<path d="M1359 2470 c-131 -69 -146 -254 -29 -339 61 -44 75 -46 113 -15 l34
26 -43 40 c-70 65 -73 88 -30 291 5 21 0 21 -45 -3z"/>
<path d="M799 2404 l-56 -66 23 -24 c29 -28 30 -48 4 -74 -25 -25 -41 -25 -73
0 l-25 20 -79 -91 c-43 -49 -86 -105 -95 -122 -24 -45 -23 -109 2 -132 40 -36
100 -13 100 39 0 26 -9 40 -34 53 -18 10 -15 12 23 24 40 12 47 11 81 -8 l38
-20 37 49 c21 26 59 68 86 92 45 41 49 48 49 90 0 87 68 180 162 221 31 14 28
14 -77 14 l-110 1 -56 -66z"/>
<path d="M1436 2458 c-11 -35 -26 -136 -26 -169 0 -30 8 -44 42 -78 l42 -40
31 23 c16 13 39 38 49 56 18 30 18 39 7 112 -7 44 -15 86 -18 94 -7 18 -122
20 -127 2z"/>
<path d="M1975 2445 c27 -14 60 -35 73 -48 36 -32 72 -115 72 -165 0 -53 14
-60 82 -38 28 9 68 19 90 22 l38 7 0 -81 c0 -97 4 -110 33 -105 12 2 35 -1 51
-7 l29 -11 -21 -20 c-40 -37 -20 -101 32 -101 40 0 66 28 66 74 0 54 -26 99
-115 200 l-77 88 -25 -20 c-32 -25 -48 -25 -73 0 -26 26 -25 46 4 75 l24 23
-57 66 -56 65 -110 0 -110 1 50 -25z"/>
<path d="M1105 2256 c-165 -53 -275 -138 -380 -295 -36 -54 -76 -108 -90 -121
l-25 -23 53 -56 c253 -271 276 -281 660 -281 125 0 227 3 227 8 0 4 -7 42 -15
85 -8 43 -15 81 -15 83 0 2 -87 4 -193 4 -206 0 -258 8 -317 50 -62 44 -88
147 -56 223 7 18 28 47 47 66 37 37 153 95 210 106 58 11 61 16 39 61 -11 21
-23 56 -27 77 -7 45 -17 46 -118 13z"/>
<path d="M1787 2273 c-4 -3 -7 -16 -7 -27 0 -12 -11 -41 -25 -65 -14 -23 -25
-44 -25 -46 0 -1 30 -10 68 -20 81 -21 207 -81 265 -126 23 -19 87 -76 142
-129 116 -111 156 -143 209 -165 l38 -16 -20 28 c-66 93 -126 268 -138 398
l-7 76 -31 -7 c-17 -3 -43 -13 -58 -20 -39 -20 -49 -18 -130 25 -40 22 -115
54 -166 70 -101 33 -105 34 -115 24z"/>
<path d="M1238 2051 c-95 -61 -131 -164 -89 -256 18 -40 98 -122 108 -111 12
12 30 162 22 178 -19 35 -10 70 29 108 20 20 44 40 52 43 11 4 7 13 -20 36
-19 17 -40 31 -46 31 -5 0 -31 -13 -56 -29z"/>
<path d="M1534 2070 c-46 -10 -89 -45 -109 -86 -19 -41 -16 -50 15 -34 28 15
76 4 95 -23 24 -34 19 -94 -9 -122 -13 -13 -29 -45 -34 -70 l-10 -45 31 0 c17
0 35 -8 42 -17 12 -16 15 -16 53 1 79 36 152 137 152 211 0 35 -28 107 -53
133 -42 46 -113 67 -173 52z"/>
<path d="M1364 1968 c-18 -8 -24 -27 -39 -116 -9 -59 -19 -119 -22 -134 l-5
-28 75 0 75 0 21 111 c11 62 18 116 15 120 -9 15 -30 10 -59 -12 -22 -18 -29
-20 -36 -8 -6 8 -8 29 -5 47 3 17 4 32 3 31 -1 0 -12 -5 -23 -11z"/>
<path d="M2045 1853 c-17 -81 -22 -105 -75 -333 -17 -74 -55 -241 -84 -370
-30 -129 -56 -228 -59 -220 -3 8 -24 139 -47 290 -46 309 -71 463 -75 468 -2
2 -20 -8 -42 -22 -21 -14 -53 -30 -71 -37 -23 -8 -31 -16 -28 -28 3 -9 33
-167 66 -351 33 -184 63 -345 65 -358 5 -21 9 -22 58 -16 67 8 174 31 209 45
15 6 30 19 32 28 3 9 15 52 26 96 12 44 62 231 111 415 l90 335 -71 68 c-38
37 -74 67 -79 67 -5 0 -17 -35 -26 -77z"/>
<path d="M1790 1858 c0 -18 -9 -52 -19 -75 l-19 -41 38 -26 c76 -50 150 -43
199 20 29 37 27 44 -13 44 -26 0 -51 13 -105 55 -39 30 -73 55 -76 55 -3 0 -5
-15 -5 -32z"/>
<path d="M1755 1624 c3 -16 9 -54 13 -84 l7 -55 70 -11 c39 -7 72 -10 74 -8 9
8 39 160 33 166 -4 4 -51 10 -105 14 l-97 7 5 -29z"/>
<path d="M2166 1453 c-23 -92 -25 -108 -13 -122 26 -29 46 -77 53 -128 20
-154 -100 -285 -306 -336 -58 -15 -216 -37 -262 -37 -16 0 -18 -11 -18 -85 l0
-85 53 0 c82 1 255 27 332 50 173 54 285 141 391 304 37 55 80 116 97 133 l31
33 -25 27 c-14 16 -55 73 -91 128 -62 94 -147 188 -194 213 -20 11 -22 6 -48
-95z"/>
<path d="M856 1481 c6 -25 61 -228 122 -451 121 -445 128 -480 114 -533 l-10
-37 83 0 83 0 -6 66 c-3 41 1 95 12 147 9 45 27 141 41 212 62 331 97 512 102
533 5 21 3 22 -71 22 l-76 0 0 -27 c0 -16 -7 -66 -15 -113 -8 -47 -24 -148
-35 -225 -12 -77 -24 -149 -27 -160 -6 -20 -15 16 -93 370 -18 83 -37 155 -42
161 -5 7 -23 15 -41 18 -18 3 -59 19 -93 35 l-60 28 12 -46z"/>
<path d="M1408 893 l-3 -548 -24 -58 c-40 -101 -104 -157 -178 -157 l-38 1 31
13 c39 17 74 61 74 93 0 32 -26 80 -49 93 -11 5 -39 10 -63 10 -69 -1 -108
-45 -108 -122 0 -79 65 -149 156 -168 140 -30 292 73 343 233 7 20 13 37 14
37 1 0 24 -11 51 -25 79 -40 182 -30 229 22 17 20 17 21 -26 31 -87 22 -161
92 -203 192 -17 40 -19 84 -25 425 -4 244 -11 397 -18 428 l-13 47 -73 0 -74
0 -3 -547z"/>
<path d="M579 1293 c83 -105 190 -419 191 -560 0 -23 4 -44 9 -47 15 -10 61
35 93 90 16 30 34 54 39 54 6 0 27 -9 49 -20 22 -11 41 -20 43 -20 2 0 -10 51
-27 114 l-31 115 -128 131 c-94 97 -140 137 -179 155 -29 14 -61 25 -71 25
-15 0 -13 -6 12 -37z"/>
<path d="M1819 638 l-66 -10 1 -84 1 -84 76 0 77 0 -8 37 c-5 21 -5 58 1 86 5
27 9 54 9 58 0 10 1 10 -91 -3z"/>
</g>
</svg>
