<svg xmlns="http://www.w3.org/2000/svg" width="350" height="582" fill="#F1C445"  xmlns:v="https://vecta.io/nano"><path d="M34.58 360.566c.681.685.681.685.681 0-2.043-22.624 21.792-40.448 34.05-48.675-3.405.686-17.025 2.742-27.921 9.598-8.853 5.484-8.853 13.025-9.534 14.396-.681-7.541 2.724-15.082 12.258-19.881 14.301-8.226 29.283-7.541 57.885-15.767 1.362-.686 2.043-.686 3.405-.686 9.534-3.428 16.344-6.17 22.473-10.283 12.939-8.227 15.663-13.711 20.43-19.881.681-.686 1.362-1.371 1.362-2.057-.681 0-1.362.686-2.043.686-8.853 3.427-10.896 4.113-15.663 5.484-7.491 2.742-17.706 4.799-19.068 4.113 0 0 1.362-.685 4.086-1.371 10.215-3.427 36.774-18.51 59.928-18.51 7.491 0 12.258.686 12.258.686s4.086-4.114 6.81-8.227c.681-.685.681-1.371 1.362-2.057 0-.685.681-.685.681-1.371v.686c1.362 3.428 6.81 15.082 9.534 13.025 1.362-1.371 2.724-11.654 4.086-16.453-4.086-2.057-8.853-4.113-8.853-4.113h1.362c1.362.685 3.405.685 4.767-.686l1.362-1.371c.681 0 1.362 0 2.043.686s.681 1.371.681 2.056.681 1.372 1.362 2.057c2.043 2.057 2.043 1.371 7.491 4.113h.681l-2.043-2.056c-2.043-3.428 2.724-3.428 4.086-2.057 3.405 2.742 1.362 3.428 1.362 5.484 3.405.686 5.448 1.372 6.81 1.372 2.724.685 4.085-2.057 4.085-2.743.681-2.742-4.085-1.371-4.766-6.855-.681-6.17 2.724-11.655 5.448-13.711 1.362-.686 3.405-2.057 4.767-3.428 1.362-.686 2.043-1.371 2.724-1.371.681-.686 2.042-.686 2.042-1.371l1.363-1.371c.681-.686.681-1.371 0-1.371h-6.81c-2.043 0-4.086-.001-6.129-.686-.681 0-2.043 0-2.724-.686-1.362 0-2.724-.685-4.086-.685-4.767-.686-6.81-1.371-12.258-2.742 0 0-1.362-.686-2.043-.686 0 0-4.767-1.371-6.129-2.057-2.724-.685-4.767-.685-8.172-1.371h-6.129c-4.767.686-8.853 1.371-14.301.686-8.172-.686-9.534-2.742-4.767-4.113 2.043-.686 5.448-1.372 8.853-1.372 4.086 0 9.534 0 14.301.686 2.043 0 5.448.685 8.853 2.057 2.043.685 3.405 1.371 4.767 1.371 1.362.685 1.362.685 2.043.685s.681 0 1.362.686c1.362-5.485 4.767-17.825 6.81-25.366 2.043-6.855 4.767-19.195 5.448-28.793 2.043.686 9.534 3.428 31.325 6.17 19.749 2.742 37.455 2.057 40.179.686 3.405-1.372 9.534-4.799 10.215-8.227.681-5.485-8.172-19.196-15.663-28.108-4.086-4.799-6.81-10.283-8.172-13.025 0-.686 0-1.372-.681-1.372 0-2.742 0-4.798-3.405-5.484h-1.362c-.681 0-1.362 0-1.362-.686v-.685c0-.686-.681-1.371-1.362-1.371 0 0-.681 0-1.362-.686-.681 0-1.362-.685-1.362-2.056-.681-1.372-.681-2.057-.681-2.057-.681-1.371-.681-1.371-2.043-2.742l-2.043-4.113c-2.043-4.799-2.042-7.541-2.723-8.912s-1.363-2.057-2.725-2.057h-1.361c-2.043 0-3.405-.686-2.724-.686h3.405c0-.686-.682-1.371-1.363-2.057-.681-2.057-2.042-2.057-2.723-2.057-1.362 0-7.492-.686-8.173.686h1.363c1.362 0 1.361.686 2.042 2.057v2.742s2.044-.686 2.044.685c.681 1.371 0 3.428 0 3.428s.681-.686 2.042.686c0 0 .001.686.682.686V88.4c0 .686-.001.686-.682 1.371 0 .686-.681.686-.681.686v1.371c0 .686-.68 1.371-1.361 2.742-.681 0-.681.686-.681.686-.681 0-1.363-.686-1.363-.686s-1.361 2.057-2.723 2.057-1.362-.686-2.043-1.371c0-.686-.681-4.799-1.362-7.541v-3.428c0-1.371.681-2.742.681-2.742s-2.044 2.742-2.044 5.484v4.113s.001 0-.68 0c-.681-.686-.681-1.371-1.362-2.057-1.362-1.371-3.405-2.742-5.448-1.371-1.362.686.681 2.057 1.362 3.428s2.042 4.113 2.723 6.17 1.363 2.743 2.725 4.114 5.447 3.427 7.49 4.799 5.448 2.742 6.81 4.113l1.362 1.371c.681.686.682 1.371.682 1.371s.68.686 1.361.686h4.767c.681.685.681 1.371 0 2.056 0 .686-.681.686-1.362 1.371-.681 0-.681.686-1.362.686s-.681.686-1.362.686h-2.724c-.681 0-1.362 0-1.362-.686-1.362-.686-2.043-2.057-2.724-2.057 0-.685-.68-.685-1.361-.685s-2.044 1.371-2.044 2.056v.686c.681 1.371.682 4.113.682 6.17s.68 6.17 2.723 2.742c1.362-2.056 6.129 2.742 4.086 4.114s-4.766 0-3.405 2.056 3.405 1.371 6.81 4.114h8.172c.681 0 0 .685-.681 1.371s-2.042 1.371-2.723 1.371c1.362 2.056 1.361 3.428 2.042 4.799.681.685 1.362 2.056 2.043 2.742 2.043 2.742 3.405 3.428 10.896 8.912.681.686 0 .686-.681.686-2.724-.686-8.853-4.114-12.258-6.856l-1.362-1.371c-.681-1.371-1.362-2.057-2.043-3.428 0-.685-.681-1.371-.681-2.056-.681-.686-.68-1.372-1.361-1.372-.681-.685-2.044 0-2.725 3.428v4.114c0 .685-.68.685-1.361 0-1.362-1.372-2.044-3.428-2.044-5.485 0-2.742 1.363-4.799 2.044-5.484-2.043-1.371-2.725-1.371-4.768-4.114-2.724-3.427-7.491-4.799-10.896-4.799-6.81.686-10.214-6.17-12.257-8.226-2.043-1.371-6.129-3.428-11.577-3.428-4.767 0-7.491.686-8.172.686 0 0-.681 1.371 1.362 5.484 1.362 2.057 4.767 2.742 4.767 8.227 0 4.799-2.724 8.912 0 13.025l.681.686c2.043 2.742 3.405 7.541 2.724 10.969-2.043 11.654-6.129 30.85-10.896 39.076-1.362 2.057-1.362.686-1.362.686s-1.362-25.366-13.62-52.102c-6.129-14.397-14.982-28.108-24.516-39.763s-14.982-17.824-15.663-17.138.681 2.057-.681 6.856-4.767 6.17-5.448 6.856 2.724.685 6.129 2.056c4.086 1.371 5.448 3.428 2.724 2.743-4.767-.686-12.939-.686-12.258 0s6.81 2.742 11.577 5.484c2.724 2.057 6.129 5.484 2.724 4.799l-21.111-4.113c-8.853-.686-16.344 2.742-14.982 3.427s6.129.686 11.577 6.856c-.681.685-2.724 0-6.81-2.057-6.129-3.428-7.491-2.056-6.81-1.371 1.362.686 4.767 2.057 6.129 4.113 5.448 4.799 7.491 9.598 7.491 9.598.681 1.371 2.724 4.799 3.405 7.541 1.362 3.428 2.724 10.284 2.043 8.913-1.362-1.372-11.577-19.882-14.982-19.882-1.362 0 0 6.856 1.362 8.913 2.043 3.427 9.534 10.283 12.258 13.025 8.172 9.598 11.577 19.881 17.706 29.479.681 1.371 1.362 3.428 1.362 4.799 0 .685.681 1.371.681 2.742.681.686.681 1.371 2.043 2.057 0 0 .681 0 .681.685 0 0 .681 0 .681.686.681.686 1.362.686 2.724 1.371.681 0 1.362 1.371 1.362 2.057l.681.685c2.724 2.742 4.086 2.743 7.491 4.114 1.362 0 2.724.685 4.086 1.371 2.724 1.371 3.405 3.428 2.724 4.113h-1.362c-2.724-.685-6.81-1.371-13.62-.685-2.043 0-4.086.685-6.81.685-2.043.686-3.405.686-4.767.686s-2.724.685-4.086 0c-4.086-.686-6.81-2.057-10.215-4.799l-1.362-1.371c-4.086-3.428 2.043-.686 7.491.685 1.362.686 3.405.686 4.767.686h4.086c2.043 0 4.086 0 6.129-.686h4.086c1.362 0 2.043 0 1.362-.685s-1.362-.686-2.043-1.371c-.681 0-1.362-.686-2.043-.686-.681-.686-1.362-.686-2.724-.686-1.362-.685-2.724-.685-5.448-1.371h-1.362c-4.767-.685-8.853-2.056-12.258-6.855-1.362-2.057 3.405 0 6.81.685h.681c2.043 0 3.405 0 2.043-2.056-6.81-10.284-15.663-14.397-29.964-30.165-3.405-4.113-14.301-14.396-11.577-26.736 1.362-7.542 5.448-11.655 4.086-11.655h-1.362c-1.362.686-2.724 2.057-4.767 4.113-.681.686-.681 1.372-1.362 2.057-.681 1.371-1.362 2.742-1.362 4.799-.681 2.742-.681 5.484-.681 8.227 0 2.056 0 4.113.681 7.541 2.724 14.396 4.086 19.195 10.896 32.906 6.129 13.026 17.706 30.165 23.154 35.649l3.405 3.428c1.362 1.371 4.086 2.742 6.81 3.428 2.724 1.371 6.129 2.742 9.534 4.113 6.81 2.742 21.792 8.227 23.154 8.912-2.724 0-20.43-3.427-25.197-4.798-6.129-1.372-16.344-4.114-19.749-10.284-1.362 11.655-6.81 21.938-13.62 30.165.681-2.743-.681-4.114-4.086-2.057-11.577 7.541-18.387 10.969-27.921 10.283-7.491-.685-11.577-4.799-11.577-3.428-1.362 4.799 6.129 13.026 19.068 13.026-6.129 2.057-26.559 2.742-47.67 19.196-16.344 12.34-27.921 36.334-27.921 55.53 0 6.855 4.086 14.396 8.172 18.51zM198.7 186.435c1.362-.686 3.405.685 3.405 2.742.681 2.056-.681 3.428-2.043 4.113s-2.724-.685-3.405-2.742 0-4.113 2.043-4.113zm-4.767-13.026c-1.362.686-3.405-.686-3.405-2.742-.681-2.057.681-3.428 2.043-4.114s2.724.686 3.405 2.743 0 3.427-2.043 4.113zm-31.326-45.247c.681-.685 10.215-5.484 11.577-5.484 1.362.685-4.767 4.799-3.405 6.17.681.685 6.129 5.484 13.62 13.025 6.129 6.856 9.534 10.969 10.215 13.026 3.405 6.856 0 3.428 0 3.428-.681-1.371-4.086-5.485-8.172-8.912-10.896-11.655-23.835-19.882-23.835-21.253zm25.197-35.649c.681.686 0 .686-.681.686-1.362 0-3.405.686-4.767.686-3.405 0 2.724-3.428 3.405-3.428s2.043 2.057 2.043 2.057zm29.964 50.732c-.681 3.427-3.405 2.742-3.405 2.742s0-.686-1.362-3.428c-.681-2.742 5.448-2.742 4.767.686zM160.564 35.612c0-3.428 5.448-5.485 10.215-5.485 6.81 0 13.62 2.742 14.982 3.428 4.767 2.057 9.534 4.799 11.577 6.17 1.362 1.371 4.086 2.057 2.724 0-1.362-2.742-9.534-8.912-10.215-10.283-.681-.686-1.362-2.057-2.043-2.742 0-1.371.681-2.742 1.362-7.541s1.362-10.283 1.362-12.34c0-2.742.681-4.799 5.448-6.17 4.086-1.371 16.344-1.371 33.369 8.227 16.344 9.598 21.111 24.68 20.43 27.422s-4.767 5.484-8.853 9.598-9.534 13.711-9.534 13.711 0 .686.681.686c2.724 2.057 3.405 2.742 8.853 4.113 2.043.686 4.086 1.371 5.448 2.057-.681-.686-.681-1.371-.681-2.057 0-1.371.68-2.057 2.042-1.371s7.492 5.484 8.173 6.17c2.724 4.113 2.042 4.799 2.042 4.799 0 .686-2.723 0-2.723 0s-2.724 0-2.724-.686-.681-.686-.681-.686c.681-.686.681-.686.681-1.371s-.682 0-2.044-.686h-.68c-.681-.686-1.362-.686-1.362-1.371-.681 0-.682-.685-.682-.685 0 1.371-.68 2.057-4.766 3.428-2.724.686-8.853.686-15.663-2.057-2.724-1.371-4.767-3.428-6.129-4.799-2.043-2.742-2.724-4.799-5.448-8.227-1.362-1.371-5.448-6.856-14.301-10.283-1.362-.686-2.043-.686-2.043-.686s0 .686.681 1.371c1.362.685 4.086 2.742 5.448 4.113 4.767 4.799 4.086 5.484 8.172 10.969 1.362 1.371 3.405 4.113 4.767 5.484 2.724 2.057 4.767 3.428 7.491 4.799-.681 3.428-.681 6.856-1.362 9.598-2.724 5.485-4.767 6.17-8.172 11.655-3.405 4.799-6.129 7.541-6.81 9.597-.681 3.428-6.129 4.114-11.577 0l-2.043-2.056c-1.362-1.371-2.043-2.057-1.362-2.057h.681c.681.686 2.043 1.371 2.724 2.057 2.724 1.371 4.767 1.371 6.81 0 .681-.686 1.362-2.057 1.362-3.428s0-2.742.681-4.113l.681-.686s.681-.686.681-1.371.681-1.371.681-2.057l.681-.685s.681-.686.681-1.371c0-1.371.681-2.742 1.362-2.742h2.043c.681 0 1.362-.686 2.043-1.371 0-.686.681-1.371.681-4.799v-6.856c-.681-.685-2.724-.686-3.405-.686h-.681c-3.405 0-5.448-.686-6.129-.686-.681-.686-1.362-.686-1.362-1.371 0 0 0-.685-.681-.685l-.681-.686c-.681-.685-1.362-.685-1.362-1.371v-1.371c0-.686-.681-.686-1.362-1.371-.681 0-.681-.686-1.362-.686-1.362-.686-2.724-.686-2.724-.686-1.362 0-2.043 0-2.043.686-.681 1.371-.681 2.742-1.362 4.113-.681 5.484.681 8.227 1.362 8.227 0 .686 0 .686-1.362.686s-4.767-2.742-5.448-3.428c-.681 0-.681-.686-.681-2.742v-2.057c0-.685-.681-2.057-.681-2.742-.681-1.371-.681-2.057-1.362-2.057s-1.362-.686-.681-1.371 1.362-.686 1.362-.686c.681 0 .681.686 1.362.686 0-2.057-.681-4.113-2.724-4.799-4.086-.686-6.129 3.428-6.129 5.484s.681 2.742 1.362 4.799.681 4.113 1.362 4.799c.681 1.371 2.724 1.371 2.724 1.371.681 0-1.362 2.742-2.043 2.742s-1.362-2.057-2.043-3.428c-.681-.686-2.043-2.057-4.086-2.742-1.362-.686-2.043-.686-2.724-.686-2.043 0-2.043.686-4.086.686h-2.043c-2.043-.686-2.724-2.742-2.043-3.428h1.362c.681 0 2.043 0 2.724-2.057 0-2.742-2.043-6.17-1.362-11.654 0-4.113 3.405-5.484 6.129-5.484 4.767.685 5.448-1.371 5.448-2.742-.681-.686-2.724-.686-4.086-.686-6.81 0-14.301-2.742-14.301-8.227zm46.308 74.726v-1.371c.681-.686 2.043-1.371 3.405-2.057s3.405-1.371 4.086-.685c.681 0 0 1.371-.681 2.742-2.724 4.113-.681 9.598-.681 10.969 1.362 4.113-3.405 0-5.448-.686 0 0-1.362.686-2.043 1.371s-2.724.686-4.086-.685c-.681-.686-1.362-1.371-2.043-1.371s-2.724.685-4.767 1.371c-2.043 1.371-2.724-.686-2.724-.686s-1.362-4.113-2.043-8.912c-.681-2.057-.681-2.742 0-5.485.681-2.056 4.767.686 8.853 4.799 2.043 2.057 3.405 0 4.767.686.681 0 1.362.685 2.043 1.371.681-1.371 1.362-.686 1.362-1.371zm10.215 46.618s0-2.057-.681-4.114 4.086-2.742 4.086 0c-.681 3.428-3.405 4.114-3.405 4.114zm36.093-69.927c0-.685-.001-2.057.68-3.428s.681-.686.681-.686c.681 0 0 1.371-.681 2.742-.681.686-.68 1.371-.68 1.371zm-57.204-4.113c-.681 0-.681-2.057.681-2.742s3.405 0 3.405 0c.681 0-.681.685-2.043 1.371s-1.362 2.057-2.043 1.371zM77.482 457.229s-12.258 1.371-19.068 0c-4.767-.686-9.534-2.057-10.896-2.742s-2.043-1.372-3.405 1.371-9.534 16.453-12.258 23.309-7.491 19.195-8.853 23.309-3.405 10.968-2.043-.686 9.534-30.85 11.577-34.963c4.086-8.227 6.81-10.969 8.172-13.712.681-.685-2.043-2.056-2.043-2.742-.681 0-.681-.685-1.362-2.056-.681-.686 0-2.743-1.362-1.371-2.724 4.113-8.172 13.025-11.577 21.252-2.043 6.17-6.81 21.252-8.172 28.108-1.362 4.798-2.043 8.912-3.405 10.968-.681 1.371-1.362 3.428-2.043 4.114l-2.043 2.056c2.043-.685 3.405 0 4.086.686s1.362 2.057-1.362 3.428c-1.362.685-2.724 2.742-4.086 4.113s-3.405 0-4.086-2.057c-2.043 5.485-1.362 8.913-1.362 8.913l-.681.685s-2.724 5.485 0 11.655c1.362 4.113 4.086 7.541 4.086 7.541h5.448a417.03 417.03 0 0 0 6.129 15.768c3.405 7.541 6.129 10.283 14.301 13.711C40.028 581.314 48.2 582 52.285 582c4.767 0 6.129-.686 6.81-1.371 1.362-2.742-.681-3.428-.681-3.428s2.043-3.428-.681-7.541c-2.043-2.742-10.215-7.541-10.215-7.541s-4.767-6.17-6.81-13.711c-2.043-8.227-2.724-13.026-2.724-18.51 2.043-.686 2.724-2.742 2.724-4.114 0-.685-.681-1.371-.681-2.056 0 .685 0 1.371-.681 1.371-2.043.685-1.362-1.371-3.405-1.371-2.043-.686-2.724-1.371-1.362-2.057 0 0 2.043-1.371 3.405 0 .681 0 .681.686 1.362.686v-.686c0-2.057.681-5.484 4.086-13.025 4.767-11.655 21.792-33.593 25.878-38.392 5.448-6.855 8.853-10.283 9.534-11.654.681-.685 1.362-.686-1.362-1.371zM20.96 556.634c-2.043 2.057-4.086-4.113-4.767-6.855-1.362-2.742-4.767-6.856-4.767-10.284 0-4.113.681-4.113.681-4.113 2.043-2.057 2.043 1.371 2.043 4.113s2.724 4.114 5.448 7.542 3.405 6.855 1.362 9.597zm16.344 10.284c.681.685 1.362 2.056 2.724 2.742.681.685 2.043.686 2.724 1.371.681 0 .681 0 0 .686h-.681c-.681 0-2.043 0-3.405-.686-2.043-1.371-5.448-1.371-7.491-3.428-2.043-1.371.681-3.427 2.724-3.427 2.043.685 3.405 2.742 3.405 2.742zm-6.81-4.114c-2.043 0-2.043 1.372-4.086 2.057-.681 0-1.362-.686.681-2.742s5.448-1.371 5.448-1.371c3.405.685 1.362 2.056-2.043 2.056zm224.73-316.041L146.944 451.745c0 .685-.681.685-1.362 0-.681 0-.681-.686-.681-1.372.681-2.056 93.297-186.471 101.469-202.924h-.681c-1.362-.686-4.767-2.057-3.405-2.742s1.362-1.371 0-1.371-1.362-.686-1.362-2.057 1.362-2.057 3.405-1.371 2.724 1.371 7.491 1.371c4.767-.686 6.129-.686 7.491-1.371s1.361-1.371 1.361-2.742 1.363-2.057 2.044-3.428c.681-.686.681-2.057.681-2.742s.68-2.057 2.042-2.743c.681 0 1.363-.685 1.363-.685 1.362-1.371.681-2.057 0-3.428s.68-1.371 2.723-.686c1.362.686 3.405 1.372 6.129 2.743 2.043.685 3.405 0 4.086-.686 0 .686.681 2.057.681 4.114s-2.043 3.427-4.086 3.427-2.043 1.371-2.043 1.371 0 .686-.681 2.057-.681 2.057-2.043 2.742-2.043.686-2.043 2.057-1.362 2.742-2.043 3.428c-1.362.685-2.723 1.371-4.766 2.742-2.043-1.371-4.767-1.371-7.491-.686zm6.128-30.164c0-.686 2.043-4.799 3.405-7.541-.681-1.371-1.361-2.742-1.361-4.799 0-1.371.68-3.428 1.361-4.799 0 .686 0 1.371.681 1.371.681.686 1.362.686 2.043.686s.681-.686.681-1.371c0-2.057 2.043-2.057 1.362-2.743H266.8c1.362-1.371 3.404-1.371 5.447-1.371 4.767 0 8.853 4.114 8.853 8.913s-3.405 8.226-8.172 8.226l-1.362 2.742s-2.043-.685-3.405-.685c-3.405 0-6.81 2.742-6.81 1.371zm84.444 311.242c-1.362 0-2.043.686-2.043.686s-3.405-2.743-8.172-.686c-.681.686-2.043 2.057-2.043 4.799-.681 2.742-.681 5.484-1.362 6.17 0 0-.681.685-1.362 0-2.724-.686-2.043-1.371-4.086.685-2.043 1.372-10.215 4.114-13.62.686 0 0-.681-.685 0 0 1.362 0 6.81.686 12.258-3.428.681-.685 1.362-1.371 2.043-1.371-.681 0-1.362.686-2.043.686-6.81 2.056-14.982.685-24.516-2.057-2.043-.685-4.086-1.371-5.448-2.057 0-.685 0-2.056-1.362-2.742-.681-.685-2.043-.685-3.405-.685-.681-.686-2.043-2.057-2.724-3.428-3.405-5.485-9.534-19.881-16.344-37.706-6.81-18.51-11.577-35.649-12.939-41.819 0 0 0-.685-.681-2.056v-.686c0-1.371-1.361-3.428-1.361-4.113-.681-1.371-1.362 4.113-1.362 8.227-.681 1.371-2.043 4.113-3.405 6.169-2.724 6.17-4.087 12.341-8.173 15.768-3.405 2.743-6.128 3.428-6.128 4.114-.681.685 0 .685.681.685s.681.686 1.362 1.371.681 2.057 1.362 2.743v.685c2.724 6.856 6.81 19.881 15.663 34.278 5.448 8.227 12.257 17.824 8.852 15.082-6.129-6.17-14.3-15.768-19.067-22.623-2.043-3.428-4.767-9.598-6.81-14.397-2.043-4.113-3.405-8.912-4.086-10.969v-.685c0-.686-.681-1.372-.681-2.057-1.362-2.057-2.724-2.057-3.405-2.057l-4.086 2.057s2.724 10.283 12.258 24.68 14.301 19.195 19.749 26.051l2.042 2.057c1.362 1.371 2.043 2.742 2.724 4.113 0 1.371 0 3.428.681 4.799.681.685.682.685 1.362.685s3.405 0 2.043 3.428c0 .686-.681 1.371-.681 1.371v2.743c.681 1.371 2.725 2.742 2.725 3.427.681.686.68 2.743 1.361 6.17 0 .686.681 1.371.681 2.057.681 1.371.681 2.057 1.362 3.428 2.724 5.484 8.853 10.283 8.853 10.283l4.767 5.485s3.405-.686 8.853-3.428 7.491-4.799 7.491-4.799l-1.362-6.17s2.724-1.371 3.405-1.371c6.129-2.057 17.025-3.428 25.197-7.541 7.491-4.114 17.025-17.825 18.387-23.995-.681-1.371-3.405-2.742-3.405-2.742zm-68.781 30.165c-.681.685-3.405.685-4.767-2.743-.681-1.371-.681-3.427-1.362-4.799 0-1.371 2.724-2.742 4.086-2.056 2.043.685 1.362 4.113 1.362 4.113 0 4.799 1.362 5.485.681 5.485zm26.559-.686c-2.043.686-5.448 2.057-8.172 2.057-4.086.685-4.086 1.371-8.172 4.113s-2.043-2.742-.681-4.113 7.491-2.057 10.896-2.057 6.129-1.371 6.81-1.371c1.362-.686 1.362.685-.681 1.371zm-70.142-95.978c-8.853 5.485-11.577 6.856-11.577 6.856s-3.405-4.799 0-6.856c.681 0 .681-.685 1.362-.685.681-.686 1.362-2.743 1.362-4.799v-3.428c3.405-2.742 7.491-6.17 8.853-8.227 6.809-8.226 6.809-11.654 6.809-13.711 0-1.371-.68-1.371-1.361-1.371-1.362-.685-2.043-2.057-1.362-4.113s2.724-5.485 4.767-8.912c1.362-3.428 2.043-7.542 2.043-10.284s-.682-4.799-.682-4.113c.681.685 1.363 1.371 2.044 4.113 1.362 4.114 1.361 8.912 1.361 10.969s-.68 4.113-1.361 6.17c0 .686.68.686 1.361.686h.681a192.64 192.64 0 0 0 .682.685c.681 2.057 2.043 5.485 1.362 6.17-.681 1.371-4.767 5.485-7.491 13.711-.681 5.485-2.725 13.026-8.853 17.139zm-81.039-97.349c-6.81 11.655-9.534 19.881-17.025 28.108-4.086 4.113-11.577 11.655-12.939 14.397-2.043 3.428-2.043 4.113-4.086 7.541-1.362 2.057-5.448 3.428-8.172 6.17s-.681 6.17-3.405 8.912-5.448 3.428-8.853 5.485c-2.724 2.056-4.086 4.113-4.086 5.484 0 .686.681 2.057.681 2.057.681 1.371-1.362 2.742-4.086 5.484l-4.767 4.799c-1.362 1.371-2.043 2.057-2.724 2.057 0 0-.681 0-.681-.686.681-.685.681-1.371 1.362-2.742 0-.686.681-2.057.681-2.742s-2.724 0-3.405 0c-2.043.685-8.853 2.056-21.111.685-4.086-.685-7.491-2.742-9.534-4.113v-.686c0-.685 0-1.371.681-1.371.681-.685.681-2.742 0-3.428-.681-1.371-2.043-.685-2.724.686-.681.686 0 1.371-.681 2.057-2.724-3.428-2.043-5.485-2.043-5.485l4.086-5.484c.681.685.681 2.057 1.362 3.428s2.724 3.427 5.448 4.798c.681.686 2.724.686 2.724.686 4.767 1.371 13.62 1.371 15.663 1.371s2.043-1.371.681-2.057c-2.043-.685-7.491-1.371-9.534-2.056-3.405-1.371-4.086-2.057-3.405-2.742s4.086 0 9.534 0c0 0 12.258.685 20.43-2.057 5.448-1.371 6.81-4.113 6.81-4.799s-.681-1.371-2.724-2.057c-1.362 0-2.043-.685-2.724-.685-2.043-1.371-.681-2.742 2.043-2.742.681 0 2.724-.686 3.405-.686h.681c4.086-1.371 6.129-2.742 6.81-3.428 1.362-1.371 1.362-3.428 1.362-4.799 0-.685 0-2.056.681-2.742 0-.685.681-.685.681-1.371s.681-.686 1.362-1.371c3.405-2.742 9.534-4.799 15.663-10.284 5.448-4.798 9.534-11.654 12.258-17.824 3.405-6.855 11.577-23.994 20.43-36.334 4.767-6.17 8.172-9.598 11.577-11.655 9.534-6.855 13.62-6.855 10.896-4.799-2.043 1.371-6.81 5.485-9.534 8.912-5.448 4.799-12.258 14.397-19.749 28.108zm89.211-137.111c1.362-.685 5.447-.685 5.447-.685 1.362 0 0 1.371-2.723 2.742-3.405 1.371-4.767 1.371-5.448.686 0-1.372 1.362-2.057 2.724-2.743zm-151.182 80.21c7.491-1.371 14.301-2.742 15.663-2.742-2.043 1.371-12.258 8.227-17.025 14.397-13.62 17.138-10.215 20.566-13.62 18.51-4.767-2.743-12.258-15.083 2.043-27.423 2.043-.685 4.767-1.371 12.939-2.742zm181.826-90.493s-.681 0-.681-.686c.681-.685 1.362-.685 2.724-.685s2.724.685 5.448 1.371 4.086 1.371 3.405 2.742c0 1.371-1.362 2.057-2.724 2.742l-1.362-1.371c-1.362-1.371-6.129-3.428-6.81-4.113z" fill="#F1C445"/></svg>